<svg width="147" height="63" viewBox="0 0 147 63" fill="none" xmlns="http://www.w3.org/2000/svg">
<path d="M79.0748 2.32301C80.1794 2.32301 81.0748 3.21844 81.0748 4.32301V34.6237H76.6063V2.32301H79.0748Z" fill="#D4564C"/>
<path d="M74.4524 3.47637e-07V34.6237H66.4994V0L74.4524 3.47637e-07Z" fill="#D4564C"/>
<path d="M64.0241 2.32301V34.6237H59.5556V4.32301C59.5556 3.21844 60.4511 2.32301 61.5556 2.32301L64.0241 2.32301Z" fill="#D4564C"/>
<path d="M74.4246 13.9454L82.3206 17.8926L74.4246 21.8399L70.4759 29.7373L66.5272 21.8399L58.6313 17.8926L66.5272 13.9454L70.4759 6.04798L74.4246 13.9454Z" fill="#E7E7E7"/>
<path d="M8.86236 28.7496C8.86236 29.3042 8.72153 29.7874 8.43986 30.1991C8.1582 30.6064 7.76386 30.9227 7.25686 31.1481C6.74986 31.3734 6.15836 31.4861 5.48236 31.4861C5.02303 31.4861 4.59836 31.4384 4.20836 31.3431C3.81836 31.2477 3.48253 31.1134 3.20086 30.9401L3.28536 30.4656C3.43703 30.5696 3.61036 30.6562 3.80536 30.7256C4.0047 30.7949 4.21486 30.8491 4.43586 30.8881C4.6612 30.9271 4.8887 30.9466 5.11836 30.9466C5.55603 30.9466 5.9417 30.8577 6.27536 30.6801C6.61336 30.5024 6.87553 30.2467 7.06186 29.9131C7.25253 29.5794 7.34786 29.1807 7.34786 28.7171C7.34786 28.1711 7.23303 27.6966 7.00336 27.2936C6.77803 26.8862 6.4552 26.5699 6.03486 26.3446C5.61453 26.1192 5.1162 26.0066 4.53986 26.0066H3.85086V33.6636C3.85086 33.7546 3.87686 33.8326 3.92886 33.8976C3.9852 33.9582 4.06536 33.9951 4.16936 34.0081L4.83236 34.0861C4.9277 34.1034 4.99486 34.1337 5.03386 34.1771C5.07286 34.2161 5.09236 34.2746 5.09236 34.3526C5.09236 34.4219 5.06636 34.4782 5.01436 34.5216C4.9667 34.5649 4.8887 34.5866 4.78036 34.5866H1.65386C1.54553 34.5866 1.46536 34.5649 1.41336 34.5216C1.3657 34.4782 1.34186 34.4219 1.34186 34.3526C1.34186 34.2226 1.42203 34.1359 1.58236 34.0926L2.01786 34.0081C2.12186 33.9864 2.19986 33.9474 2.25186 33.8911C2.3082 33.8304 2.33636 33.7546 2.33636 33.6636V26.4096C2.33636 26.3186 2.3082 26.2449 2.25186 26.1886C2.19986 26.1279 2.12186 26.0867 2.01786 26.0651L1.58236 25.9806C1.42203 25.9372 1.34186 25.8506 1.34186 25.7206C1.34186 25.6469 1.3657 25.5906 1.41336 25.5516C1.46536 25.5082 1.54553 25.4866 1.65386 25.4866H4.57236C5.4737 25.4866 6.24286 25.6274 6.87986 25.9091C7.5212 26.1907 8.01086 26.5764 8.34886 27.0661C8.6912 27.5557 8.86236 28.1169 8.86236 28.7496Z" fill="black"/>
<path d="M17.9307 30.7581L17.7032 26.6111C17.6945 26.4507 17.6512 26.3272 17.5732 26.2406C17.4952 26.1496 17.3695 26.0867 17.1962 26.0521L16.8322 25.9871C16.7108 25.9611 16.6285 25.9264 16.5852 25.8831C16.5462 25.8397 16.5267 25.7856 16.5267 25.7206C16.5267 25.6512 16.5527 25.5949 16.6047 25.5516C16.661 25.5082 16.739 25.4866 16.8387 25.4866H19.1527C19.2523 25.4866 19.3282 25.5082 19.3802 25.5516C19.4365 25.5949 19.4647 25.6512 19.4647 25.7206C19.4647 25.7899 19.4408 25.8462 19.3932 25.8896C19.3498 25.9329 19.2718 25.9654 19.1592 25.9871L18.8147 26.0456C18.6153 26.0889 18.4788 26.1604 18.4052 26.2601C18.3358 26.3597 18.3055 26.4876 18.3142 26.6436L18.5482 30.7646C18.5612 30.9856 18.572 31.2001 18.5807 31.4081C18.5937 31.6161 18.6045 31.8327 18.6132 32.0581C18.6305 32.5911 18.5157 33.0656 18.2687 33.4816C18.026 33.8932 17.6533 34.2182 17.1507 34.4566C16.648 34.6906 16.0218 34.8076 15.2722 34.8076C14.4705 34.8076 13.801 34.6949 13.2637 34.4696C12.7263 34.2442 12.3233 33.9279 12.0547 33.5206C11.786 33.1089 11.6582 32.6279 11.6712 32.0776C11.6755 31.9606 11.682 31.8132 11.6907 31.6356C11.6993 31.4579 11.7102 31.2651 11.7232 31.0571C11.7362 30.8447 11.747 30.6281 11.7557 30.4071L11.9702 26.4616C11.9788 26.3402 11.9485 26.2492 11.8792 26.1886C11.8098 26.1236 11.6993 26.0781 11.5477 26.0521L11.1837 25.9871C10.9757 25.9481 10.8717 25.8614 10.8717 25.7271C10.8717 25.6534 10.8977 25.5949 10.9497 25.5516C11.006 25.5082 11.0862 25.4866 11.1902 25.4866H14.2647C14.3643 25.4866 14.4402 25.5082 14.4922 25.5516C14.5485 25.5949 14.5767 25.6534 14.5767 25.7271C14.5767 25.7921 14.5528 25.8462 14.5052 25.8896C14.4618 25.9286 14.3817 25.9611 14.2647 25.9871L13.9007 26.0521C13.762 26.0737 13.6623 26.1149 13.6017 26.1756C13.541 26.2362 13.5063 26.3294 13.4977 26.4551L13.2832 30.3876C13.2658 30.7039 13.2507 30.9899 13.2377 31.2456C13.229 31.5012 13.2225 31.7352 13.2182 31.9476C13.2008 32.7016 13.4023 33.2649 13.8227 33.6376C14.243 34.0102 14.828 34.1966 15.5777 34.1966C16.089 34.1966 16.5267 34.1121 16.8907 33.9431C17.2547 33.7697 17.532 33.5249 17.7227 33.2086C17.9133 32.8879 18.0022 32.5044 17.9892 32.0581C17.9805 31.7634 17.9697 31.5164 17.9567 31.3171C17.948 31.1177 17.9393 30.9314 17.9307 30.7581Z" fill="black"/>
<path d="M29.4508 32.3896C29.4508 33.0352 29.1713 33.5639 28.6123 33.9756C28.0576 34.3829 27.2386 34.5866 26.1553 34.5866H22.0278C21.9195 34.5866 21.8393 34.5649 21.7873 34.5216C21.7353 34.4782 21.7093 34.4219 21.7093 34.3526C21.7093 34.2226 21.7916 34.1359 21.9563 34.0926L22.3853 34.0081C22.4893 33.9864 22.5673 33.9474 22.6193 33.8911C22.6756 33.8304 22.7038 33.7546 22.7038 33.6636V26.4096C22.7038 26.3186 22.6756 26.2449 22.6193 26.1886C22.5673 26.1279 22.4893 26.0867 22.3853 26.0651L21.9563 25.9806C21.7916 25.9372 21.7093 25.8506 21.7093 25.7206C21.7093 25.6469 21.7353 25.5906 21.7873 25.5516C21.8393 25.5082 21.9195 25.4866 22.0278 25.4866H25.2388C26.0275 25.4866 26.6948 25.5971 27.2408 25.8181C27.7911 26.0347 28.2093 26.3381 28.4953 26.7281C28.7856 27.1137 28.9308 27.5644 28.9308 28.0801C28.9308 28.5134 28.8116 28.9034 28.5733 29.2501C28.335 29.5967 27.9796 29.8719 27.5073 30.0756C27.0393 30.2749 26.4521 30.3746 25.7458 30.3746L26.1358 30.1991C26.8161 30.1991 27.4033 30.2944 27.8973 30.4851C28.3913 30.6714 28.7726 30.9292 29.0413 31.2586C29.3143 31.5879 29.4508 31.9649 29.4508 32.3896ZM25.5573 30.5566H23.7828V30.1146H25.4663C25.8866 30.1146 26.2441 30.0366 26.5388 29.8806C26.8378 29.7246 27.0631 29.4992 27.2148 29.2046C27.3708 28.9099 27.4488 28.5567 27.4488 28.1451C27.4488 27.7117 27.3556 27.3326 27.1693 27.0076C26.9873 26.6826 26.7165 26.4291 26.3568 26.2471C25.9971 26.0651 25.553 25.9741 25.0243 25.9741H24.2248V33.5271C24.2248 33.7221 24.2876 33.8672 24.4133 33.9626C24.539 34.0536 24.7275 34.0991 24.9788 34.0991H25.8433C26.2983 34.0991 26.6775 34.0276 26.9808 33.8846C27.2885 33.7372 27.5181 33.5314 27.6698 33.2671C27.8215 33.0027 27.8973 32.6994 27.8973 32.3571C27.8973 31.8154 27.7001 31.3799 27.3058 31.0506C26.9158 30.7212 26.333 30.5566 25.5573 30.5566Z" fill="black"/>
<path d="M34.8229 25.9806L34.3874 26.0651C34.2877 26.0867 34.2097 26.1279 34.1534 26.1886C34.097 26.2449 34.0689 26.3186 34.0689 26.4096V33.6051C34.0689 33.7654 34.1187 33.8824 34.2184 33.9561C34.318 34.0254 34.474 34.0601 34.6864 34.0601H36.0579C36.3092 34.0601 36.5215 34.0276 36.6949 33.9626C36.8682 33.8976 37.022 33.7827 37.1564 33.6181C37.2907 33.4534 37.4207 33.2216 37.5464 32.9226L37.9169 32.0451C37.9602 31.9584 38.01 31.8999 38.0664 31.8696C38.1227 31.8349 38.192 31.8241 38.2744 31.8371C38.361 31.8544 38.4195 31.8934 38.4499 31.9541C38.4845 32.0104 38.4889 32.0884 38.4629 32.1881L37.9104 34.4631C37.8757 34.5887 37.828 34.6819 37.7674 34.7426C37.711 34.8032 37.6309 34.8336 37.5269 34.8336C37.4402 34.8336 37.3579 34.8119 37.2799 34.7686C37.2062 34.7296 37.1239 34.6884 37.0329 34.6451C36.9419 34.6061 36.827 34.5866 36.6884 34.5866H31.8719C31.7635 34.5866 31.6834 34.5649 31.6314 34.5216C31.5837 34.4782 31.5599 34.4219 31.5599 34.3526C31.5599 34.2226 31.64 34.1359 31.8004 34.0926L32.2294 34.0081C32.3334 33.9864 32.4135 33.9474 32.4699 33.8911C32.5262 33.8304 32.5544 33.7546 32.5544 33.6636V26.4096C32.5544 26.3186 32.5262 26.2449 32.4699 26.1886C32.4135 26.1279 32.3334 26.0867 32.2294 26.0651L31.8004 25.9806C31.64 25.9372 31.5599 25.8506 31.5599 25.7206C31.5599 25.6469 31.5837 25.5906 31.6314 25.5516C31.6834 25.5082 31.7635 25.4866 31.8719 25.4866H34.7514C34.8597 25.4866 34.9377 25.5082 34.9854 25.5516C35.0374 25.5906 35.0634 25.6469 35.0634 25.7206C35.0634 25.8506 34.9832 25.9372 34.8229 25.9806Z" fill="black"/>
<path d="M43.1069 33.6636C43.1069 33.7546 43.1351 33.8304 43.1914 33.8911C43.2477 33.9474 43.3257 33.9864 43.4254 34.0081L43.8609 34.0926C44.0212 34.1359 44.1014 34.2226 44.1014 34.3526C44.1014 34.4219 44.0754 34.4782 44.0234 34.5216C43.9757 34.5649 43.8977 34.5866 43.7894 34.5866H40.9099C40.8016 34.5866 40.7214 34.5649 40.6694 34.5216C40.6217 34.4782 40.5979 34.4219 40.5979 34.3526C40.5979 34.2226 40.6781 34.1359 40.8384 34.0926L41.2674 34.0081C41.3714 33.9864 41.4516 33.9474 41.5079 33.8911C41.5642 33.8304 41.5924 33.7546 41.5924 33.6636V26.4096C41.5924 26.3186 41.5642 26.2449 41.5079 26.1886C41.4516 26.1279 41.3714 26.0867 41.2674 26.0651L40.8384 25.9806C40.6781 25.9372 40.5979 25.8506 40.5979 25.7206C40.5979 25.6469 40.6217 25.5906 40.6694 25.5516C40.7214 25.5082 40.8016 25.4866 40.9099 25.4866H43.7894C43.8977 25.4866 43.9757 25.5082 44.0234 25.5516C44.0754 25.5906 44.1014 25.6469 44.1014 25.7206C44.1014 25.8506 44.0212 25.9372 43.8609 25.9806L43.4254 26.0651C43.3257 26.0867 43.2477 26.1279 43.1914 26.1886C43.1351 26.2449 43.1069 26.3186 43.1069 26.4096V33.6636Z" fill="black"/>
<path d="M54.4603 32.2986C54.4603 32.5846 54.3801 32.8771 54.2198 33.1761C54.0594 33.4707 53.8276 33.7437 53.5243 33.9951C53.2209 34.2421 52.8504 34.4414 52.4128 34.5931C51.9794 34.7447 51.4854 34.8206 50.9308 34.8206C50.0078 34.8206 49.2104 34.6191 48.5388 34.2161C47.8714 33.8087 47.3558 33.2519 46.9918 32.5456C46.6321 31.8349 46.4523 31.0181 46.4523 30.0951C46.4523 29.3974 46.5584 28.7561 46.7708 28.1711C46.9874 27.5861 47.2886 27.0769 47.6743 26.6436C48.0643 26.2102 48.5214 25.8744 49.0458 25.6361C49.5701 25.3934 50.1399 25.2721 50.7553 25.2721C51.2103 25.2721 51.5786 25.3197 51.8603 25.4151C52.1419 25.5061 52.3608 25.5992 52.5168 25.6946C52.6771 25.7856 52.7984 25.8311 52.8808 25.8311C52.9848 25.8311 53.0584 25.7921 53.1018 25.7141C53.1451 25.6361 53.1906 25.5581 53.2383 25.4801C53.2859 25.4021 53.3596 25.3631 53.4593 25.3631C53.5243 25.3631 53.5763 25.3826 53.6153 25.4216C53.6586 25.4606 53.6954 25.5277 53.7258 25.6231L54.4213 27.8266C54.4473 27.9132 54.4386 27.9891 54.3953 28.0541C54.3563 28.1191 54.2934 28.1581 54.2068 28.1711C54.1288 28.1884 54.0573 28.1797 53.9923 28.1451C53.9273 28.1104 53.8753 28.0519 53.8363 27.9696C53.5936 27.4539 53.3271 27.0401 53.0368 26.7281C52.7464 26.4117 52.4258 26.1842 52.0748 26.0456C51.7238 25.9026 51.3359 25.8311 50.9113 25.8311C50.4909 25.8311 50.1009 25.9242 49.7413 26.1106C49.3859 26.2926 49.0761 26.5569 48.8118 26.9036C48.5518 27.2459 48.3481 27.6576 48.2008 28.1386C48.0534 28.6196 47.9798 29.1547 47.9798 29.7441C47.9798 30.6367 48.1271 31.3994 48.4218 32.0321C48.7164 32.6604 49.1173 33.1392 49.6243 33.4686C50.1356 33.7979 50.7119 33.9626 51.3533 33.9626C51.9946 33.9626 52.5406 33.8152 52.9913 33.5206C53.4419 33.2259 53.7843 32.8186 54.0183 32.2986C54.0573 32.2162 54.1006 32.1599 54.1483 32.1296C54.1959 32.0992 54.2479 32.0884 54.3043 32.0971C54.3563 32.1014 54.3953 32.1209 54.4213 32.1556C54.4473 32.1902 54.4603 32.2379 54.4603 32.2986Z" fill="black"/>
<path d="M86.3419 34.3526C86.3419 34.2226 86.422 34.1359 86.5824 34.0926L87.0179 34.0081C87.1219 33.9864 87.1999 33.9474 87.2519 33.8911C87.3082 33.8304 87.3364 33.7546 87.3364 33.6636V26.4096C87.3364 26.3186 87.3082 26.2449 87.2519 26.1886C87.1999 26.1279 87.1219 26.0867 87.0179 26.0651L86.5824 25.9806C86.422 25.9372 86.3419 25.8506 86.3419 25.7206C86.3419 25.6469 86.3657 25.5906 86.4134 25.5516C86.4654 25.5082 86.5455 25.4866 86.6539 25.4866H89.8194C90.6297 25.4866 91.3642 25.6057 92.0229 25.8441C92.6859 26.0781 93.2557 26.4096 93.7324 26.8386C94.209 27.2676 94.5752 27.7746 94.8309 28.3596C95.0865 28.9446 95.2144 29.5881 95.2144 30.2901C95.2144 31.1177 95.0237 31.8544 94.6424 32.5001C94.2654 33.1457 93.7172 33.6549 92.9979 34.0276C92.2829 34.4002 91.4162 34.5866 90.3979 34.5866H86.6539C86.5455 34.5866 86.4654 34.5649 86.4134 34.5216C86.3657 34.4782 86.3419 34.4219 86.3419 34.3526ZM90.3004 34.0666C90.985 34.0666 91.5765 33.9214 92.0749 33.6311C92.5732 33.3364 92.9567 32.9052 93.2254 32.3376C93.494 31.7699 93.6284 31.0744 93.6284 30.2511C93.6284 29.6054 93.5352 29.0226 93.3489 28.5026C93.1669 27.9826 92.9025 27.5362 92.5559 27.1636C92.2092 26.7909 91.7889 26.5049 91.2949 26.3056C90.8052 26.1062 90.2549 26.0066 89.6439 26.0066H88.8509V33.5206C88.8509 33.7069 88.9072 33.8456 89.0199 33.9366C89.1369 34.0232 89.3124 34.0666 89.5464 34.0666H90.3004Z" fill="black"/>
<path d="M101.945 25.2721C102.634 25.2721 103.258 25.3912 103.817 25.6296C104.38 25.8636 104.866 26.1972 105.273 26.6306C105.68 27.0596 105.992 27.5687 106.209 28.1581C106.43 28.7474 106.541 29.3931 106.541 30.0951C106.541 30.7841 106.43 31.4167 106.209 31.9931C105.992 32.5694 105.683 33.0699 105.28 33.4946C104.877 33.9149 104.393 34.2421 103.83 34.4761C103.267 34.7057 102.643 34.8206 101.958 34.8206C101.278 34.8206 100.658 34.7036 100.099 34.4696C99.5401 34.2312 99.0569 33.8976 98.6496 33.4686C98.2466 33.0352 97.9346 32.5239 97.7136 31.9346C97.4969 31.3452 97.3886 30.6974 97.3886 29.9911C97.3886 29.3021 97.4969 28.6716 97.7136 28.0996C97.9303 27.5232 98.2401 27.0249 98.6431 26.6046C99.0461 26.1799 99.5271 25.8527 100.086 25.6231C100.645 25.3891 101.265 25.2721 101.945 25.2721ZM104.981 30.9401C104.981 30.3681 104.924 29.8264 104.812 29.3151C104.699 28.7994 104.539 28.3314 104.331 27.9111C104.127 27.4907 103.884 27.1267 103.603 26.8191C103.321 26.5071 103.011 26.2666 102.673 26.0976C102.335 25.9286 101.978 25.8441 101.601 25.8441C101.072 25.8441 100.61 25.9762 100.216 26.2406C99.8218 26.5049 99.5141 26.8841 99.2931 27.3781C99.0721 27.8721 98.9616 28.4636 98.9616 29.1526C98.9616 29.7289 99.0179 30.2749 99.1306 30.7906C99.2433 31.3019 99.4014 31.7699 99.6051 32.1946C99.8088 32.6149 100.051 32.9811 100.333 33.2931C100.615 33.6007 100.922 33.8391 101.256 34.0081C101.594 34.1771 101.952 34.2616 102.329 34.2616C102.862 34.2616 103.325 34.1294 103.72 33.8651C104.118 33.5964 104.428 33.2151 104.649 32.7211C104.87 32.2227 104.981 31.6291 104.981 30.9401Z" fill="black"/>
<path d="M114.327 32.4546L113.8 32.7016L116.491 25.9481C116.556 25.7791 116.634 25.6599 116.725 25.5906C116.82 25.5212 116.948 25.4866 117.109 25.4866H118.656C118.764 25.4866 118.846 25.5082 118.903 25.5516C118.959 25.5906 118.987 25.6469 118.987 25.7206C118.987 25.7812 118.968 25.8332 118.929 25.8766C118.89 25.9199 118.825 25.9546 118.734 25.9806L118.357 26.0716C118.201 26.1106 118.094 26.1691 118.038 26.2471C117.986 26.3251 117.967 26.4572 117.98 26.6436L118.506 33.5596C118.515 33.7026 118.547 33.8044 118.604 33.8651C118.664 33.9214 118.766 33.9691 118.909 34.0081L119.267 34.0926C119.358 34.1186 119.42 34.1532 119.455 34.1966C119.494 34.2356 119.514 34.2832 119.514 34.3396C119.514 34.4132 119.485 34.4739 119.429 34.5216C119.377 34.5649 119.295 34.5866 119.182 34.5866H116.309C116.201 34.5866 116.118 34.5649 116.062 34.5216C116.01 34.4782 115.984 34.4219 115.984 34.3526C115.984 34.2919 116.001 34.2399 116.036 34.1966C116.075 34.1532 116.142 34.1186 116.238 34.0926L116.602 34.0081C116.766 33.9647 116.877 33.9127 116.933 33.8521C116.989 33.7871 117.013 33.6917 117.005 33.5661L116.439 26.5461L116.933 26.5201L114.08 33.7221C114.019 33.8781 113.956 33.9799 113.891 34.0276C113.83 34.0709 113.759 34.0926 113.677 34.0926C113.616 34.0926 113.56 34.0839 113.508 34.0666C113.456 34.0492 113.408 34.0124 113.365 33.9561C113.321 33.8997 113.278 33.8152 113.235 33.7026L110.349 26.6891L110.823 26.4486L110.219 33.3906C110.206 33.5682 110.24 33.7004 110.323 33.7871C110.409 33.8737 110.537 33.9452 110.706 34.0016L111.09 34.1186C111.159 34.1446 111.213 34.1749 111.252 34.2096C111.291 34.2399 111.311 34.2854 111.311 34.3461C111.311 34.4154 111.282 34.4739 111.226 34.5216C111.17 34.5649 111.087 34.5866 110.979 34.5866H108.854C108.741 34.5866 108.656 34.5649 108.6 34.5216C108.548 34.4782 108.522 34.4219 108.522 34.3526C108.522 34.2789 108.546 34.2226 108.594 34.1836C108.646 34.1446 108.713 34.1121 108.795 34.0861L109.114 33.9886C109.27 33.9452 109.387 33.8781 109.465 33.7871C109.547 33.6961 109.597 33.5639 109.614 33.3906L110.199 26.6631C110.212 26.4941 110.186 26.3619 110.121 26.2666C110.06 26.1712 109.952 26.1062 109.796 26.0716L109.445 25.9936C109.35 25.9719 109.28 25.9394 109.237 25.8961C109.194 25.8527 109.172 25.7964 109.172 25.7271C109.172 25.5667 109.287 25.4866 109.517 25.4866H111.031C111.183 25.4866 111.304 25.5147 111.395 25.5711C111.49 25.6274 111.571 25.7422 111.636 25.9156L114.327 32.4546Z" fill="black"/>
<path d="M123.159 30.9661H127.033L127.072 31.5186H123.094L123.159 30.9661ZM123.776 34.3526C123.776 34.4219 123.75 34.4782 123.698 34.5216C123.646 34.5649 123.564 34.5866 123.451 34.5866H121.436C121.328 34.5866 121.246 34.5671 121.189 34.5281C121.137 34.4847 121.111 34.4262 121.111 34.3526C121.111 34.3006 121.127 34.2572 121.157 34.2226C121.192 34.1836 121.254 34.1467 121.345 34.1121L121.599 34.0276C121.725 33.9712 121.818 33.8976 121.878 33.8066C121.943 33.7156 122.015 33.5509 122.093 33.3126L124.374 26.4811C124.426 26.3251 124.437 26.2146 124.407 26.1496C124.381 26.0802 124.29 26.0239 124.134 25.9806C124.017 25.9502 123.935 25.9156 123.887 25.8766C123.839 25.8332 123.815 25.7791 123.815 25.7141C123.815 25.6404 123.841 25.5841 123.893 25.5451C123.95 25.5061 124.034 25.4866 124.147 25.4866H126.831C126.944 25.4866 127.026 25.5061 127.078 25.5451C127.13 25.5841 127.156 25.6382 127.156 25.7076C127.156 25.7769 127.133 25.8332 127.085 25.8766C127.042 25.9156 126.964 25.9502 126.851 25.9806C126.725 26.0066 126.652 26.0477 126.63 26.1041C126.608 26.1561 126.617 26.2427 126.656 26.3641L129.067 33.4946C129.124 33.6722 129.193 33.8044 129.275 33.8911C129.358 33.9777 129.475 34.0406 129.626 34.0796C129.743 34.1142 129.821 34.1532 129.86 34.1966C129.904 34.2356 129.925 34.2876 129.925 34.3526C129.925 34.4219 129.897 34.4782 129.841 34.5216C129.785 34.5649 129.702 34.5866 129.594 34.5866H127.013C126.901 34.5866 126.816 34.5649 126.76 34.5216C126.708 34.4782 126.682 34.4219 126.682 34.3526C126.682 34.2919 126.701 34.2421 126.74 34.2031C126.784 34.1641 126.849 34.1337 126.935 34.1121L127.39 34.0406C127.503 34.0146 127.559 33.9669 127.559 33.8976C127.564 33.8239 127.54 33.7069 127.488 33.5466L125.005 26.0846L125.193 26.0001L122.782 33.2411C122.73 33.4014 122.704 33.5314 122.704 33.6311C122.704 33.7307 122.736 33.8131 122.801 33.8781C122.866 33.9387 122.964 33.9907 123.094 34.0341L123.529 34.1121C123.612 34.1381 123.672 34.1684 123.711 34.2031C123.755 34.2377 123.776 34.2876 123.776 34.3526Z" fill="black"/>
<path d="M134.455 33.6636C134.455 33.7546 134.483 33.8304 134.539 33.8911C134.595 33.9474 134.673 33.9864 134.773 34.0081L135.209 34.0926C135.369 34.1359 135.449 34.2226 135.449 34.3526C135.449 34.4219 135.423 34.4782 135.371 34.5216C135.323 34.5649 135.245 34.5866 135.137 34.5866H132.258C132.149 34.5866 132.069 34.5649 132.017 34.5216C131.969 34.4782 131.946 34.4219 131.946 34.3526C131.946 34.2226 132.026 34.1359 132.186 34.0926L132.615 34.0081C132.719 33.9864 132.799 33.9474 132.856 33.8911C132.912 33.8304 132.94 33.7546 132.94 33.6636V26.4096C132.94 26.3186 132.912 26.2449 132.856 26.1886C132.799 26.1279 132.719 26.0867 132.615 26.0651L132.186 25.9806C132.026 25.9372 131.946 25.8506 131.946 25.7206C131.946 25.6469 131.969 25.5906 132.017 25.5516C132.069 25.5082 132.149 25.4866 132.258 25.4866H135.137C135.245 25.4866 135.323 25.5082 135.371 25.5516C135.423 25.5906 135.449 25.6469 135.449 25.7206C135.449 25.8506 135.369 25.9372 135.209 25.9806L134.773 26.0651C134.673 26.0867 134.595 26.1279 134.539 26.1886C134.483 26.2449 134.455 26.3186 134.455 26.4096V33.6636Z" fill="black"/>
<path d="M140.731 34.3526C140.731 34.4219 140.703 34.4782 140.647 34.5216C140.595 34.5649 140.513 34.5866 140.4 34.5866H138.177C138.069 34.5866 137.986 34.5649 137.93 34.5216C137.874 34.4782 137.845 34.4219 137.845 34.3526C137.845 34.2356 137.928 34.1489 138.092 34.0926L138.482 33.9886C138.677 33.9236 138.81 33.8521 138.879 33.7741C138.948 33.6961 138.983 33.5682 138.983 33.3906V27.3586C138.983 27.2286 138.966 27.1202 138.931 27.0336C138.896 26.9469 138.812 26.8234 138.677 26.6631L138.105 25.9741C138.045 25.8961 138.004 25.8376 137.982 25.7986C137.965 25.7596 137.956 25.7206 137.956 25.6816C137.956 25.6166 137.978 25.5689 138.021 25.5386C138.069 25.5039 138.129 25.4866 138.203 25.4866H139.327C139.44 25.4866 139.533 25.5061 139.607 25.5451C139.681 25.5841 139.759 25.6577 139.841 25.7661L145.314 32.8316L145.041 33.3971V26.6826C145.041 26.5092 145.008 26.3836 144.943 26.3056C144.883 26.2232 144.748 26.1496 144.54 26.0846L144.157 25.9806C143.988 25.9199 143.903 25.8332 143.903 25.7206C143.903 25.6469 143.932 25.5906 143.988 25.5516C144.044 25.5082 144.127 25.4866 144.235 25.4866H146.458C146.566 25.4866 146.649 25.5082 146.705 25.5516C146.761 25.5906 146.789 25.6469 146.789 25.7206C146.789 25.8376 146.705 25.9242 146.536 25.9806L146.152 26.0846C145.953 26.1452 145.819 26.2167 145.749 26.2991C145.684 26.3771 145.652 26.5049 145.652 26.6826V32.9811C145.652 33.1067 145.663 33.2107 145.684 33.2931C145.71 33.3754 145.752 33.4534 145.808 33.5271L146.211 34.0406C146.276 34.1272 146.317 34.1944 146.334 34.2421C146.352 34.2854 146.36 34.3287 146.36 34.3721C146.36 34.4371 146.337 34.4891 146.289 34.5281C146.246 34.5671 146.176 34.5866 146.081 34.5866H144.761C144.592 34.5866 144.508 34.5172 144.508 34.3786C144.508 34.3136 144.495 34.2529 144.469 34.1966C144.447 34.1402 144.378 34.0362 144.261 33.8846L139.119 27.2156L139.587 26.8581V33.3906C139.587 33.5639 139.62 33.6896 139.685 33.7676C139.75 33.8456 139.886 33.9192 140.094 33.9886L140.478 34.0926C140.647 34.1489 140.731 34.2356 140.731 34.3526Z" fill="black"/>
<path d="M19.072 56.1788C19.0613 56.8615 18.864 57.5548 18.48 58.2588C18.096 58.9521 17.5413 59.5921 16.816 60.1788C16.1013 60.7655 15.232 61.2348 14.208 61.5868C13.184 61.9495 12.0213 62.1308 10.72 62.1308C8.50133 62.1308 6.592 61.6348 4.992 60.6428C3.392 59.6401 2.16 58.2695 1.296 56.5308C0.432 54.7921 0 52.7921 0 50.5308C0 48.8135 0.250667 47.2348 0.752 45.7948C1.264 44.3548 1.984 43.1068 2.912 42.0508C3.85067 40.9841 4.94933 40.1575 6.208 39.5708C7.46667 38.9841 8.848 38.6908 10.352 38.6908C11.4933 38.6908 12.4213 38.8188 13.136 39.0748C13.8613 39.3201 14.4213 39.5708 14.816 39.8268C15.2107 40.0721 15.4933 40.1948 15.664 40.1948C15.888 40.1948 16.0427 40.0881 16.128 39.8748C16.2133 39.6615 16.2987 39.4535 16.384 39.2508C16.4693 39.0375 16.6187 38.9308 16.832 38.9308C16.9387 38.9308 17.0293 38.9628 17.104 39.0268C17.1787 39.0908 17.2427 39.2081 17.296 39.3788L19.024 44.7548C19.0773 44.9148 19.0667 45.0588 18.992 45.1868C18.928 45.3041 18.816 45.3681 18.656 45.3788C18.5173 45.4001 18.3947 45.3788 18.288 45.3148C18.1813 45.2401 18.096 45.1335 18.032 44.9948C17.424 43.7255 16.752 42.6961 16.016 41.9068C15.28 41.1175 14.4533 40.5361 13.536 40.1628C12.6293 39.7895 11.6107 39.6028 10.48 39.6028C9.34933 39.6028 8.29867 39.8481 7.328 40.3388C6.35733 40.8188 5.50933 41.5068 4.784 42.4028C4.05867 43.2988 3.49333 44.3708 3.088 45.6188C2.69333 46.8668 2.496 48.2641 2.496 49.8108C2.496 52.0721 2.88533 54.0135 3.664 55.6348C4.45333 57.2561 5.52 58.4988 6.864 59.3628C8.208 60.2161 9.728 60.6428 11.424 60.6428C13.152 60.6428 14.5973 60.2481 15.76 59.4588C16.9333 58.6588 17.792 57.5815 18.336 56.2268C18.4 56.0775 18.4693 55.9761 18.544 55.9228C18.6293 55.8588 18.72 55.8321 18.816 55.8428C18.9013 55.8535 18.9653 55.8855 19.008 55.9388C19.0507 55.9921 19.072 56.0721 19.072 56.1788Z" fill="black"/>
<path d="M29.0452 39.9868L27.7812 40.1788C27.5359 40.2215 27.3493 40.3068 27.2213 40.4348C27.0933 40.5628 27.0293 40.7281 27.0293 40.9308V59.6348C27.0293 59.9868 27.1519 60.2481 27.3973 60.4188C27.6426 60.5895 28.0319 60.6748 28.5653 60.6748H32.7573C33.3759 60.6748 33.8986 60.5948 34.3252 60.4348C34.7519 60.2748 35.1199 59.9975 35.4293 59.6028C35.7386 59.1975 36.0372 58.6375 36.3252 57.9228L37.2053 55.7628C37.2799 55.6028 37.3599 55.4961 37.4453 55.4428C37.5306 55.3788 37.6479 55.3575 37.7972 55.3788C37.9466 55.3895 38.0479 55.4481 38.1012 55.5548C38.1546 55.6615 38.1599 55.8055 38.1172 55.9868L36.8213 61.5708C36.7679 61.7841 36.6879 61.9388 36.5813 62.0348C36.4853 62.1308 36.3573 62.1788 36.1973 62.1788C36.0159 62.1788 35.8452 62.1255 35.6852 62.0188C35.5359 61.9228 35.3652 61.8215 35.1732 61.7148C34.9919 61.6188 34.7519 61.5708 34.4533 61.5708H22.5972C22.4159 61.5708 22.2826 61.5388 22.1973 61.4748C22.1119 61.4001 22.0693 61.3041 22.0693 61.1868C22.0693 60.9735 22.2292 60.8295 22.5492 60.7548L23.8132 60.5628C24.0479 60.5201 24.2293 60.4348 24.3573 60.3068C24.4959 60.1788 24.5653 60.0135 24.5653 59.8108V40.9308C24.5653 40.7281 24.4959 40.5628 24.3573 40.4348C24.2293 40.3068 24.0479 40.2215 23.8132 40.1788L22.5492 39.9868C22.2292 39.9121 22.0693 39.7681 22.0693 39.5548C22.0693 39.4268 22.1119 39.3308 22.1973 39.2668C22.2826 39.2028 22.4159 39.1708 22.5972 39.1708H28.9813C29.1839 39.1708 29.3226 39.2028 29.3973 39.2668C29.4826 39.3308 29.5252 39.4268 29.5252 39.5548C29.5252 39.7681 29.3653 39.9121 29.0452 39.9868Z" fill="black"/>
<path d="M43.9017 52.8668H53.4218L53.5338 53.8108H43.7257L43.9017 52.8668ZM44.9577 61.1868C44.9577 61.3041 44.9098 61.4001 44.8138 61.4748C44.7284 61.5388 44.5898 61.5708 44.3978 61.5708H39.5817C39.3897 61.5708 39.2457 61.5388 39.1497 61.4748C39.0537 61.4001 39.0057 61.3095 39.0057 61.2028C39.0057 61.1175 39.0377 61.0428 39.1017 60.9788C39.1764 60.9148 39.3098 60.8508 39.5018 60.7868L40.2378 60.5788C40.5151 60.4721 40.7284 60.3228 40.8778 60.1308C41.0271 59.9281 41.1871 59.5601 41.3577 59.0268L47.4538 40.9148C47.5604 40.6161 47.5711 40.4028 47.4857 40.2748C47.4111 40.1468 47.1871 40.0508 46.8138 39.9868C46.5471 39.9335 46.3604 39.8748 46.2537 39.8108C46.1471 39.7361 46.0938 39.6401 46.0938 39.5228C46.0938 39.4161 46.1418 39.3308 46.2378 39.2668C46.3338 39.2028 46.4778 39.1708 46.6698 39.1708H51.9178C52.1098 39.1708 52.2484 39.2028 52.3338 39.2668C52.4298 39.3308 52.4778 39.4161 52.4778 39.5228C52.4778 39.6295 52.4298 39.7201 52.3338 39.7948C52.2378 39.8695 52.0564 39.9281 51.7897 39.9708C51.4591 40.0241 51.2618 40.0988 51.1978 40.1948C51.1444 40.2908 51.1551 40.4615 51.2298 40.7068L57.7098 59.6188C57.8164 59.9708 57.9711 60.2321 58.1738 60.4028C58.3871 60.5628 58.6911 60.6748 59.0858 60.7388C59.3311 60.7921 59.4911 60.8561 59.5658 60.9308C59.6511 60.9948 59.6937 61.0801 59.6937 61.1868C59.6937 61.3041 59.6458 61.4001 59.5498 61.4748C59.4538 61.5388 59.3098 61.5708 59.1178 61.5708H53.5338C53.3524 61.5708 53.2084 61.5388 53.1017 61.4748C53.0057 61.4001 52.9577 61.3041 52.9577 61.1868C52.9577 61.0908 53.0004 61.0108 53.0858 60.9468C53.1711 60.8721 53.2991 60.8188 53.4697 60.7868L54.7658 60.6428C55.0324 60.6001 55.1764 60.4988 55.1978 60.3388C55.2298 60.1788 55.1871 59.9281 55.0697 59.5868L48.4938 40.1788L48.8778 40.0348L42.5257 58.9468C42.4191 59.2881 42.3657 59.5708 42.3657 59.7948C42.3764 60.0081 42.4511 60.1788 42.5898 60.3068C42.7391 60.4348 42.9578 60.5361 43.2458 60.6108L44.4458 60.7868C44.6378 60.8295 44.7711 60.8828 44.8457 60.9468C44.9204 61.0001 44.9577 61.0801 44.9577 61.1868Z" fill="black"/>
<path d="M70.0143 62.0668C69.0009 62.0668 68.1316 61.9335 67.4062 61.6668C66.6916 61.4001 66.1156 61.1388 65.6783 60.8828C65.2516 60.6268 64.9636 60.4988 64.8142 60.4988C64.6649 60.4988 64.5529 60.5788 64.4782 60.7388C64.4142 60.8881 64.3556 61.0695 64.3023 61.2828C64.2489 61.4855 64.1849 61.6615 64.1103 61.8108C64.0356 61.9708 63.9183 62.0508 63.7583 62.0508C63.6409 62.0508 63.5449 62.0081 63.4702 61.9228C63.3956 61.8481 63.3369 61.7308 63.2943 61.5708L62.0143 56.5628C61.9823 56.4135 61.9929 56.2855 62.0462 56.1788C62.0996 56.0721 62.1956 55.9921 62.3343 55.9388C62.4729 55.8961 62.5956 55.9068 62.7023 55.9708C62.8089 56.0241 62.8996 56.1308 62.9743 56.2908C63.5076 57.4321 64.1423 58.3601 64.8783 59.0748C65.6249 59.7895 66.4303 60.3121 67.2943 60.6428C68.1583 60.9735 69.0382 61.1388 69.9342 61.1388C71.2249 61.1388 72.2329 60.7761 72.9583 60.0508C73.6836 59.3255 74.0516 58.3868 74.0622 57.2348C74.0622 56.5308 73.9023 55.8695 73.5823 55.2508C73.2729 54.6321 72.6916 54.0348 71.8382 53.4588C70.9849 52.8721 69.7582 52.2961 68.1582 51.7308C66.5902 51.1548 65.3316 50.5255 64.3822 49.8428C63.4329 49.1601 62.7396 48.3975 62.3022 47.5548C61.8756 46.7121 61.6623 45.7681 61.6623 44.7228C61.6623 43.5068 61.9396 42.4561 62.4943 41.5708C63.0596 40.6748 63.8329 39.9815 64.8142 39.4908C65.8062 39.0001 66.9423 38.7548 68.2223 38.7548C69.2783 38.7548 70.1263 38.8775 70.7663 39.1228C71.4169 39.3681 71.9289 39.6188 72.3023 39.8748C72.6756 40.1201 72.9689 40.2428 73.1823 40.2428C73.3849 40.2428 73.5076 40.1201 73.5502 39.8748C73.6036 39.6295 73.6569 39.3841 73.7103 39.1388C73.7743 38.8828 73.9182 38.7548 74.1423 38.7548C74.2702 38.7548 74.3716 38.7975 74.4463 38.8828C74.5209 38.9575 74.5849 39.0908 74.6383 39.2828L76.2383 44.5628C76.2916 44.7228 76.2863 44.8668 76.2223 44.9948C76.1689 45.1228 76.0782 45.2081 75.9502 45.2508C75.8116 45.2935 75.6836 45.2881 75.5663 45.2348C75.4596 45.1815 75.3636 45.0748 75.2783 44.9148C74.6703 43.6241 73.9983 42.5948 73.2623 41.8268C72.5369 41.0588 71.7583 40.5095 70.9263 40.1788C70.1049 39.8375 69.2409 39.6668 68.3343 39.6668C66.9796 39.6668 65.8916 40.0561 65.0703 40.8348C64.2489 41.6135 63.8382 42.6535 63.8382 43.9548C63.8382 44.7015 64.0036 45.4001 64.3343 46.0508C64.6649 46.7015 65.2462 47.3255 66.0782 47.9228C66.9102 48.5095 68.0783 49.0908 69.5823 49.6668C71.2463 50.2855 72.5582 50.9361 73.5182 51.6188C74.4782 52.2908 75.1609 53.0268 75.5663 53.8268C75.9716 54.6268 76.1743 55.5175 76.1743 56.4988C76.1636 57.5121 75.9182 58.4401 75.4382 59.2828C74.9689 60.1255 74.2809 60.8028 73.3743 61.3148C72.4676 61.8161 71.3476 62.0668 70.0143 62.0668Z" fill="black"/>
<path d="M88.1705 62.0668C87.1572 62.0668 86.2878 61.9335 85.5625 61.6668C84.8478 61.4001 84.2718 61.1388 83.8345 60.8828C83.4078 60.6268 83.1198 60.4988 82.9705 60.4988C82.8212 60.4988 82.7092 60.5788 82.6345 60.7388C82.5705 60.8881 82.5118 61.0695 82.4585 61.2828C82.4052 61.4855 82.3412 61.6615 82.2665 61.8108C82.1918 61.9708 82.0745 62.0508 81.9145 62.0508C81.7972 62.0508 81.7012 62.0081 81.6265 61.9228C81.5518 61.8481 81.4932 61.7308 81.4505 61.5708L80.1705 56.5628C80.1385 56.4135 80.1492 56.2855 80.2025 56.1788C80.2558 56.0721 80.3518 55.9921 80.4905 55.9388C80.6292 55.8961 80.7518 55.9068 80.8585 55.9708C80.9652 56.0241 81.0558 56.1308 81.1305 56.2908C81.6638 57.4321 82.2985 58.3601 83.0345 59.0748C83.7812 59.7895 84.5865 60.3121 85.4505 60.6428C86.3145 60.9735 87.1945 61.1388 88.0905 61.1388C89.3812 61.1388 90.3892 60.7761 91.1145 60.0508C91.8398 59.3255 92.2078 58.3868 92.2185 57.2348C92.2185 56.5308 92.0585 55.8695 91.7385 55.2508C91.4292 54.6321 90.8478 54.0348 89.9945 53.4588C89.1412 52.8721 87.9145 52.2961 86.3145 51.7308C84.7465 51.1548 83.4878 50.5255 82.5385 49.8428C81.5892 49.1601 80.8958 48.3975 80.4585 47.5548C80.0318 46.7121 79.8185 45.7681 79.8185 44.7228C79.8185 43.5068 80.0958 42.4561 80.6505 41.5708C81.2158 40.6748 81.9892 39.9815 82.9705 39.4908C83.9625 39.0001 85.0985 38.7548 86.3785 38.7548C87.4345 38.7548 88.2825 38.8775 88.9225 39.1228C89.5732 39.3681 90.0852 39.6188 90.4585 39.8748C90.8318 40.1201 91.1252 40.2428 91.3385 40.2428C91.5412 40.2428 91.6638 40.1201 91.7065 39.8748C91.7598 39.6295 91.8132 39.3841 91.8665 39.1388C91.9305 38.8828 92.0745 38.7548 92.2985 38.7548C92.4265 38.7548 92.5278 38.7975 92.6025 38.8828C92.6772 38.9575 92.7412 39.0908 92.7945 39.2828L94.3945 44.5628C94.4478 44.7228 94.4425 44.8668 94.3785 44.9948C94.3252 45.1228 94.2345 45.2081 94.1065 45.2508C93.9678 45.2935 93.8398 45.2881 93.7225 45.2348C93.6158 45.1815 93.5198 45.0748 93.4345 44.9148C92.8265 43.6241 92.1545 42.5948 91.4185 41.8268C90.6932 41.0588 89.9145 40.5095 89.0825 40.1788C88.2612 39.8375 87.3972 39.6668 86.4905 39.6668C85.1358 39.6668 84.0478 40.0561 83.2265 40.8348C82.4052 41.6135 81.9945 42.6535 81.9945 43.9548C81.9945 44.7015 82.1598 45.4001 82.4905 46.0508C82.8212 46.7015 83.4025 47.3255 84.2345 47.9228C85.0665 48.5095 86.2345 49.0908 87.7385 49.6668C89.4025 50.2855 90.7145 50.9361 91.6745 51.6188C92.6345 52.2908 93.3172 53.0268 93.7225 53.8268C94.1278 54.6268 94.3305 55.5175 94.3305 56.4988C94.3198 57.5121 94.0745 58.4401 93.5945 59.2828C93.1252 60.1255 92.4372 60.8028 91.5305 61.3148C90.6238 61.8161 89.5038 62.0668 88.1705 62.0668Z" fill="black"/>
<path d="M102.967 59.8108C102.967 60.0135 103.031 60.1788 103.159 60.3068C103.287 60.4348 103.473 60.5201 103.719 60.5628L104.983 60.7548C105.303 60.8295 105.463 60.9735 105.463 61.1868C105.463 61.3041 105.42 61.4001 105.335 61.4748C105.26 61.5388 105.121 61.5708 104.919 61.5708H98.5348C98.3534 61.5708 98.2201 61.5388 98.1348 61.4748C98.0494 61.4001 98.0068 61.3041 98.0068 61.1868C98.0068 60.9735 98.1667 60.8295 98.4867 60.7548L99.7507 60.5628C99.9854 60.5201 100.167 60.4348 100.295 60.3068C100.433 60.1788 100.503 60.0135 100.503 59.8108V40.9308C100.503 40.7281 100.433 40.5628 100.295 40.4348C100.167 40.3068 99.9854 40.2215 99.7507 40.1788L98.4867 39.9868C98.1667 39.9121 98.0068 39.7681 98.0068 39.5548C98.0068 39.4268 98.0494 39.3308 98.1348 39.2668C98.2201 39.2028 98.3534 39.1708 98.5348 39.1708H104.919C105.121 39.1708 105.26 39.2028 105.335 39.2668C105.42 39.3308 105.463 39.4268 105.463 39.5548C105.463 39.7681 105.303 39.9121 104.983 39.9868L103.719 40.1788C103.473 40.2215 103.287 40.3068 103.159 40.4348C103.031 40.5628 102.967 40.7281 102.967 40.9308V59.8108Z" fill="black"/>
<path d="M127.916 56.1788C127.905 56.8615 127.708 57.5548 127.324 58.2588C126.94 58.9521 126.385 59.5921 125.66 60.1788C124.945 60.7655 124.076 61.2348 123.052 61.5868C122.028 61.9495 120.865 62.1308 119.564 62.1308C117.345 62.1308 115.436 61.6348 113.836 60.6428C112.236 59.6401 111.004 58.2695 110.14 56.5308C109.276 54.7921 108.844 52.7921 108.844 50.5308C108.844 48.8135 109.094 47.2348 109.596 45.7948C110.108 44.3548 110.828 43.1068 111.756 42.0508C112.694 40.9841 113.793 40.1575 115.052 39.5708C116.31 38.9841 117.692 38.6908 119.196 38.6908C120.337 38.6908 121.265 38.8188 121.98 39.0748C122.705 39.3201 123.265 39.5708 123.66 39.8268C124.054 40.0721 124.337 40.1948 124.508 40.1948C124.732 40.1948 124.886 40.0881 124.972 39.8748C125.057 39.6615 125.142 39.4535 125.228 39.2508C125.313 39.0375 125.462 38.9308 125.676 38.9308C125.782 38.9308 125.873 38.9628 125.948 39.0268C126.022 39.0908 126.086 39.2081 126.14 39.3788L127.868 44.7548C127.921 44.9148 127.91 45.0588 127.836 45.1868C127.772 45.3041 127.66 45.3681 127.5 45.3788C127.361 45.4001 127.238 45.3788 127.132 45.3148C127.025 45.2401 126.94 45.1335 126.876 44.9948C126.268 43.7255 125.596 42.6961 124.86 41.9068C124.124 41.1175 123.297 40.5361 122.38 40.1628C121.473 39.7895 120.454 39.6028 119.324 39.6028C118.193 39.6028 117.142 39.8481 116.172 40.3388C115.201 40.8188 114.353 41.5068 113.628 42.4028C112.902 43.2988 112.337 44.3708 111.932 45.6188C111.537 46.8668 111.34 48.2641 111.34 49.8108C111.34 52.0721 111.729 54.0135 112.508 55.6348C113.297 57.2561 114.364 58.4988 115.708 59.3628C117.052 60.2161 118.572 60.6428 120.268 60.6428C121.996 60.6428 123.441 60.2481 124.604 59.4588C125.777 58.6588 126.636 57.5815 127.18 56.2268C127.244 56.0775 127.313 55.9761 127.388 55.9228C127.473 55.8588 127.564 55.8321 127.66 55.8428C127.745 55.8535 127.809 55.8855 127.852 55.9388C127.894 55.9921 127.916 56.0721 127.916 56.1788Z" fill="black"/>
<path d="M139.233 62.0668C138.22 62.0668 137.35 61.9335 136.625 61.6668C135.91 61.4001 135.334 61.1388 134.897 60.8828C134.47 60.6268 134.182 60.4988 134.033 60.4988C133.884 60.4988 133.772 60.5788 133.697 60.7388C133.633 60.8881 133.574 61.0695 133.521 61.2828C133.468 61.4855 133.404 61.6615 133.329 61.8108C133.254 61.9708 133.137 62.0508 132.977 62.0508C132.86 62.0508 132.764 62.0081 132.689 61.9228C132.614 61.8481 132.556 61.7308 132.513 61.5708L131.233 56.5628C131.201 56.4135 131.212 56.2855 131.265 56.1788C131.318 56.0721 131.414 55.9921 131.553 55.9388C131.692 55.8961 131.814 55.9068 131.921 55.9708C132.028 56.0241 132.118 56.1308 132.193 56.2908C132.726 57.4321 133.361 58.3601 134.097 59.0748C134.844 59.7895 135.649 60.3121 136.513 60.6428C137.377 60.9735 138.257 61.1388 139.153 61.1388C140.444 61.1388 141.452 60.7761 142.177 60.0508C142.902 59.3255 143.27 58.3868 143.281 57.2348C143.281 56.5308 143.121 55.8695 142.801 55.2508C142.492 54.6321 141.91 54.0348 141.057 53.4588C140.204 52.8721 138.977 52.2961 137.377 51.7308C135.809 51.1548 134.55 50.5255 133.601 49.8428C132.652 49.1601 131.958 48.3975 131.521 47.5548C131.094 46.7121 130.881 45.7681 130.881 44.7228C130.881 43.5068 131.158 42.4561 131.713 41.5708C132.278 40.6748 133.052 39.9815 134.033 39.4908C135.025 39.0001 136.161 38.7548 137.441 38.7548C138.497 38.7548 139.345 38.8775 139.985 39.1228C140.636 39.3681 141.148 39.6188 141.521 39.8748C141.894 40.1201 142.188 40.2428 142.401 40.2428C142.604 40.2428 142.726 40.1201 142.769 39.8748C142.822 39.6295 142.876 39.3841 142.929 39.1388C142.993 38.8828 143.137 38.7548 143.361 38.7548C143.489 38.7548 143.59 38.7975 143.665 38.8828C143.74 38.9575 143.804 39.0908 143.857 39.2828L145.457 44.5628C145.51 44.7228 145.505 44.8668 145.441 44.9948C145.388 45.1228 145.297 45.2081 145.169 45.2508C145.03 45.2935 144.902 45.2881 144.785 45.2348C144.678 45.1815 144.582 45.0748 144.497 44.9148C143.889 43.6241 143.217 42.5948 142.481 41.8268C141.756 41.0588 140.977 40.5095 140.145 40.1788C139.324 39.8375 138.46 39.6668 137.553 39.6668C136.198 39.6668 135.11 40.0561 134.289 40.8348C133.468 41.6135 133.057 42.6535 133.057 43.9548C133.057 44.7015 133.222 45.4001 133.553 46.0508C133.884 46.7015 134.465 47.3255 135.297 47.9228C136.129 48.5095 137.297 49.0908 138.801 49.6668C140.465 50.2855 141.777 50.9361 142.737 51.6188C143.697 52.2908 144.38 53.0268 144.785 53.8268C145.19 54.6268 145.393 55.5175 145.393 56.4988C145.382 57.5121 145.137 58.4401 144.657 59.2828C144.188 60.1255 143.5 60.8028 142.593 61.3148C141.686 61.8161 140.566 62.0668 139.233 62.0668Z" fill="black"/>
</svg>
