<svg width="122" height="34" viewBox="0 0 122 34" fill="none" xmlns="http://www.w3.org/2000/svg">
<path d="M53 4.5L55.9998 3.00037L57.5 -1.96701e-07L59.0002 3.00037L62 4.5L59.0002 5.99962L57.5 9L55.9998 5.99963L53 4.5Z" fill="#D4564C"/>
<path d="M7.47148 3.45185C7.47148 4.00242 7.33168 4.48203 7.0521 4.89066C6.77251 5.29499 6.37893 5.60899 5.87137 5.83266C5.36811 6.05203 4.78097 6.16171 4.10996 6.16171C3.65401 6.16171 3.23248 6.11655 2.84536 6.02622C2.45823 5.93159 2.12488 5.79825 1.84529 5.62619L1.92916 5.14874C2.08401 5.25197 2.25822 5.34015 2.45178 5.41327C2.64964 5.4821 2.85826 5.53586 3.07763 5.57457C3.297 5.60899 3.52067 5.62619 3.74864 5.62619C4.18738 5.62619 4.57236 5.54016 4.90356 5.36811C5.23907 5.19175 5.4993 4.93797 5.68426 4.60677C5.87352 4.27556 5.96815 3.87768 5.96815 3.41314C5.96815 2.87547 5.85416 2.40662 5.62619 2.00659C5.39822 1.60226 5.07562 1.28826 4.65838 1.06459C4.24545 0.840918 3.75079 0.729082 3.17441 0.729082H2.49049V8.32315C2.49049 8.41778 2.5163 8.4952 2.56792 8.55542C2.62384 8.61564 2.70556 8.65436 2.8131 8.67156L3.46475 8.74899C3.55938 8.76189 3.62605 8.78985 3.66477 8.83286C3.70778 8.87588 3.72929 8.9361 3.72929 9.01352C3.72929 9.08234 3.70348 9.13826 3.65186 9.18127C3.60455 9.22429 3.52497 9.24579 3.41314 9.24579H0.316151C0.208616 9.24579 0.129041 9.22429 0.0774246 9.18127C0.0258082 9.13826 0 9.08234 0 9.01352C0 8.88448 0.081726 8.7963 0.245178 8.74899L0.671014 8.67156C0.774247 8.64575 0.851671 8.60489 0.903288 8.54897C0.959205 8.49305 0.987164 8.41778 0.987164 8.32315V1.13556C0.987164 1.04093 0.959205 0.965658 0.903288 0.90974C0.851671 0.853822 0.774247 0.812959 0.671014 0.787151L0.245178 0.709726C0.081726 0.666712 0 0.578534 0 0.445192C0 0.372069 0.0258082 0.316151 0.0774246 0.277438C0.129041 0.234425 0.208616 0.212918 0.316151 0.212918H3.21312C4.10781 0.212918 4.8713 0.352712 5.5036 0.632302C6.1359 0.91189 6.62196 1.29471 6.96177 1.78077C7.30157 2.26682 7.47148 2.82385 7.47148 3.45185Z" fill="black"/>
<path d="M16.35 5.44553L16.1242 1.32912C16.1156 1.16997 16.0726 1.04738 15.9951 0.961356C15.9177 0.875329 15.793 0.81511 15.6209 0.780699L15.2661 0.716178C15.1456 0.686068 15.0639 0.649507 15.0209 0.606493C14.9779 0.563479 14.9564 0.509712 14.9564 0.445192C14.9564 0.37637 14.9843 0.320452 15.0402 0.277438C15.0962 0.234425 15.1714 0.212918 15.2661 0.212918H17.563C17.6662 0.212918 17.7437 0.234425 17.7953 0.277438C17.8512 0.320452 17.8791 0.37637 17.8791 0.445192C17.8791 0.514014 17.8555 0.569932 17.8082 0.612945C17.7652 0.655959 17.6856 0.69037 17.5694 0.716178L17.2339 0.767795C17.0361 0.810809 16.9006 0.881781 16.8275 0.980713C16.7586 1.07964 16.7285 1.20653 16.7371 1.36138L16.9694 5.45844C16.9823 5.67351 16.9931 5.88427 17.0017 6.09074C17.0146 6.29721 17.0253 6.51227 17.0339 6.73594C17.0511 7.26501 16.9371 7.73601 16.692 8.14894C16.4468 8.55757 16.0747 8.88018 15.5758 9.11675C15.0811 9.34903 14.4596 9.46516 13.7111 9.46516C12.9197 9.46516 12.2551 9.35333 11.7174 9.12966C11.1841 8.90599 10.784 8.59199 10.5174 8.18766C10.2507 7.77903 10.1238 7.30157 10.1367 6.7553C10.141 6.63916 10.1474 6.49292 10.156 6.31656C10.1646 6.14021 10.1754 5.94879 10.1883 5.74233C10.2012 5.53156 10.212 5.31649 10.2206 5.09712L10.4335 1.18718C10.4421 1.06244 10.412 0.969959 10.3431 0.90974C10.2743 0.845219 10.1646 0.800055 10.0141 0.774247L9.65278 0.716178C9.44631 0.673165 9.34308 0.584987 9.34308 0.451644C9.34308 0.37852 9.37104 0.320452 9.42696 0.277438C9.48287 0.234425 9.5603 0.212918 9.65923 0.212918H12.7111C12.8143 0.212918 12.8917 0.234425 12.9433 0.277438C12.9992 0.320452 13.0272 0.37852 13.0272 0.451644C13.0272 0.516165 13.0035 0.569932 12.9562 0.612945C12.9132 0.655959 12.8336 0.688219 12.7175 0.709726L12.3497 0.774247C12.2164 0.800055 12.1175 0.843069 12.0529 0.903288C11.9927 0.959205 11.9583 1.04953 11.9497 1.17427L11.7368 5.07777C11.7196 5.39177 11.7067 5.67566 11.6981 5.92944C11.6895 6.18322 11.6809 6.41549 11.6723 6.62626C11.6551 7.3747 11.8551 7.93388 12.2723 8.30379C12.6895 8.67371 13.2702 8.85867 14.0144 8.85867C14.5219 8.85867 14.9564 8.77479 15.3177 8.60704C15.679 8.43499 15.9543 8.19196 16.1435 7.87796C16.3371 7.55966 16.4253 7.17899 16.4081 6.73594C16.3995 6.44345 16.3909 6.19827 16.3823 6.00041C16.3737 5.80255 16.3629 5.61759 16.35 5.44553Z" fill="black"/>
<path d="M27.6687 7.065C27.6687 7.7059 27.3934 8.23067 26.8429 8.6393C26.2923 9.04363 25.4772 9.24579 24.3975 9.24579H20.3005C20.1929 9.24579 20.1134 9.22429 20.0618 9.18127C20.0101 9.13826 19.9843 9.08234 19.9843 9.01352C19.9843 8.88018 20.0661 8.792 20.2295 8.74899L20.6553 8.67156C20.7586 8.64575 20.8382 8.60489 20.8941 8.54897C20.95 8.49305 20.9779 8.41778 20.9779 8.32315V1.13556C20.9779 1.04093 20.95 0.965658 20.8941 0.90974C20.8382 0.853822 20.7586 0.812959 20.6553 0.787151L20.2295 0.709726C20.0661 0.666712 19.9843 0.578534 19.9843 0.445192C19.9843 0.372069 20.0101 0.316151 20.0618 0.277438C20.1134 0.234425 20.1929 0.212918 20.3005 0.212918H23.4942C24.2728 0.212918 24.9352 0.322603 25.4815 0.541972C26.0278 0.757041 26.4428 1.05814 26.7267 1.44526C27.0106 1.82808 27.1526 2.27542 27.1526 2.78729C27.1526 3.21742 27.0343 3.60455 26.7977 3.94866C26.5654 4.29277 26.2149 4.5659 25.746 4.76807C25.2772 4.97023 24.6922 5.07131 23.9911 5.07131L24.3846 4.89066C25.0599 4.89066 25.6428 4.98529 26.1331 5.17455C26.6235 5.35951 27.002 5.61544 27.2687 5.94234C27.5354 6.26925 27.6687 6.64346 27.6687 7.065ZM23.8104 5.24552H22.0425V4.80678H23.7136C24.1352 4.80678 24.4922 4.72936 24.7847 4.57451C25.0772 4.41966 25.3008 4.19599 25.4557 3.90349C25.6105 3.611 25.6879 3.26044 25.6879 2.85181C25.6879 2.42167 25.5955 2.0453 25.4105 1.7227C25.2299 1.4001 24.9589 1.14847 24.5975 0.967808C24.2405 0.787151 23.8018 0.696822 23.2813 0.696822H22.4813V8.19411C22.4813 8.38337 22.5436 8.52532 22.6684 8.61995C22.7931 8.71458 22.9824 8.76189 23.2362 8.76189H24.0943C24.5459 8.76189 24.9223 8.68877 25.2234 8.54252C25.5245 8.39627 25.7503 8.19411 25.9009 7.93603C26.0557 7.67364 26.1331 7.37255 26.1331 7.03274C26.1331 6.49937 25.9374 6.06923 25.546 5.74233C25.1546 5.41112 24.576 5.24552 23.8104 5.24552Z" fill="black"/>
<path d="M32.8721 0.709726L32.4463 0.787151C32.343 0.812959 32.2635 0.853822 32.2075 0.90974C32.1516 0.965658 32.1237 1.04093 32.1237 1.13556V8.27153C32.1237 8.43068 32.1731 8.54682 32.2721 8.61995C32.3753 8.68877 32.5323 8.72318 32.7431 8.72318H34.1045C34.3539 8.72318 34.5647 8.69092 34.7368 8.6264C34.9088 8.56188 35.0594 8.44789 35.1884 8.28444C35.3217 8.12099 35.4529 7.89086 35.582 7.59407L35.9433 6.72304C35.9863 6.63701 36.0358 6.57679 36.0917 6.54238C36.1476 6.50797 36.2164 6.49937 36.2981 6.51657C36.3842 6.53378 36.4444 6.57249 36.4788 6.63271C36.5132 6.68863 36.5175 6.7682 36.4917 6.87144L35.9433 9.12321C35.9089 9.24794 35.8616 9.34042 35.8013 9.40064C35.7411 9.46086 35.6594 9.49097 35.5562 9.49097C35.4701 9.49097 35.3884 9.46947 35.311 9.42645C35.2379 9.38774 35.1561 9.34688 35.0658 9.30386C34.9755 9.26515 34.8615 9.24579 34.7238 9.24579H29.9493C29.8375 9.24579 29.7558 9.22429 29.7041 9.18127C29.6568 9.13826 29.6332 9.08234 29.6332 9.01352C29.6332 8.88018 29.7149 8.792 29.8784 8.74899L30.3042 8.67156C30.4074 8.64575 30.4848 8.60489 30.5365 8.54897C30.5924 8.49305 30.6203 8.41778 30.6203 8.32315V1.13556C30.6203 1.04093 30.5924 0.965658 30.5365 0.90974C30.4848 0.853822 30.4074 0.812959 30.3042 0.787151L29.8784 0.709726C29.7149 0.666712 29.6332 0.578534 29.6332 0.445192C29.6332 0.372069 29.6568 0.316151 29.7041 0.277438C29.7558 0.234425 29.8375 0.212918 29.9493 0.212918H32.8011C32.913 0.212918 32.9925 0.234425 33.0399 0.277438C33.0915 0.316151 33.1173 0.372069 33.1173 0.445192C33.1173 0.578534 33.0356 0.666712 32.8721 0.709726Z" fill="black"/>
<path d="M40.966 8.32315C40.966 8.41778 40.994 8.49305 41.0499 8.54897C41.1058 8.60489 41.1854 8.64575 41.2886 8.67156L41.7144 8.74899C41.8779 8.792 41.9596 8.88018 41.9596 9.01352C41.9596 9.08234 41.9338 9.13826 41.8822 9.18127C41.8349 9.22429 41.7553 9.24579 41.6435 9.24579H38.7917C38.6798 9.24579 38.5981 9.22429 38.5465 9.18127C38.4992 9.13826 38.4755 9.08234 38.4755 9.01352C38.4755 8.88018 38.5572 8.792 38.7207 8.74899L39.1465 8.67156C39.2498 8.64575 39.3272 8.60489 39.3788 8.54897C39.4347 8.49305 39.4627 8.41778 39.4627 8.32315V1.13556C39.4627 1.04093 39.4347 0.965658 39.3788 0.90974C39.3272 0.853822 39.2498 0.812959 39.1465 0.787151L38.7207 0.709726C38.5572 0.666712 38.4755 0.578534 38.4755 0.445192C38.4755 0.372069 38.4992 0.316151 38.5465 0.277438C38.5981 0.234425 38.6798 0.212918 38.7917 0.212918H41.6435C41.7553 0.212918 41.8349 0.234425 41.8822 0.277438C41.9338 0.316151 41.9596 0.372069 41.9596 0.445192C41.9596 0.578534 41.8779 0.666712 41.7144 0.709726L41.2886 0.787151C41.1854 0.812959 41.1058 0.853822 41.0499 0.90974C40.994 0.965658 40.966 1.04093 40.966 1.13556V8.32315Z" fill="black"/>
<path d="M52.113 6.97467C52.113 7.25856 52.0335 7.5489 51.8743 7.8457C51.7152 8.13819 51.4829 8.40918 51.1775 8.65866C50.8764 8.90383 50.5086 9.1017 50.0742 9.25224C49.6441 9.40279 49.1537 9.47807 48.6031 9.47807C47.6869 9.47807 46.8976 9.27805 46.2352 8.87803C45.5728 8.4737 45.0609 7.92097 44.6996 7.21985C44.3426 6.51442 44.1641 5.70362 44.1641 4.78742C44.1641 4.0949 44.2695 3.4583 44.4803 2.87762C44.691 2.29693 44.9878 1.79152 45.3706 1.36138C45.7578 0.926945 46.2116 0.591439 46.732 0.354863C47.2525 0.118288 47.8203 0 48.4354 0C48.8827 0 49.2462 0.0473152 49.5258 0.141946C49.8054 0.232274 50.0226 0.324753 50.1774 0.419384C50.3366 0.509712 50.457 0.554876 50.5387 0.554876C50.642 0.554876 50.7151 0.516164 50.7581 0.43874C50.8054 0.361316 50.8506 0.283891 50.8936 0.206466C50.9409 0.129041 51.0162 0.0903291 51.1194 0.0903291C51.1796 0.0903291 51.2313 0.109685 51.2743 0.148397C51.3173 0.18711 51.3517 0.253781 51.3775 0.348411L52.0679 2.53566C52.098 2.62168 52.0915 2.69696 52.0485 2.76148C52.0098 2.826 51.9474 2.86686 51.8614 2.88407C51.7797 2.89697 51.7066 2.88622 51.642 2.85181C51.5775 2.8174 51.5259 2.75933 51.4872 2.6776C51.2463 2.16574 50.9818 1.75496 50.6936 1.44526C50.4054 1.13126 50.0871 0.905438 49.7387 0.767795C49.3903 0.625849 49.0053 0.554876 48.5838 0.554876C48.1665 0.554876 47.7794 0.647356 47.4224 0.832315C47.0697 1.01297 46.7621 1.27536 46.4998 1.61947C46.2417 1.96358 46.0395 2.37436 45.8933 2.85181C45.7513 3.32496 45.6803 3.85618 45.6803 4.44547C45.6803 5.32725 45.8266 6.08214 46.1191 6.71014C46.4116 7.33384 46.8095 7.80914 47.3127 8.13604C47.816 8.45864 48.3881 8.61995 49.029 8.61995C49.6613 8.61995 50.2011 8.47585 50.6484 8.18766C51.0958 7.89516 51.4356 7.49084 51.6678 6.97467C51.7066 6.89294 51.7496 6.83703 51.7969 6.80692C51.8442 6.77681 51.898 6.76605 51.9582 6.77466C52.0098 6.77896 52.0485 6.79831 52.0743 6.83273C52.1001 6.86714 52.113 6.91445 52.113 6.97467Z" fill="black"/>
<path d="M62.5346 9.01352C62.5346 8.88018 62.6163 8.792 62.7798 8.74899L63.2056 8.67156C63.3088 8.64575 63.3863 8.60489 63.4379 8.54897C63.4938 8.49305 63.5218 8.41778 63.5218 8.32315V1.13556C63.5218 1.04093 63.4938 0.965658 63.4379 0.90974C63.3863 0.853822 63.3088 0.812959 63.2056 0.787151L62.7798 0.709726C62.6163 0.662411 62.5346 0.574233 62.5346 0.445192C62.5346 0.372069 62.5604 0.316151 62.612 0.277438C62.6636 0.234425 62.7432 0.212918 62.8507 0.212918H65.9929C66.7972 0.212918 67.5263 0.331206 68.1801 0.567781C68.8383 0.800055 69.4039 1.12911 69.877 1.55495C70.3502 1.98078 70.7136 2.48404 70.9674 3.06473C71.2212 3.64541 71.3481 4.28416 71.3481 4.98099C71.3481 5.79825 71.1588 6.52948 70.7803 7.17468C70.4061 7.81559 69.862 8.321 69.1479 8.69092C68.4382 9.06084 67.578 9.24579 66.5671 9.24579H62.8507C62.7432 9.24579 62.6636 9.22429 62.612 9.18127C62.5604 9.13826 62.5346 9.08234 62.5346 9.01352ZM66.4639 8.72318C67.1478 8.72318 67.7349 8.57908 68.2253 8.29089C68.72 8.0027 69.1006 7.57686 69.3673 7.01338C69.6383 6.4499 69.7738 5.75953 69.7738 4.94227C69.7738 4.30137 69.6813 3.72284 69.4964 3.20667C69.3157 2.69051 69.0512 2.24962 68.7028 1.884C68.3586 1.51408 67.9436 1.23019 67.4575 1.03233C66.9715 0.834466 66.4252 0.735535 65.8187 0.735535H65.0251V8.1812C65.0251 8.37047 65.0832 8.50811 65.1993 8.59414C65.3154 8.68016 65.4896 8.72318 65.7219 8.72318H66.4639Z" fill="black"/>
<path d="M77.9063 0C78.5902 0 79.2118 0.118288 79.771 0.354863C80.3301 0.587137 80.8097 0.918342 81.2098 1.34848C81.6141 1.77432 81.9238 2.27973 82.1389 2.86471C82.3582 3.4497 82.4679 4.0906 82.4679 4.78742C82.4679 5.47134 82.3604 6.09934 82.1453 6.67142C81.9302 7.24351 81.6205 7.74031 81.2162 8.16185C80.8162 8.57908 80.3366 8.90383 79.7774 9.13611C79.2225 9.36408 78.6031 9.47807 77.9192 9.47807C77.2439 9.47807 76.6288 9.36193 76.0739 9.12966C75.519 8.89308 75.0394 8.56188 74.6351 8.13604C74.2351 7.7059 73.9254 7.19834 73.706 6.61336C73.491 6.02837 73.3834 5.38531 73.3834 4.68419C73.3834 4.00027 73.491 3.37442 73.706 2.80664C73.9211 2.23456 74.2286 1.7399 74.6287 1.32267C75.0287 0.901137 75.5061 0.576383 76.061 0.348411C76.6159 0.116137 77.231 0 77.9063 0ZM80.9259 5.62619C80.9259 5.05841 80.8678 4.52074 80.7517 4.01318C80.6398 3.50562 80.4807 3.04322 80.2742 2.62599C80.0721 2.20445 79.8312 1.84099 79.5516 1.53559C79.272 1.22589 78.9644 0.987164 78.6289 0.819411C78.2934 0.651658 77.9386 0.567781 77.5643 0.567781C77.0439 0.567781 76.5858 0.701123 76.1901 0.967808C75.7986 1.23019 75.4932 1.60656 75.2739 2.09692C75.0545 2.58297 74.9448 3.16796 74.9448 3.85188C74.9448 4.42396 75.0007 4.96593 75.1126 5.47779C75.2244 5.98536 75.3814 6.4499 75.5836 6.87144C75.79 7.28867 76.0309 7.65214 76.3062 7.96183C76.5858 8.26723 76.8933 8.50381 77.2289 8.67156C77.5644 8.83931 77.9171 8.92319 78.287 8.92319C78.816 8.92319 79.2763 8.792 79.6677 8.52962C80.0635 8.26293 80.371 7.88441 80.5904 7.39405C80.814 6.8994 80.9259 6.31011 80.9259 5.62619Z" fill="black"/>
<path d="M90.0674 7.13597L89.5448 7.38115L92.2224 0.671013C92.2869 0.50326 92.3644 0.384973 92.4547 0.316151C92.5493 0.247329 92.6762 0.212918 92.8354 0.212918H94.3645C94.4763 0.212918 94.5602 0.234425 94.6161 0.277438C94.672 0.316151 94.7 0.372069 94.7 0.445192C94.7 0.505411 94.6806 0.557028 94.6419 0.600041C94.6032 0.643055 94.5365 0.677466 94.4419 0.703274L94.0741 0.793603C93.9193 0.832315 93.8139 0.890383 93.758 0.967808C93.7021 1.04523 93.6827 1.17858 93.6999 1.36784L94.2225 8.22637C94.2311 8.36832 94.2634 8.4694 94.3193 8.52962C94.3795 8.58553 94.4806 8.6307 94.6226 8.66511L94.9774 8.75544C95.0635 8.77694 95.1258 8.8092 95.1645 8.85222C95.2033 8.89093 95.2226 8.9404 95.2226 9.00062C95.2226 9.06944 95.1946 9.12751 95.1387 9.17482C95.0871 9.22214 95.0054 9.24579 94.8936 9.24579H92.0417C91.9342 9.24579 91.8525 9.22429 91.7966 9.18127C91.7407 9.13826 91.7127 9.08234 91.7127 9.01352C91.7127 8.9533 91.732 8.90168 91.7708 8.85867C91.8095 8.81566 91.8761 8.78125 91.9708 8.75544L92.3321 8.66511C92.4955 8.6264 92.6052 8.57693 92.6612 8.51671C92.7171 8.45219 92.7407 8.35541 92.7321 8.22637L92.1708 1.27105L92.6612 1.24525L89.8222 8.38767C89.7663 8.54252 89.7061 8.6436 89.6416 8.69092C89.5814 8.73823 89.5104 8.76189 89.4287 8.76189C89.3641 8.76189 89.3061 8.75329 89.2545 8.73608C89.2071 8.71458 89.162 8.67801 89.119 8.6264C89.076 8.57048 89.0308 8.48445 88.9835 8.36831L86.1188 1.40655L86.5898 1.16782L85.9962 8.05862C85.979 8.23067 86.0134 8.35971 86.0994 8.44574C86.1854 8.53177 86.3123 8.60489 86.4801 8.66511L86.8607 8.77479C86.9253 8.8006 86.9769 8.83071 87.0156 8.86512C87.0543 8.89953 87.0737 8.94685 87.0737 9.00707C87.0737 9.07589 87.0457 9.13396 86.9898 9.18127C86.9382 9.22429 86.8564 9.24579 86.7446 9.24579H84.6348C84.523 9.24579 84.4391 9.22429 84.3832 9.18127C84.3315 9.13826 84.3057 9.08234 84.3057 9.01352C84.3057 8.9404 84.3294 8.88448 84.3767 8.84577C84.4283 8.80705 84.495 8.77479 84.5767 8.74899L84.8929 8.6522C85.0477 8.60919 85.1639 8.54252 85.2413 8.45219C85.323 8.36186 85.3725 8.22852 85.3897 8.05216L85.9704 1.38719C85.9876 1.21514 85.9639 1.08395 85.8994 0.993617C85.8349 0.898986 85.7252 0.832315 85.5703 0.793603L85.2284 0.72263C85.1295 0.696822 85.0585 0.662411 85.0155 0.619398C84.9768 0.576384 84.9574 0.522616 84.9574 0.458096C84.9574 0.294644 85.0692 0.212918 85.2929 0.212918H86.8027C86.9532 0.212918 87.0737 0.243027 87.164 0.303247C87.2543 0.359165 87.3339 0.473151 87.4027 0.645206L90.0674 7.13597Z" fill="black"/>
<path d="M98.7056 5.652H102.557L102.596 6.20042H98.6411L98.7056 5.652ZM99.325 9.01352C99.325 9.08234 99.2992 9.13826 99.2476 9.18127C99.196 9.22429 99.1143 9.24579 99.0024 9.24579H97.0023C96.8904 9.24579 96.8066 9.22644 96.7506 9.18773C96.699 9.14471 96.6732 9.08664 96.6732 9.01352C96.6732 8.9619 96.6883 8.91889 96.7184 8.88448C96.7528 8.84577 96.8173 8.80705 96.9119 8.76834L97.1571 8.68446C97.2819 8.63285 97.3743 8.56187 97.4346 8.47155C97.4991 8.38122 97.5701 8.21562 97.6475 7.97474L99.9121 1.20008C99.9638 1.04523 99.9745 0.935548 99.9444 0.871027C99.9186 0.802206 99.8304 0.748439 99.6799 0.709726C99.5594 0.675315 99.4756 0.638753 99.4282 0.600041C99.3809 0.557028 99.3573 0.503261 99.3573 0.43874C99.3573 0.365617 99.3831 0.309699 99.4347 0.270987C99.4906 0.232274 99.5745 0.212918 99.6863 0.212918H102.357C102.469 0.212918 102.551 0.232274 102.603 0.270987C102.654 0.309699 102.68 0.365617 102.68 0.43874C102.68 0.503261 102.656 0.557028 102.609 0.600041C102.566 0.643055 102.489 0.677466 102.377 0.703274C102.252 0.729082 102.177 0.769945 102.151 0.825863C102.13 0.877479 102.14 0.963507 102.183 1.08394L104.577 8.1554C104.633 8.33605 104.7 8.4694 104.777 8.55542C104.859 8.64145 104.977 8.70167 105.132 8.73608C105.248 8.77479 105.325 8.81351 105.364 8.85222C105.407 8.89093 105.429 8.9447 105.429 9.01352C105.429 9.08234 105.401 9.13826 105.345 9.18127C105.289 9.22429 105.207 9.24579 105.1 9.24579H102.532C102.424 9.24579 102.342 9.22429 102.286 9.18127C102.235 9.13826 102.209 9.08234 102.209 9.01352C102.209 8.9533 102.228 8.90383 102.267 8.86512C102.306 8.82641 102.37 8.79415 102.461 8.76834L102.912 8.69737C103.024 8.67156 103.08 8.62425 103.08 8.55542C103.084 8.4823 103.061 8.36832 103.009 8.21347L100.538 0.812959L100.732 0.72263L98.3379 7.91022C98.2862 8.06507 98.2604 8.19411 98.2604 8.29734C98.2604 8.39627 98.2905 8.47585 98.3508 8.53607C98.4153 8.59629 98.5142 8.65005 98.6476 8.69737L99.0734 8.77479C99.1594 8.8006 99.2218 8.83071 99.2605 8.86512C99.3035 8.89953 99.325 8.949 99.325 9.01352Z" fill="black"/>
<path d="M109.801 8.32315C109.801 8.41778 109.829 8.49305 109.885 8.54897C109.941 8.60489 110.021 8.64575 110.124 8.67156L110.55 8.74899C110.713 8.792 110.795 8.88018 110.795 9.01352C110.795 9.08234 110.769 9.13826 110.718 9.18127C110.67 9.22429 110.591 9.24579 110.479 9.24579H107.627C107.515 9.24579 107.434 9.22429 107.382 9.18127C107.335 9.13826 107.311 9.08234 107.311 9.01352C107.311 8.88018 107.393 8.792 107.556 8.74899L107.982 8.67156C108.085 8.64575 108.163 8.60489 108.214 8.54897C108.27 8.49305 108.298 8.41778 108.298 8.32315V1.13556C108.298 1.04093 108.27 0.965658 108.214 0.90974C108.163 0.853822 108.085 0.812959 107.982 0.787151L107.556 0.709726C107.393 0.666712 107.311 0.578534 107.311 0.445192C107.311 0.372069 107.335 0.316151 107.382 0.277438C107.434 0.234425 107.515 0.212918 107.627 0.212918H110.479C110.591 0.212918 110.67 0.234425 110.718 0.277438C110.769 0.316151 110.795 0.372069 110.795 0.445192C110.795 0.578534 110.713 0.666712 110.55 0.709726L110.124 0.787151C110.021 0.812959 109.941 0.853822 109.885 0.90974C109.829 0.965658 109.801 1.04093 109.801 1.13556V8.32315Z" fill="black"/>
<path d="M115.903 9.01352C115.903 9.08234 115.875 9.13826 115.819 9.18127C115.767 9.22429 115.686 9.24579 115.574 9.24579H113.374C113.262 9.24579 113.178 9.22429 113.122 9.18127C113.071 9.13826 113.045 9.08234 113.045 9.01352C113.045 8.89738 113.126 8.8092 113.29 8.74899L113.671 8.6522C113.868 8.58768 114 8.51671 114.064 8.43929C114.133 8.36186 114.167 8.23282 114.167 8.05216V2.07111C114.167 1.94637 114.15 1.84099 114.116 1.75496C114.081 1.66463 113.997 1.53989 113.864 1.38074L113.296 0.696822C113.236 0.623699 113.195 0.567781 113.174 0.529069C113.157 0.486055 113.148 0.445192 113.148 0.406479C113.148 0.341959 113.169 0.294644 113.212 0.264534C113.26 0.230123 113.322 0.212918 113.4 0.212918H114.509C114.621 0.212918 114.714 0.232274 114.787 0.270987C114.86 0.309699 114.937 0.382822 115.019 0.490356L120.452 7.49729L120.187 8.06507V1.40655C120.187 1.23019 120.155 1.1033 120.09 1.02588C120.03 0.944151 119.897 0.871027 119.69 0.806507L119.303 0.709726C119.14 0.645206 119.058 0.557028 119.058 0.445192C119.058 0.372069 119.086 0.316151 119.142 0.277438C119.198 0.234425 119.28 0.212918 119.387 0.212918H121.587C121.699 0.212918 121.783 0.234425 121.839 0.277438C121.895 0.316151 121.923 0.372069 121.923 0.445192C121.923 0.561329 121.839 0.649507 121.671 0.709726L121.29 0.806507C121.093 0.866726 120.959 0.937699 120.89 1.01942C120.826 1.09685 120.794 1.22589 120.794 1.40655V7.65214C120.794 7.77258 120.804 7.87581 120.826 7.96183C120.852 8.04356 120.893 8.12099 120.948 8.19411L121.348 8.70382C121.413 8.78985 121.454 8.85652 121.471 8.90384C121.488 8.94685 121.497 8.98986 121.497 9.03288C121.497 9.0974 121.473 9.14901 121.426 9.18773C121.383 9.22644 121.314 9.24579 121.219 9.24579H119.91C119.742 9.24579 119.658 9.17697 119.658 9.03933C119.658 8.97481 119.645 8.91459 119.619 8.85867C119.598 8.80275 119.529 8.69952 119.413 8.54897L114.303 1.93562L114.774 1.5743V8.05862C114.774 8.22637 114.806 8.35111 114.871 8.43283C114.935 8.51026 115.068 8.58338 115.271 8.6522L115.658 8.74899C115.821 8.8092 115.903 8.89738 115.903 9.01352Z" fill="black"/>
<path d="M14.7446 29.1642C14.7366 29.6683 14.5885 30.1804 14.3005 30.7005C14.0124 31.2206 13.5963 31.7007 13.0522 32.1408C12.5161 32.5809 11.86 32.9369 11.0838 33.209C10.3157 33.481 9.43552 33.6171 8.44333 33.6171C6.779 33.6171 5.34271 33.245 4.13447 32.5009C2.92623 31.7487 1.99405 30.7205 1.33792 29.4162C0.689787 28.112 0.365723 26.6117 0.365723 24.9153C0.365723 23.6271 0.557761 22.4429 0.941837 21.3626C1.32591 20.2824 1.86602 19.3422 2.56216 18.5421C3.2663 17.7419 4.09046 17.1258 5.03465 16.6937C5.98684 16.2536 7.02304 16.0336 8.14327 16.0336C9.00744 16.0336 9.70758 16.1256 10.2437 16.3096C10.7878 16.4937 11.2079 16.6817 11.5039 16.8737C11.808 17.0578 12.024 17.1498 12.1521 17.1498C12.3281 17.1498 12.4441 17.0738 12.5001 16.9218C12.5641 16.7617 12.6282 16.6057 12.6922 16.4537C12.7562 16.3016 12.8682 16.2256 13.0282 16.2256C13.1163 16.2256 13.1883 16.2536 13.2443 16.3096C13.3083 16.3576 13.3603 16.4457 13.4003 16.5737L14.6966 20.5945C14.7446 20.7225 14.7406 20.8345 14.6846 20.9306C14.6286 21.0186 14.5365 21.0706 14.4085 21.0866C14.3045 21.0946 14.2085 21.0746 14.1205 21.0266C14.0404 20.9786 13.9724 20.8985 13.9164 20.7865C13.4603 19.8343 12.9562 19.0622 12.4041 18.4701C11.852 17.8779 11.2319 17.4459 10.5437 17.1738C9.86361 16.8938 9.09546 16.7537 8.23929 16.7537C7.39112 16.7537 6.60296 16.9338 5.87482 17.2938C5.14667 17.6539 4.51055 18.17 3.96644 18.8421C3.43033 19.5143 3.01025 20.3184 2.70619 21.2546C2.41013 22.1908 2.2621 23.235 2.2621 24.3872C2.2621 26.0756 2.55416 27.5279 3.13827 28.7441C3.73039 29.9523 4.53055 30.8765 5.53875 31.5167C6.54695 32.1568 7.68317 32.4768 8.94742 32.4768C10.2517 32.4768 11.3399 32.1848 12.2121 31.6007C13.0922 31.0166 13.7364 30.2164 14.1445 29.2002C14.2005 29.0882 14.2605 29.0122 14.3245 28.9722C14.3885 28.9241 14.4565 28.9041 14.5285 28.9121C14.6005 28.9121 14.6526 28.9361 14.6846 28.9842C14.7246 29.0242 14.7446 29.0842 14.7446 29.1642Z" fill="black"/>
<path d="M23.9521 17.0298L23.0399 17.1738C22.8559 17.2058 22.7118 17.2738 22.6078 17.3778C22.5038 17.4739 22.4518 17.6019 22.4518 17.7619V31.6847C22.4518 31.9647 22.5478 32.1688 22.7398 32.2968C22.9319 32.4248 23.2359 32.4888 23.652 32.4888H26.7486C27.2207 32.4888 27.6168 32.4288 27.9369 32.3088C28.2569 32.1888 28.533 31.9807 28.765 31.6847C29.0051 31.3886 29.2331 30.9725 29.4492 30.4364L30.0853 28.8281C30.1413 28.7081 30.2053 28.6241 30.2773 28.5761C30.3494 28.5281 30.4414 28.5121 30.5534 28.5281C30.6654 28.5441 30.7454 28.5921 30.7934 28.6721C30.8415 28.7521 30.8455 28.8641 30.8055 29.0082L29.8453 33.185C29.7973 33.345 29.7332 33.465 29.6532 33.5451C29.5812 33.6251 29.4812 33.6651 29.3532 33.6651C29.2091 33.6651 29.0771 33.6251 28.9571 33.5451C28.8451 33.465 28.717 33.385 28.573 33.305C28.437 33.233 28.2569 33.197 28.0329 33.197H19.1391C18.9871 33.197 18.8751 33.169 18.8031 33.113C18.7391 33.057 18.7071 32.985 18.7071 32.8969C18.7071 32.7209 18.8351 32.6089 19.0911 32.5609L20.0153 32.4168C20.1993 32.3848 20.3394 32.3208 20.4354 32.2248C20.5394 32.1208 20.5914 31.9887 20.5914 31.8287V17.7619C20.5914 17.6019 20.5394 17.4739 20.4354 17.3778C20.3394 17.2738 20.1993 17.2058 20.0153 17.1738L19.0911 17.0298C18.8351 16.9818 18.7071 16.8697 18.7071 16.6937C18.7071 16.5977 18.7391 16.5257 18.8031 16.4777C18.8751 16.4217 18.9871 16.3937 19.1391 16.3937H23.9161C24.0681 16.3937 24.1761 16.4217 24.2401 16.4777C24.3042 16.5257 24.3362 16.5977 24.3362 16.6937C24.3362 16.8697 24.2081 16.9818 23.9521 17.0298Z" fill="black"/>
<path d="M36.8828 26.6677H44.0722L44.1562 27.4118H36.7508L36.8828 26.6677ZM37.7349 32.8969C37.7349 32.985 37.6989 33.057 37.6269 33.113C37.5549 33.169 37.4429 33.197 37.2909 33.197H33.6421C33.4821 33.197 33.3661 33.173 33.2941 33.125C33.2221 33.069 33.186 32.997 33.186 32.9089C33.186 32.8369 33.2101 32.7769 33.2581 32.7289C33.3141 32.6809 33.4221 32.6289 33.5821 32.5729L34.1102 32.4168C34.3343 32.3448 34.4983 32.2368 34.6023 32.0928C34.7063 31.9407 34.8264 31.6647 34.9624 31.2646L39.5473 17.7379C39.6193 17.5139 39.6273 17.3538 39.5713 17.2578C39.5153 17.1538 39.3473 17.0778 39.0672 17.0298C38.8512 16.9898 38.6991 16.9418 38.6111 16.8857C38.5311 16.8297 38.4911 16.7617 38.4911 16.6817C38.4911 16.5857 38.5271 16.5137 38.5991 16.4657C38.6791 16.4177 38.7952 16.3937 38.9472 16.3937H42.956C43.108 16.3937 43.22 16.4177 43.2921 16.4657C43.3641 16.5137 43.4001 16.5817 43.4001 16.6697C43.4001 16.7577 43.3601 16.8297 43.28 16.8857C43.208 16.9418 43.068 16.9898 42.86 17.0298C42.6199 17.0618 42.4759 17.1178 42.4279 17.1978C42.3799 17.2698 42.3879 17.3979 42.4519 17.5819L47.2888 31.6847C47.3689 31.9487 47.4849 32.1448 47.6369 32.2728C47.7969 32.4008 48.029 32.4928 48.333 32.5489C48.5251 32.5889 48.6531 32.6369 48.7171 32.6929C48.7811 32.7409 48.8131 32.8089 48.8131 32.8969C48.8131 32.985 48.7731 33.057 48.6931 33.113C48.6211 33.169 48.5091 33.197 48.3571 33.197H44.1322C43.9882 33.197 43.8762 33.169 43.7962 33.113C43.7241 33.057 43.6881 32.985 43.6881 32.8969C43.6881 32.8169 43.7201 32.7529 43.7841 32.7049C43.8482 32.6489 43.9482 32.6049 44.0842 32.5729L45.0684 32.4648C45.2764 32.4328 45.3885 32.3568 45.4045 32.2368C45.4205 32.1168 45.3845 31.9247 45.2964 31.6607L40.3515 17.1618L40.6515 17.0538L35.8746 31.2046C35.7946 31.4606 35.7546 31.6727 35.7546 31.8407C35.7626 32.0008 35.8186 32.1288 35.9226 32.2248C36.0266 32.3128 36.1866 32.3848 36.4027 32.4408L37.3389 32.5849C37.4829 32.6169 37.5829 32.6569 37.6389 32.7049C37.7029 32.7449 37.7349 32.8089 37.7349 32.8969Z" fill="black"/>
<path d="M58.2915 33.5811C57.5313 33.5811 56.8792 33.481 56.3351 33.281C55.799 33.081 55.3669 32.8849 55.0388 32.6929C54.7188 32.5008 54.5027 32.4048 54.3907 32.4048C54.2707 32.4048 54.1827 32.4648 54.1266 32.5849C54.0786 32.6969 54.0346 32.8329 53.9946 32.993C53.9626 33.145 53.9146 33.277 53.8506 33.389C53.7946 33.509 53.7066 33.5691 53.5865 33.5691C53.4905 33.5691 53.4145 33.5371 53.3585 33.473C53.3025 33.409 53.2585 33.313 53.2265 33.185L52.2663 29.4642C52.2423 29.3522 52.2503 29.2562 52.2903 29.1762C52.3383 29.0882 52.4143 29.0242 52.5183 28.9842C52.6303 28.9521 52.7264 28.9601 52.8064 29.0082C52.8944 29.0482 52.9664 29.1322 53.0224 29.2602C53.4225 30.1004 53.8986 30.7845 54.4507 31.3126C55.0108 31.8407 55.6109 32.2288 56.2511 32.4768C56.8992 32.7249 57.5593 32.8489 58.2315 32.8489C59.1996 32.8489 59.9518 32.5809 60.4879 32.0448C61.032 31.5007 61.3081 30.7965 61.3161 29.9323C61.3241 29.4042 61.208 28.9121 60.968 28.456C60.7359 27.992 60.2999 27.5439 59.6597 27.1118C59.0196 26.6797 58.0954 26.2476 56.8872 25.8155C55.703 25.3914 54.7548 24.9233 54.0426 24.4112C53.3305 23.8991 52.8144 23.327 52.4943 22.6949C52.1743 22.0548 52.0142 21.3386 52.0142 20.5465C52.0142 19.6423 52.2223 18.8541 52.6383 18.182C53.0544 17.5099 53.6345 16.9938 54.3787 16.6337C55.1228 16.2656 55.975 16.0816 56.9352 16.0816C57.7274 16.0816 58.3635 16.1736 58.8436 16.3576C59.3317 16.5417 59.7157 16.7257 59.9958 16.9098C60.2759 17.0938 60.4959 17.1858 60.6559 17.1858C60.816 17.1858 60.912 17.0978 60.944 16.9218C60.984 16.7377 61.024 16.5537 61.064 16.3696C61.104 16.1776 61.208 16.0816 61.3761 16.0816C61.4721 16.0816 61.5481 16.1136 61.6041 16.1776C61.6681 16.2336 61.7241 16.3416 61.7722 16.5017L62.9724 20.4145C63.0044 20.5345 63.0004 20.6465 62.9604 20.7505C62.9204 20.8545 62.8484 20.9226 62.7444 20.9546C62.6323 20.9866 62.5323 20.9826 62.4443 20.9426C62.3563 20.8945 62.2803 20.8105 62.2162 20.6905C61.7522 19.7303 61.2481 18.9662 60.7039 18.3981C60.1598 17.8299 59.5797 17.4219 58.9636 17.1738C58.3475 16.9178 57.6993 16.7897 57.0192 16.7897C56.003 16.7897 55.1869 17.0818 54.5707 17.6659C53.9626 18.25 53.6586 19.0262 53.6586 19.9944C53.6586 20.5465 53.7826 21.0666 54.0306 21.5547C54.2787 22.0428 54.7148 22.5109 55.3389 22.959C55.963 23.399 56.8432 23.8311 57.9794 24.2552C59.2277 24.7273 60.2118 25.2194 60.932 25.7315C61.6521 26.2356 62.1642 26.7877 62.4683 27.3878C62.7804 27.988 62.9324 28.6561 62.9244 29.3922C62.9164 30.1524 62.7323 30.8525 62.3723 31.4927C62.0202 32.1248 61.5001 32.6329 60.812 33.0169C60.1318 33.393 59.2917 33.5811 58.2915 33.5811Z" fill="black"/>
<path d="M73.6386 33.5811C72.8784 33.5811 72.2263 33.481 71.6822 33.281C71.1461 33.081 70.714 32.8849 70.3859 32.6929C70.0659 32.5008 69.8498 32.4048 69.7378 32.4048C69.6178 32.4048 69.5298 32.4648 69.4737 32.5849C69.4257 32.6969 69.3817 32.8329 69.3417 32.993C69.3097 33.145 69.2617 33.277 69.1977 33.389C69.1417 33.509 69.0537 33.5691 68.9336 33.5691C68.8376 33.5691 68.7616 33.5371 68.7056 33.473C68.6496 33.409 68.6056 33.313 68.5736 33.185L67.6134 29.4642C67.5894 29.3522 67.5974 29.2562 67.6374 29.1762C67.6854 29.0882 67.7614 29.0242 67.8654 28.9842C67.9774 28.9521 68.0735 28.9601 68.1535 29.0082C68.2415 29.0482 68.3135 29.1322 68.3695 29.2602C68.7696 30.1004 69.2457 30.7845 69.7978 31.3126C70.3579 31.8407 70.958 32.2288 71.5982 32.4768C72.2463 32.7249 72.9064 32.8489 73.5786 32.8489C74.5468 32.8489 75.2989 32.5809 75.835 32.0448C76.3791 31.5007 76.6552 30.7965 76.6632 29.9323C76.6712 29.4042 76.5551 28.9121 76.3151 28.456C76.0831 27.992 75.647 27.5439 75.0068 27.1118C74.3667 26.6797 73.4425 26.2476 72.2343 25.8155C71.0501 25.3914 70.1019 24.9233 69.3897 24.4112C68.6776 23.8991 68.1615 23.327 67.8414 22.6949C67.5214 22.0548 67.3613 21.3386 67.3613 20.5465C67.3613 19.6423 67.5694 18.8541 67.9855 18.182C68.4015 17.5099 68.9817 16.9938 69.7258 16.6337C70.4699 16.2656 71.3221 16.0816 72.2823 16.0816C73.0745 16.0816 73.7106 16.1736 74.1907 16.3576C74.6788 16.5417 75.0629 16.7257 75.3429 16.9098C75.623 17.0938 75.843 17.1858 76.003 17.1858C76.1631 17.1858 76.2591 17.0978 76.2911 16.9218C76.3311 16.7377 76.3711 16.5537 76.4111 16.3696C76.4511 16.1776 76.5551 16.0816 76.7232 16.0816C76.8192 16.0816 76.8952 16.1136 76.9512 16.1776C77.0152 16.2336 77.0713 16.3416 77.1193 16.5017L78.3195 20.4145C78.3515 20.5345 78.3475 20.6465 78.3075 20.7505C78.2675 20.8545 78.1955 20.9226 78.0915 20.9546C77.9794 20.9866 77.8794 20.9826 77.7914 20.9426C77.7034 20.8945 77.6274 20.8105 77.5633 20.6905C77.0993 19.7303 76.5952 18.9662 76.0511 18.3981C75.5069 17.8299 74.9268 17.4219 74.3107 17.1738C73.6946 16.9178 73.0465 16.7897 72.3663 16.7897C71.3501 16.7897 70.534 17.0818 69.9178 17.6659C69.3097 18.25 69.0057 19.0262 69.0057 19.9944C69.0057 20.5465 69.1297 21.0666 69.3777 21.5547C69.6258 22.0428 70.0619 22.5109 70.686 22.959C71.3101 23.399 72.1903 23.8311 73.3265 24.2552C74.5748 24.7273 75.5589 25.2194 76.2791 25.7315C76.9992 26.2356 77.5113 26.7877 77.8154 27.3878C78.1275 27.988 78.2795 28.6561 78.2715 29.3922C78.2635 30.1524 78.0795 30.8525 77.7194 31.4927C77.3673 32.1248 76.8472 32.6329 76.1591 33.0169C75.4789 33.393 74.6388 33.5811 73.6386 33.5811Z" fill="black"/>
<path d="M86.4892 31.8287C86.4892 31.9887 86.5412 32.1208 86.6452 32.2248C86.7492 32.3208 86.8933 32.3848 87.0773 32.4168L87.9895 32.5609C88.2455 32.6089 88.3736 32.7209 88.3736 32.8969C88.3736 32.985 88.3416 33.057 88.2775 33.113C88.2135 33.169 88.1055 33.197 87.9535 33.197H83.1765C83.0245 33.197 82.9125 33.169 82.8405 33.113C82.7764 33.057 82.7444 32.985 82.7444 32.8969C82.7444 32.7209 82.8725 32.6089 83.1285 32.5609L84.0527 32.4168C84.2367 32.3848 84.3768 32.3208 84.4728 32.2248C84.5768 32.1208 84.6288 31.9887 84.6288 31.8287V17.7619C84.6288 17.6019 84.5768 17.4739 84.4728 17.3778C84.3768 17.2738 84.2367 17.2058 84.0527 17.1738L83.1285 17.0298C82.8725 16.9818 82.7444 16.8697 82.7444 16.6937C82.7444 16.5977 82.7764 16.5257 82.8405 16.4777C82.9125 16.4217 83.0245 16.3937 83.1765 16.3937H87.9535C88.1055 16.3937 88.2135 16.4217 88.2775 16.4777C88.3416 16.5257 88.3736 16.5977 88.3736 16.6937C88.3736 16.8697 88.2455 16.9818 87.9895 17.0298L87.0773 17.1738C86.8933 17.2058 86.7492 17.2738 86.6452 17.3778C86.5412 17.4739 86.4892 17.6019 86.4892 17.7619V31.8287Z" fill="black"/>
<path d="M107.015 29.1642C107.007 29.6683 106.859 30.1804 106.571 30.7005C106.283 31.2206 105.867 31.7007 105.322 32.1408C104.786 32.5809 104.13 32.9369 103.354 33.209C102.586 33.481 101.706 33.6171 100.714 33.6171C99.0492 33.6171 97.6129 33.245 96.4046 32.5009C95.1964 31.7487 94.2642 30.7205 93.6081 29.4162C92.96 28.112 92.6359 26.6117 92.6359 24.9153C92.6359 23.6271 92.8279 22.4429 93.212 21.3626C93.5961 20.2824 94.1362 19.3422 94.8323 18.5421C95.5365 17.7419 96.3606 17.1258 97.3048 16.6937C98.257 16.2536 99.2932 16.0336 100.413 16.0336C101.278 16.0336 101.978 16.1256 102.514 16.3096C103.058 16.4937 103.478 16.6817 103.774 16.8737C104.078 17.0578 104.294 17.1498 104.422 17.1498C104.598 17.1498 104.714 17.0738 104.77 16.9218C104.834 16.7617 104.898 16.6057 104.962 16.4537C105.026 16.3016 105.138 16.2256 105.298 16.2256C105.386 16.2256 105.458 16.2536 105.514 16.3096C105.578 16.3576 105.63 16.4457 105.67 16.5737L106.967 20.5945C107.015 20.7225 107.011 20.8345 106.955 20.9306C106.899 21.0186 106.807 21.0706 106.679 21.0866C106.575 21.0946 106.479 21.0746 106.391 21.0266C106.311 20.9786 106.243 20.8985 106.187 20.7865C105.731 19.8343 105.226 19.0622 104.674 18.4701C104.122 17.8779 103.502 17.4459 102.814 17.1738C102.134 16.8938 101.366 16.7537 100.509 16.7537C99.6613 16.7537 98.8731 16.9338 98.145 17.2938C97.4169 17.6539 96.7807 18.17 96.2366 18.8421C95.7005 19.5143 95.2804 20.3184 94.9764 21.2546C94.6803 22.1908 94.5323 23.235 94.5323 24.3872C94.5323 26.0756 94.8243 27.5279 95.4085 28.7441C96.0006 29.9523 96.8007 30.8765 97.8089 31.5167C98.8171 32.1568 99.9534 32.4768 101.218 32.4768C102.522 32.4768 103.61 32.1848 104.482 31.6007C105.362 31.0166 106.007 30.2164 106.415 29.2002C106.471 29.0882 106.531 29.0122 106.595 28.9722C106.659 28.9241 106.727 28.9041 106.799 28.9121C106.871 28.9121 106.923 28.9361 106.955 28.9842C106.995 29.0242 107.015 29.0842 107.015 29.1642Z" fill="black"/>
<path d="M117.218 33.5811C116.458 33.5811 115.806 33.481 115.262 33.281C114.726 33.081 114.294 32.8849 113.966 32.6929C113.646 32.5008 113.43 32.4048 113.318 32.4048C113.198 32.4048 113.11 32.4648 113.054 32.5849C113.006 32.6969 112.962 32.8329 112.922 32.993C112.89 33.145 112.842 33.277 112.778 33.389C112.722 33.509 112.634 33.5691 112.514 33.5691C112.418 33.5691 112.341 33.5371 112.285 33.473C112.229 33.409 112.185 33.313 112.153 33.185L111.193 29.4642C111.169 29.3522 111.177 29.2562 111.217 29.1762C111.265 29.0882 111.341 29.0242 111.445 28.9842C111.557 28.9521 111.653 28.9601 111.733 29.0082C111.821 29.0482 111.893 29.1322 111.949 29.2602C112.35 30.1004 112.826 30.7845 113.378 31.3126C113.938 31.8407 114.538 32.2288 115.178 32.4768C115.826 32.7249 116.486 32.8489 117.158 32.8489C118.127 32.8489 118.879 32.5809 119.415 32.0448C119.959 31.5007 120.235 30.7965 120.243 29.9323C120.251 29.4042 120.135 28.9121 119.895 28.456C119.663 27.992 119.227 27.5439 118.587 27.1118C117.947 26.6797 117.022 26.2476 115.814 25.8155C114.63 25.3914 113.682 24.9233 112.97 24.4112C112.257 23.8991 111.741 23.327 111.421 22.6949C111.101 22.0548 110.941 21.3386 110.941 20.5465C110.941 19.6423 111.149 18.8541 111.565 18.182C111.981 17.5099 112.562 16.9938 113.306 16.6337C114.05 16.2656 114.902 16.0816 115.862 16.0816C116.654 16.0816 117.29 16.1736 117.771 16.3576C118.259 16.5417 118.643 16.7257 118.923 16.9098C119.203 17.0938 119.423 17.1858 119.583 17.1858C119.743 17.1858 119.839 17.0978 119.871 16.9218C119.911 16.7377 119.951 16.5537 119.991 16.3696C120.031 16.1776 120.135 16.0816 120.303 16.0816C120.399 16.0816 120.475 16.1136 120.531 16.1776C120.595 16.2336 120.651 16.3416 120.699 16.5017L121.899 20.4145C121.931 20.5345 121.927 20.6465 121.887 20.7505C121.847 20.8545 121.775 20.9226 121.671 20.9546C121.559 20.9866 121.459 20.9826 121.371 20.9426C121.283 20.8945 121.207 20.8105 121.143 20.6905C120.679 19.7303 120.175 18.9662 119.631 18.3981C119.087 17.8299 118.507 17.4219 117.891 17.1738C117.274 16.9178 116.626 16.7897 115.946 16.7897C114.93 16.7897 114.114 17.0818 113.498 17.6659C112.89 18.25 112.586 19.0262 112.586 19.9944C112.586 20.5465 112.71 21.0666 112.958 21.5547C113.206 22.0428 113.642 22.5109 114.266 22.959C114.89 23.399 115.77 23.8311 116.906 24.2552C118.155 24.7273 119.139 25.2194 119.859 25.7315C120.579 26.2356 121.091 26.7877 121.395 27.3878C121.707 27.988 121.859 28.6561 121.851 29.3922C121.843 30.1524 121.659 30.8525 121.299 31.4927C120.947 32.1248 120.427 32.6329 119.739 33.0169C119.059 33.393 118.219 33.5811 117.218 33.5811Z" fill="black"/>
</svg>
