<svg width="122" height="33" viewBox="0 0 122 33" fill="none" xmlns="http://www.w3.org/2000/svg">
<path d="M7.47148 3.95013C7.47148 4.50071 7.33168 4.98031 7.0521 5.38894C6.77251 5.79327 6.37893 6.10727 5.87137 6.33094C5.36811 6.55031 4.78097 6.66 4.10996 6.66C3.65401 6.66 3.23248 6.61483 2.84536 6.5245C2.45823 6.42987 2.12488 6.29653 1.84529 6.12448L1.92916 5.64702C2.08401 5.75026 2.25822 5.83843 2.45178 5.91156C2.64964 5.98038 2.85826 6.03415 3.07763 6.07286C3.297 6.10727 3.52067 6.12448 3.74864 6.12448C4.18738 6.12448 4.57236 6.03845 4.90356 5.86639C5.23907 5.69004 5.4993 5.43626 5.68426 5.10505C5.87352 4.77385 5.96815 4.37597 5.96815 3.91142C5.96815 3.37375 5.85416 2.9049 5.62619 2.50487C5.39822 2.10054 5.07562 1.78654 4.65838 1.56287C4.24545 1.3392 3.75079 1.22737 3.17441 1.22737H2.49049V8.82143C2.49049 8.91606 2.5163 8.99349 2.56792 9.05371C2.62384 9.11393 2.70556 9.15264 2.8131 9.16985L3.46475 9.24727C3.55938 9.26017 3.62605 9.28813 3.66477 9.33115C3.70778 9.37416 3.72929 9.43438 3.72929 9.51181C3.72929 9.58063 3.70348 9.63654 3.65186 9.67956C3.60455 9.72257 3.52497 9.74408 3.41314 9.74408H0.316151C0.208616 9.74408 0.129041 9.72257 0.0774246 9.67956C0.0258082 9.63654 0 9.58063 0 9.51181C0 9.38276 0.081726 9.29458 0.245178 9.24727L0.671014 9.16985C0.774247 9.14404 0.851671 9.10317 0.903288 9.04726C0.959205 8.99134 0.987164 8.91606 0.987164 8.82143V1.63385C0.987164 1.53922 0.959205 1.46394 0.903288 1.40802C0.851671 1.35211 0.774247 1.31124 0.671014 1.28543L0.245178 1.20801C0.081726 1.165 0 1.07682 0 0.943476C0 0.870353 0.0258082 0.814435 0.0774246 0.775723C0.129041 0.732709 0.208616 0.711202 0.316151 0.711202H3.21312C4.10781 0.711202 4.8713 0.850997 5.5036 1.13059C6.1359 1.41017 6.62196 1.793 6.96177 2.27905C7.30157 2.76511 7.47148 3.32213 7.47148 3.95013Z" fill="black"/>
<path d="M16.35 5.94382L16.1242 1.82741C16.1156 1.66826 16.0726 1.54567 15.9951 1.45964C15.9177 1.37361 15.793 1.31339 15.6209 1.27898L15.2661 1.21446C15.1456 1.18435 15.0639 1.14779 15.0209 1.10478C14.9779 1.06176 14.9564 1.008 14.9564 0.943476C14.9564 0.874654 14.9843 0.818736 15.0402 0.775723C15.0962 0.732709 15.1714 0.711202 15.2661 0.711202H17.563C17.6662 0.711202 17.7437 0.732709 17.7953 0.775723C17.8512 0.818736 17.8791 0.874654 17.8791 0.943476C17.8791 1.0123 17.8555 1.06822 17.8082 1.11123C17.7652 1.15424 17.6856 1.18865 17.5694 1.21446L17.2339 1.26608C17.0361 1.30909 16.9006 1.38007 16.8275 1.479C16.7586 1.57793 16.7285 1.70482 16.7371 1.85967L16.9694 5.95672C16.9823 6.17179 16.9931 6.38256 17.0017 6.58902C17.0146 6.79549 17.0253 7.01056 17.0339 7.23423C17.0511 7.7633 16.9371 8.2343 16.692 8.64723C16.4468 9.05586 16.0747 9.37846 15.5758 9.61504C15.0811 9.84731 14.4596 9.96345 13.7111 9.96345C12.9197 9.96345 12.2551 9.85161 11.7174 9.62794C11.1841 9.40427 10.784 9.09027 10.5174 8.68594C10.2507 8.27731 10.1238 7.79986 10.1367 7.25359C10.141 7.13745 10.1474 6.9912 10.156 6.81485C10.1646 6.63849 10.1754 6.44708 10.1883 6.24061C10.2012 6.02985 10.212 5.81478 10.2206 5.59541L10.4335 1.68546C10.4421 1.56072 10.412 1.46824 10.3431 1.40802C10.2743 1.3435 10.1646 1.29834 10.0141 1.27253L9.65278 1.21446C9.44631 1.17145 9.34308 1.08327 9.34308 0.949929C9.34308 0.876805 9.37104 0.818736 9.42696 0.775723C9.48287 0.732709 9.5603 0.711202 9.65923 0.711202H12.7111C12.8143 0.711202 12.8917 0.732709 12.9433 0.775723C12.9992 0.818736 13.0272 0.876805 13.0272 0.949929C13.0272 1.01445 13.0035 1.06822 12.9562 1.11123C12.9132 1.15424 12.8336 1.1865 12.7175 1.20801L12.3497 1.27253C12.2164 1.29834 12.1175 1.34135 12.0529 1.40157C11.9927 1.45749 11.9583 1.54782 11.9497 1.67256L11.7368 5.57605C11.7196 5.89005 11.7067 6.17394 11.6981 6.42772C11.6895 6.6815 11.6809 6.91378 11.6723 7.12454C11.6551 7.87298 11.8551 8.43216 12.2723 8.80208C12.6895 9.172 13.2702 9.35696 14.0144 9.35696C14.5219 9.35696 14.9564 9.27308 15.3177 9.10532C15.679 8.93327 15.9543 8.69024 16.1435 8.37624C16.3371 8.05794 16.4253 7.67727 16.4081 7.23423C16.3995 6.94174 16.3909 6.69656 16.3823 6.49869C16.3737 6.30083 16.3629 6.11587 16.35 5.94382Z" fill="black"/>
<path d="M27.6687 7.56328C27.6687 8.20419 27.3934 8.72895 26.8429 9.13758C26.2923 9.54191 25.4772 9.74408 24.3975 9.74408H20.3005C20.1929 9.74408 20.1134 9.72257 20.0618 9.67956C20.0101 9.63654 19.9843 9.58063 19.9843 9.51181C19.9843 9.37846 20.0661 9.29028 20.2295 9.24727L20.6553 9.16985C20.7586 9.14404 20.8382 9.10317 20.8941 9.04726C20.95 8.99134 20.9779 8.91606 20.9779 8.82143V1.63385C20.9779 1.53922 20.95 1.46394 20.8941 1.40802C20.8382 1.35211 20.7586 1.31124 20.6553 1.28543L20.2295 1.20801C20.0661 1.165 19.9843 1.07682 19.9843 0.943476C19.9843 0.870353 20.0101 0.814435 20.0618 0.775723C20.1134 0.732709 20.1929 0.711202 20.3005 0.711202H23.4942C24.2728 0.711202 24.9352 0.820887 25.4815 1.04026C26.0278 1.25533 26.4428 1.55642 26.7267 1.94354C27.0106 2.32637 27.1526 2.77371 27.1526 3.28557C27.1526 3.71571 27.0343 4.10283 26.7977 4.44694C26.5654 4.79105 26.2149 5.06419 25.746 5.26635C25.2772 5.46852 24.6922 5.5696 23.9911 5.5696L24.3846 5.38894C25.0599 5.38894 25.6428 5.48357 26.1331 5.67283C26.6235 5.85779 27.002 6.11372 27.2687 6.44063C27.5354 6.76753 27.6687 7.14175 27.6687 7.56328ZM23.8104 5.7438H22.0425V5.30506H23.7136C24.1352 5.30506 24.4922 5.22764 24.7847 5.07279C25.0772 4.91794 25.3008 4.69427 25.4557 4.40178C25.6105 4.10928 25.6879 3.75872 25.6879 3.35009C25.6879 2.91996 25.5955 2.54359 25.4105 2.22098C25.2299 1.89838 24.9589 1.64675 24.5975 1.46609C24.2405 1.28544 23.8018 1.19511 23.2813 1.19511H22.4813V8.69239C22.4813 8.88165 22.5436 9.0236 22.6684 9.11823C22.7931 9.21286 22.9824 9.26017 23.2362 9.26017H24.0943C24.5459 9.26017 24.9223 9.18705 25.2234 9.0408C25.5245 8.89456 25.7503 8.69239 25.9009 8.43431C26.0557 8.17193 26.1331 7.87083 26.1331 7.53102C26.1331 6.99765 25.9374 6.56752 25.546 6.24061C25.1546 5.90941 24.576 5.7438 23.8104 5.7438Z" fill="black"/>
<path d="M32.8721 1.20801L32.4463 1.28543C32.343 1.31124 32.2635 1.35211 32.2075 1.40802C32.1516 1.46394 32.1237 1.53922 32.1237 1.63385V8.76982C32.1237 8.92897 32.1731 9.04511 32.2721 9.11823C32.3753 9.18705 32.5323 9.22146 32.7431 9.22146H34.1045C34.3539 9.22146 34.5647 9.1892 34.7368 9.12468C34.9088 9.06016 35.0594 8.94617 35.1884 8.78272C35.3217 8.61927 35.4529 8.38915 35.582 8.09235L35.9433 7.22132C35.9863 7.1353 36.0358 7.07508 36.0917 7.04067C36.1476 7.00626 36.2164 6.99765 36.2981 7.01486C36.3842 7.03206 36.4444 7.07078 36.4788 7.131C36.5132 7.18691 36.5175 7.26649 36.4917 7.36972L35.9433 9.62149C35.9089 9.74623 35.8616 9.83871 35.8013 9.89893C35.7411 9.95915 35.6594 9.98926 35.5562 9.98926C35.4701 9.98926 35.3884 9.96775 35.311 9.92474C35.2379 9.88602 35.1561 9.84516 35.0658 9.80215C34.9755 9.76343 34.8615 9.74408 34.7238 9.74408H29.9493C29.8375 9.74408 29.7558 9.72257 29.7041 9.67956C29.6568 9.63654 29.6332 9.58063 29.6332 9.51181C29.6332 9.37846 29.7149 9.29028 29.8784 9.24727L30.3042 9.16985C30.4074 9.14404 30.4848 9.10317 30.5365 9.04726C30.5924 8.99134 30.6203 8.91606 30.6203 8.82143V1.63385C30.6203 1.53922 30.5924 1.46394 30.5365 1.40802C30.4848 1.35211 30.4074 1.31124 30.3042 1.28543L29.8784 1.20801C29.7149 1.165 29.6332 1.07682 29.6332 0.943476C29.6332 0.870353 29.6568 0.814435 29.7041 0.775723C29.7558 0.732709 29.8375 0.711202 29.9493 0.711202H32.8011C32.913 0.711202 32.9925 0.732709 33.0399 0.775723C33.0915 0.814435 33.1173 0.870353 33.1173 0.943476C33.1173 1.07682 33.0356 1.165 32.8721 1.20801Z" fill="black"/>
<path d="M40.966 8.82143C40.966 8.91606 40.994 8.99134 41.0499 9.04726C41.1058 9.10317 41.1854 9.14404 41.2886 9.16985L41.7144 9.24727C41.8779 9.29028 41.9596 9.37846 41.9596 9.51181C41.9596 9.58063 41.9338 9.63654 41.8822 9.67956C41.8349 9.72257 41.7553 9.74408 41.6435 9.74408H38.7917C38.6798 9.74408 38.5981 9.72257 38.5465 9.67956C38.4992 9.63654 38.4755 9.58063 38.4755 9.51181C38.4755 9.37846 38.5572 9.29028 38.7207 9.24727L39.1465 9.16985C39.2498 9.14404 39.3272 9.10317 39.3788 9.04726C39.4347 8.99134 39.4627 8.91606 39.4627 8.82143V1.63385C39.4627 1.53922 39.4347 1.46394 39.3788 1.40802C39.3272 1.35211 39.2498 1.31124 39.1465 1.28543L38.7207 1.20801C38.5572 1.165 38.4755 1.07682 38.4755 0.943476C38.4755 0.870353 38.4992 0.814435 38.5465 0.775723C38.5981 0.732709 38.6798 0.711202 38.7917 0.711202H41.6435C41.7553 0.711202 41.8349 0.732709 41.8822 0.775723C41.9338 0.814435 41.9596 0.870353 41.9596 0.943476C41.9596 1.07682 41.8779 1.165 41.7144 1.20801L41.2886 1.28543C41.1854 1.31124 41.1058 1.35211 41.0499 1.40802C40.994 1.46394 40.966 1.53922 40.966 1.63385V8.82143Z" fill="black"/>
<path d="M52.113 7.47296C52.113 7.75685 52.0335 8.04719 51.8743 8.34398C51.7152 8.63648 51.4829 8.90746 51.1775 9.15694C50.8764 9.40212 50.5086 9.59998 50.0742 9.75053C49.6441 9.90108 49.1537 9.97635 48.6031 9.97635C47.6869 9.97635 46.8976 9.77634 46.2352 9.37631C45.5728 8.97198 45.0609 8.41926 44.6996 7.71813C44.3426 7.01271 44.1641 6.2019 44.1641 5.28571C44.1641 4.59319 44.2695 3.95659 44.4803 3.3759C44.691 2.79522 44.9878 2.2898 45.3706 1.85967C45.7578 1.42523 46.2116 1.08972 46.732 0.853148C47.2525 0.616572 47.8203 0.498284 48.4354 0.498284C48.8827 0.498284 49.2462 0.5456 49.5258 0.64023C49.8054 0.730558 50.0226 0.823038 50.1774 0.917668C50.3366 1.008 50.457 1.05316 50.5387 1.05316C50.642 1.05316 50.7151 1.01445 50.7581 0.937025C50.8054 0.8596 50.8506 0.782175 50.8936 0.704751C50.9409 0.627326 51.0162 0.588614 51.1194 0.588614C51.1796 0.588614 51.2313 0.607969 51.2743 0.646682C51.3173 0.685394 51.3517 0.752065 51.3775 0.846695L52.0679 3.03394C52.098 3.11997 52.0915 3.19524 52.0485 3.25976C52.0098 3.32428 51.9474 3.36515 51.8614 3.38235C51.7797 3.39526 51.7066 3.3845 51.642 3.35009C51.5775 3.31568 51.5259 3.25761 51.4872 3.17589C51.2463 2.66402 50.9818 2.25324 50.6936 1.94354C50.4054 1.62954 50.0871 1.40372 49.7387 1.26608C49.3903 1.12413 49.0053 1.05316 48.5838 1.05316C48.1665 1.05316 47.7794 1.14564 47.4224 1.3306C47.0697 1.51126 46.7621 1.77364 46.4998 2.11775C46.2417 2.46186 46.0395 2.87264 45.8933 3.35009C45.7513 3.82324 45.6803 4.35446 45.6803 4.94375C45.6803 5.82553 45.8266 6.58042 46.1191 7.20842C46.4116 7.83212 46.8095 8.30742 47.3127 8.63433C47.816 8.95693 48.3881 9.11823 49.029 9.11823C49.6613 9.11823 50.2011 8.97413 50.6484 8.68594C51.0958 8.39345 51.4356 7.98912 51.6678 7.47296C51.7066 7.39123 51.7496 7.33531 51.7969 7.3052C51.8442 7.27509 51.898 7.26434 51.9582 7.27294C52.0098 7.27724 52.0485 7.2966 52.0743 7.33101C52.1001 7.36542 52.113 7.41274 52.113 7.47296Z" fill="black"/>
<path d="M62.5346 9.51181C62.5346 9.37846 62.6163 9.29028 62.7798 9.24727L63.2056 9.16985C63.3088 9.14404 63.3863 9.10317 63.4379 9.04726C63.4938 8.99134 63.5218 8.91606 63.5218 8.82143V1.63385C63.5218 1.53922 63.4938 1.46394 63.4379 1.40802C63.3863 1.35211 63.3088 1.31124 63.2056 1.28543L62.7798 1.20801C62.6163 1.1607 62.5346 1.07252 62.5346 0.943476C62.5346 0.870353 62.5604 0.814435 62.612 0.775723C62.6636 0.732709 62.7432 0.711202 62.8507 0.711202H65.9929C66.7972 0.711202 67.5263 0.82949 68.1801 1.06607C68.8383 1.29834 69.4039 1.62739 69.877 2.05323C70.3502 2.47907 70.7136 2.98233 70.9674 3.56301C71.2212 4.1437 71.3481 4.78245 71.3481 5.47927C71.3481 6.29653 71.1588 7.02776 70.7803 7.67297C70.4061 8.31387 69.862 8.81928 69.1479 9.1892C68.4382 9.55912 67.578 9.74408 66.5671 9.74408H62.8507C62.7432 9.74408 62.6636 9.72257 62.612 9.67956C62.5604 9.63654 62.5346 9.58063 62.5346 9.51181ZM66.4639 9.22146C67.1478 9.22146 67.7349 9.07737 68.2253 8.78917C68.72 8.50098 69.1006 8.07515 69.3673 7.51167C69.6383 6.94819 69.7738 6.25782 69.7738 5.44056C69.7738 4.79965 69.6813 4.22112 69.4964 3.70496C69.3157 3.18879 69.0512 2.7479 68.7028 2.38228C68.3586 2.01237 67.9436 1.72848 67.4575 1.53061C66.9715 1.33275 66.4252 1.23382 65.8187 1.23382H65.0251V8.67949C65.0251 8.86875 65.0832 9.00639 65.1993 9.09242C65.3154 9.17845 65.4896 9.22146 65.7219 9.22146H66.4639Z" fill="black"/>
<path d="M77.9063 0.498284C78.5902 0.498284 79.2118 0.616572 79.771 0.853148C80.3301 1.08542 80.8097 1.41663 81.2098 1.84676C81.6141 2.2726 81.9238 2.77801 82.1389 3.363C82.3582 3.94798 82.4679 4.58889 82.4679 5.28571C82.4679 5.96963 82.3604 6.59763 82.1453 7.16971C81.9302 7.74179 81.6205 8.2386 81.2162 8.66013C80.8162 9.07737 80.3366 9.40212 79.7774 9.63439C79.2225 9.86237 78.6031 9.97635 77.9192 9.97635C77.2439 9.97635 76.6288 9.86022 76.0739 9.62794C75.519 9.39137 75.0394 9.06016 74.6351 8.63433C74.2351 8.20419 73.9254 7.69663 73.706 7.11164C73.491 6.52665 73.3834 5.8836 73.3834 5.18248C73.3834 4.49856 73.491 3.87271 73.706 3.30493C73.9211 2.73285 74.2286 2.23819 74.6287 1.82096C75.0287 1.39942 75.5061 1.07467 76.061 0.846695C76.6159 0.614421 77.231 0.498284 77.9063 0.498284ZM80.9259 6.12448C80.9259 5.55669 80.8678 5.01902 80.7517 4.51146C80.6398 4.0039 80.4807 3.5415 80.2742 3.12427C80.0721 2.70274 79.8312 2.33927 79.5516 2.03387C79.272 1.72417 78.9644 1.48545 78.6289 1.3177C78.2934 1.14994 77.9386 1.06607 77.5643 1.06607C77.0439 1.06607 76.5858 1.19941 76.1901 1.46609C75.7986 1.72848 75.4932 2.10485 75.2739 2.5952C75.0545 3.08126 74.9448 3.66624 74.9448 4.35016C74.9448 4.92224 75.0007 5.46422 75.1126 5.97608C75.2244 6.48364 75.3814 6.94819 75.5836 7.36972C75.79 7.78695 76.0309 8.15042 76.3062 8.46012C76.5858 8.76552 76.8933 9.00209 77.2289 9.16985C77.5644 9.3376 77.9171 9.42148 78.287 9.42148C78.816 9.42148 79.2763 9.29028 79.6677 9.0279C80.0635 8.76122 80.371 8.38269 80.5904 7.89234C80.814 7.39768 80.9259 6.80839 80.9259 6.12448Z" fill="black"/>
<path d="M90.0674 7.63426L89.5448 7.87943L92.2224 1.1693C92.2869 1.00154 92.3644 0.883257 92.4547 0.814435C92.5493 0.745613 92.6762 0.711202 92.8354 0.711202H94.3645C94.4763 0.711202 94.5602 0.732709 94.6161 0.775723C94.672 0.814435 94.7 0.870353 94.7 0.943476C94.7 1.0037 94.6806 1.05531 94.6419 1.09833C94.6032 1.14134 94.5365 1.17575 94.4419 1.20156L94.0741 1.29189C93.9193 1.3306 93.8139 1.38867 93.758 1.46609C93.7021 1.54352 93.6827 1.67686 93.6999 1.86612L94.2225 8.72465C94.2311 8.8666 94.2634 8.96768 94.3193 9.0279C94.3795 9.08382 94.4806 9.12898 94.6226 9.16339L94.9774 9.25372C95.0635 9.27523 95.1258 9.30749 95.1645 9.3505C95.2033 9.38922 95.2226 9.43868 95.2226 9.4989C95.2226 9.56772 95.1946 9.62579 95.1387 9.67311C95.0871 9.72042 95.0054 9.74408 94.8936 9.74408H92.0417C91.9342 9.74408 91.8525 9.72257 91.7966 9.67956C91.7407 9.63654 91.7127 9.58063 91.7127 9.51181C91.7127 9.45159 91.732 9.39997 91.7708 9.35696C91.8095 9.31394 91.8761 9.27953 91.9708 9.25372L92.3321 9.16339C92.4955 9.12468 92.6052 9.07522 92.6612 9.015C92.7171 8.95048 92.7407 8.8537 92.7321 8.72465L92.1708 1.76934L92.6612 1.74353L89.8222 8.88596C89.7663 9.04081 89.7061 9.14189 89.6416 9.1892C89.5814 9.23652 89.5104 9.26017 89.4287 9.26017C89.3641 9.26017 89.3061 9.25157 89.2545 9.23437C89.2071 9.21286 89.162 9.1763 89.119 9.12468C89.076 9.06876 89.0308 8.98274 88.9835 8.8666L86.1188 1.90483L86.5898 1.66611L85.9962 8.5569C85.979 8.72895 86.0134 8.858 86.0994 8.94402C86.1854 9.03005 86.3123 9.10317 86.4801 9.16339L86.8607 9.27308C86.9253 9.29889 86.9769 9.329 87.0156 9.36341C87.0543 9.39782 87.0737 9.44513 87.0737 9.50535C87.0737 9.57417 87.0457 9.63224 86.9898 9.67956C86.9382 9.72257 86.8564 9.74408 86.7446 9.74408H84.6348C84.523 9.74408 84.4391 9.72257 84.3832 9.67956C84.3315 9.63654 84.3057 9.58063 84.3057 9.51181C84.3057 9.43868 84.3294 9.38276 84.3767 9.34405C84.4283 9.30534 84.495 9.27308 84.5767 9.24727L84.8929 9.15049C85.0477 9.10748 85.1639 9.0408 85.2413 8.95048C85.323 8.86015 85.3725 8.7268 85.3897 8.55045L85.9704 1.88548C85.9876 1.71342 85.9639 1.58223 85.8994 1.4919C85.8349 1.39727 85.7252 1.3306 85.5703 1.29189L85.2284 1.22091C85.1295 1.19511 85.0585 1.1607 85.0155 1.11768C84.9768 1.07467 84.9574 1.0209 84.9574 0.95638C84.9574 0.792928 85.0692 0.711202 85.2929 0.711202H86.8027C86.9532 0.711202 87.0737 0.741312 87.164 0.801531C87.2543 0.857449 87.3339 0.971435 87.4027 1.14349L90.0674 7.63426Z" fill="black"/>
<path d="M98.7056 6.15028H102.557L102.596 6.69871H98.6411L98.7056 6.15028ZM99.325 9.51181C99.325 9.58063 99.2992 9.63654 99.2476 9.67956C99.196 9.72257 99.1143 9.74408 99.0024 9.74408H97.0023C96.8904 9.74408 96.8066 9.72472 96.7506 9.68601C96.699 9.643 96.6732 9.58493 96.6732 9.51181C96.6732 9.46019 96.6883 9.41717 96.7184 9.38276C96.7528 9.34405 96.8173 9.30534 96.9119 9.26663L97.1571 9.18275C97.2819 9.13113 97.3743 9.06016 97.4346 8.96983C97.4991 8.8795 97.5701 8.7139 97.6475 8.47302L99.9121 1.69837C99.9638 1.54352 99.9745 1.43383 99.9444 1.36931C99.9186 1.30049 99.8304 1.24672 99.6799 1.20801C99.5594 1.1736 99.4756 1.13704 99.4282 1.09833C99.3809 1.05531 99.3573 1.00155 99.3573 0.937025C99.3573 0.863901 99.3831 0.807983 99.4347 0.769271C99.4906 0.730558 99.5745 0.711202 99.6863 0.711202H102.357C102.469 0.711202 102.551 0.730558 102.603 0.769271C102.654 0.807983 102.68 0.863901 102.68 0.937025C102.68 1.00155 102.656 1.05531 102.609 1.09833C102.566 1.14134 102.489 1.17575 102.377 1.20156C102.252 1.22737 102.177 1.26823 102.151 1.32415C102.13 1.37576 102.14 1.46179 102.183 1.58223L104.577 8.65368C104.633 8.83434 104.7 8.96768 104.777 9.05371C104.859 9.13974 104.977 9.19996 105.132 9.23437C105.248 9.27308 105.325 9.31179 105.364 9.3505C105.407 9.38922 105.429 9.44298 105.429 9.51181C105.429 9.58063 105.401 9.63654 105.345 9.67956C105.289 9.72257 105.207 9.74408 105.1 9.74408H102.532C102.424 9.74408 102.342 9.72257 102.286 9.67956C102.235 9.63654 102.209 9.58063 102.209 9.51181C102.209 9.45159 102.228 9.40212 102.267 9.36341C102.306 9.32469 102.37 9.29243 102.461 9.26663L102.912 9.19565C103.024 9.16985 103.08 9.12253 103.08 9.05371C103.084 8.98058 103.061 8.8666 103.009 8.71175L100.538 1.31124L100.732 1.22091L98.3379 8.4085C98.2862 8.56335 98.2604 8.69239 98.2604 8.79563C98.2604 8.89456 98.2905 8.97413 98.3508 9.03435C98.4153 9.09457 98.5142 9.14834 98.6476 9.19565L99.0734 9.27308C99.1594 9.29889 99.2218 9.329 99.2605 9.36341C99.3035 9.39782 99.325 9.44728 99.325 9.51181Z" fill="black"/>
<path d="M109.801 8.82143C109.801 8.91606 109.829 8.99134 109.885 9.04726C109.941 9.10317 110.021 9.14404 110.124 9.16985L110.55 9.24727C110.713 9.29028 110.795 9.37846 110.795 9.51181C110.795 9.58063 110.769 9.63654 110.718 9.67956C110.67 9.72257 110.591 9.74408 110.479 9.74408H107.627C107.515 9.74408 107.434 9.72257 107.382 9.67956C107.335 9.63654 107.311 9.58063 107.311 9.51181C107.311 9.37846 107.393 9.29028 107.556 9.24727L107.982 9.16985C108.085 9.14404 108.163 9.10317 108.214 9.04726C108.27 8.99134 108.298 8.91606 108.298 8.82143V1.63385C108.298 1.53922 108.27 1.46394 108.214 1.40802C108.163 1.35211 108.085 1.31124 107.982 1.28543L107.556 1.20801C107.393 1.165 107.311 1.07682 107.311 0.943476C107.311 0.870353 107.335 0.814435 107.382 0.775723C107.434 0.732709 107.515 0.711202 107.627 0.711202H110.479C110.591 0.711202 110.67 0.732709 110.718 0.775723C110.769 0.814435 110.795 0.870353 110.795 0.943476C110.795 1.07682 110.713 1.165 110.55 1.20801L110.124 1.28543C110.021 1.31124 109.941 1.35211 109.885 1.40802C109.829 1.46394 109.801 1.53922 109.801 1.63385V8.82143Z" fill="black"/>
<path d="M115.903 9.51181C115.903 9.58063 115.875 9.63654 115.819 9.67956C115.767 9.72257 115.686 9.74408 115.574 9.74408H113.374C113.262 9.74408 113.178 9.72257 113.122 9.67956C113.071 9.63654 113.045 9.58063 113.045 9.51181C113.045 9.39567 113.126 9.30749 113.29 9.24727L113.671 9.15049C113.868 9.08597 114 9.015 114.064 8.93757C114.133 8.86015 114.167 8.73111 114.167 8.55045V2.56939C114.167 2.44465 114.15 2.33927 114.116 2.25324C114.081 2.16291 113.997 2.03817 113.864 1.87902L113.296 1.19511C113.236 1.12198 113.195 1.06607 113.174 1.02735C113.157 0.984339 113.148 0.943476 113.148 0.904764C113.148 0.840243 113.169 0.792928 113.212 0.762819C113.26 0.728408 113.322 0.711202 113.4 0.711202H114.509C114.621 0.711202 114.714 0.730558 114.787 0.769271C114.86 0.807983 114.937 0.881106 115.019 0.98864L120.452 7.99557L120.187 8.56335V1.90483C120.187 1.72848 120.155 1.60159 120.09 1.52416C120.03 1.44244 119.897 1.36931 119.69 1.30479L119.303 1.20801C119.14 1.14349 119.058 1.05531 119.058 0.943476C119.058 0.870353 119.086 0.814435 119.142 0.775723C119.198 0.732709 119.28 0.711202 119.387 0.711202H121.587C121.699 0.711202 121.783 0.732709 121.839 0.775723C121.895 0.814435 121.923 0.870353 121.923 0.943476C121.923 1.05961 121.839 1.14779 121.671 1.20801L121.29 1.30479C121.093 1.36501 120.959 1.43598 120.89 1.51771C120.826 1.59513 120.794 1.72417 120.794 1.90483V8.15042C120.794 8.27086 120.804 8.37409 120.826 8.46012C120.852 8.54185 120.893 8.61927 120.948 8.69239L121.348 9.20211C121.413 9.28813 121.454 9.3548 121.471 9.40212C121.488 9.44513 121.497 9.48815 121.497 9.53116C121.497 9.59568 121.473 9.6473 121.426 9.68601C121.383 9.72472 121.314 9.74408 121.219 9.74408H119.91C119.742 9.74408 119.658 9.67526 119.658 9.53761C119.658 9.47309 119.645 9.41287 119.619 9.35696C119.598 9.30104 119.529 9.1978 119.413 9.04726L114.303 2.4339L114.774 2.07259V8.5569C114.774 8.72465 114.806 8.84939 114.871 8.93112C114.935 9.00854 115.068 9.08167 115.271 9.15049L115.658 9.24727C115.821 9.30749 115.903 9.39567 115.903 9.51181Z" fill="black"/>
<path d="M14.7446 27.6625C14.7366 28.1666 14.5885 28.6787 14.3005 29.1988C14.0124 29.7189 13.5963 30.199 13.0522 30.6391C12.5161 31.0791 11.86 31.4352 11.0838 31.7073C10.3157 31.9793 9.43552 32.1153 8.44333 32.1153C6.779 32.1153 5.34271 31.7433 4.13447 30.9991C2.92623 30.247 1.99405 29.2188 1.33792 27.9145C0.689787 26.6103 0.365723 25.11 0.365723 23.4136C0.365723 22.1254 0.557761 20.9411 0.941837 19.8609C1.32591 18.7807 1.86602 17.8405 2.56216 17.0404C3.2663 16.2402 4.09046 15.6241 5.03465 15.192C5.98684 14.7519 7.02304 14.5319 8.14327 14.5319C9.00744 14.5319 9.70758 14.6239 10.2437 14.8079C10.7878 14.992 11.2079 15.18 11.5039 15.372C11.808 15.5561 12.024 15.6481 12.1521 15.6481C12.3281 15.6481 12.4441 15.5721 12.5001 15.42C12.5641 15.26 12.6282 15.104 12.6922 14.9519C12.7562 14.7999 12.8682 14.7239 13.0282 14.7239C13.1163 14.7239 13.1883 14.7519 13.2443 14.8079C13.3083 14.8559 13.3603 14.9439 13.4003 15.072L14.6966 19.0928C14.7446 19.2208 14.7406 19.3328 14.6846 19.4288C14.6286 19.5169 14.5365 19.5689 14.4085 19.5849C14.3045 19.5929 14.2085 19.5729 14.1205 19.5249C14.0404 19.4768 13.9724 19.3968 13.9164 19.2848C13.4603 18.3326 12.9562 17.5605 12.4041 16.9683C11.852 16.3762 11.2319 15.9441 10.5437 15.6721C9.86361 15.392 9.09546 15.252 8.23929 15.252C7.39112 15.252 6.60296 15.432 5.87482 15.7921C5.14667 16.1522 4.51055 16.6683 3.96644 17.3404C3.43033 18.0126 3.01025 18.8167 2.70619 19.7529C2.41013 20.6891 2.2621 21.7333 2.2621 22.8855C2.2621 24.5739 2.55416 26.0261 3.13827 27.2424C3.73039 28.4506 4.53055 29.3748 5.53875 30.0149C6.54695 30.6551 7.68317 30.9751 8.94742 30.9751C10.2517 30.9751 11.3399 30.6831 12.2121 30.099C13.0922 29.5148 13.7364 28.7147 14.1445 27.6985C14.2005 27.5865 14.2605 27.5104 14.3245 27.4704C14.3885 27.4224 14.4565 27.4024 14.5285 27.4104C14.6005 27.4104 14.6526 27.4344 14.6846 27.4824C14.7246 27.5224 14.7446 27.5825 14.7446 27.6625Z" fill="black"/>
<path d="M23.9521 15.5281L23.0399 15.6721C22.8559 15.7041 22.7118 15.7721 22.6078 15.8761C22.5038 15.9722 22.4518 16.1002 22.4518 16.2602V30.183C22.4518 30.463 22.5478 30.6671 22.7398 30.7951C22.9319 30.9231 23.2359 30.9871 23.652 30.9871H26.7486C27.2207 30.9871 27.6168 30.9271 27.9369 30.8071C28.2569 30.6871 28.533 30.479 28.765 30.183C29.0051 29.8869 29.2331 29.4708 29.4492 28.9347L30.0853 27.3264C30.1413 27.2064 30.2053 27.1224 30.2773 27.0744C30.3494 27.0263 30.4414 27.0103 30.5534 27.0263C30.6654 27.0424 30.7454 27.0904 30.7934 27.1704C30.8415 27.2504 30.8455 27.3624 30.8055 27.5064L29.8453 31.6833C29.7973 31.8433 29.7332 31.9633 29.6532 32.0433C29.5812 32.1234 29.4812 32.1634 29.3532 32.1634C29.2091 32.1634 29.0771 32.1234 28.9571 32.0433C28.8451 31.9633 28.717 31.8833 28.573 31.8033C28.437 31.7313 28.2569 31.6953 28.0329 31.6953H19.1391C18.9871 31.6953 18.8751 31.6673 18.8031 31.6113C18.7391 31.5552 18.7071 31.4832 18.7071 31.3952C18.7071 31.2192 18.8351 31.1072 19.0911 31.0591L20.0153 30.9151C20.1993 30.8831 20.3394 30.8191 20.4354 30.7231C20.5394 30.6191 20.5914 30.487 20.5914 30.327V16.2602C20.5914 16.1002 20.5394 15.9722 20.4354 15.8761C20.3394 15.7721 20.1993 15.7041 20.0153 15.6721L19.0911 15.5281C18.8351 15.4801 18.7071 15.368 18.7071 15.192C18.7071 15.096 18.7391 15.024 18.8031 14.976C18.8751 14.9199 18.9871 14.8919 19.1391 14.8919H23.9161C24.0681 14.8919 24.1761 14.9199 24.2401 14.976C24.3042 15.024 24.3362 15.096 24.3362 15.192C24.3362 15.368 24.2081 15.4801 23.9521 15.5281Z" fill="black"/>
<path d="M36.8828 25.166H44.0722L44.1562 25.9101H36.7508L36.8828 25.166ZM37.7349 31.3952C37.7349 31.4832 37.6989 31.5552 37.6269 31.6113C37.5549 31.6673 37.4429 31.6953 37.2909 31.6953H33.6421C33.4821 31.6953 33.3661 31.6713 33.2941 31.6233C33.2221 31.5672 33.186 31.4952 33.186 31.4072C33.186 31.3352 33.2101 31.2752 33.2581 31.2272C33.3141 31.1792 33.4221 31.1272 33.5821 31.0712L34.1102 30.9151C34.3343 30.8431 34.4983 30.7351 34.6023 30.5911C34.7063 30.439 34.8264 30.163 34.9624 29.7629L39.5473 16.2362C39.6193 16.0122 39.6273 15.8521 39.5713 15.7561C39.5153 15.6521 39.3473 15.5761 39.0672 15.5281C38.8512 15.4881 38.6991 15.44 38.6111 15.384C38.5311 15.328 38.4911 15.26 38.4911 15.18C38.4911 15.084 38.5271 15.012 38.5991 14.964C38.6791 14.9159 38.7952 14.8919 38.9472 14.8919H42.956C43.108 14.8919 43.22 14.9159 43.2921 14.964C43.3641 15.012 43.4001 15.08 43.4001 15.168C43.4001 15.256 43.3601 15.328 43.28 15.384C43.208 15.44 43.068 15.4881 42.86 15.5281C42.6199 15.5601 42.4759 15.6161 42.4279 15.6961C42.3799 15.7681 42.3879 15.8961 42.4519 16.0802L47.2888 30.183C47.3689 30.447 47.4849 30.6431 47.6369 30.7711C47.7969 30.8991 48.029 30.9911 48.333 31.0471C48.5251 31.0872 48.6531 31.1352 48.7171 31.1912C48.7811 31.2392 48.8131 31.3072 48.8131 31.3952C48.8131 31.4832 48.7731 31.5552 48.6931 31.6113C48.6211 31.6673 48.5091 31.6953 48.3571 31.6953H44.1322C43.9882 31.6953 43.8762 31.6673 43.7962 31.6113C43.7241 31.5552 43.6881 31.4832 43.6881 31.3952C43.6881 31.3152 43.7201 31.2512 43.7841 31.2032C43.8482 31.1472 43.9482 31.1032 44.0842 31.0712L45.0684 30.9631C45.2764 30.9311 45.3885 30.8551 45.4045 30.7351C45.4205 30.6151 45.3845 30.423 45.2964 30.159L40.3515 15.6601L40.6515 15.5521L35.8746 29.7029C35.7946 29.9589 35.7546 30.171 35.7546 30.339C35.7626 30.499 35.8186 30.6271 35.9226 30.7231C36.0266 30.8111 36.1866 30.8831 36.4027 30.9391L37.3389 31.0832C37.4829 31.1152 37.5829 31.1552 37.6389 31.2032C37.7029 31.2432 37.7349 31.3072 37.7349 31.3952Z" fill="black"/>
<path d="M58.2915 32.0793C57.5313 32.0793 56.8792 31.9793 56.3351 31.7793C55.799 31.5792 55.3669 31.3832 55.0388 31.1912C54.7188 30.9991 54.5027 30.9031 54.3907 30.9031C54.2707 30.9031 54.1827 30.9631 54.1266 31.0832C54.0786 31.1952 54.0346 31.3312 53.9946 31.4912C53.9626 31.6433 53.9146 31.7753 53.8506 31.8873C53.7946 32.0073 53.7066 32.0673 53.5865 32.0673C53.4905 32.0673 53.4145 32.0353 53.3585 31.9713C53.3025 31.9073 53.2585 31.8113 53.2265 31.6833L52.2663 27.9625C52.2423 27.8505 52.2503 27.7545 52.2903 27.6745C52.3383 27.5865 52.4143 27.5224 52.5183 27.4824C52.6303 27.4504 52.7264 27.4584 52.8064 27.5064C52.8944 27.5464 52.9664 27.6305 53.0224 27.7585C53.4225 28.5987 53.8986 29.2828 54.4507 29.8109C55.0108 30.339 55.6109 30.7271 56.2511 30.9751C56.8992 31.2232 57.5593 31.3472 58.2315 31.3472C59.1996 31.3472 59.9518 31.0792 60.4879 30.543C61.032 29.9989 61.3081 29.2948 61.3161 28.4306C61.3241 27.9025 61.208 27.4104 60.968 26.9543C60.7359 26.4902 60.2999 26.0422 59.6597 25.6101C59.0196 25.178 58.0954 24.7459 56.8872 24.3138C55.703 23.8897 54.7548 23.4216 54.0426 22.9095C53.3305 22.3974 52.8144 21.8253 52.4943 21.1932C52.1743 20.5531 52.0142 19.8369 52.0142 19.0448C52.0142 18.1406 52.2223 17.3524 52.6383 16.6803C53.0544 16.0082 53.6345 15.4921 54.3787 15.132C55.1228 14.7639 55.975 14.5799 56.9352 14.5799C57.7274 14.5799 58.3635 14.6719 58.8436 14.8559C59.3317 15.04 59.7157 15.224 59.9958 15.408C60.2759 15.5921 60.4959 15.6841 60.6559 15.6841C60.816 15.6841 60.912 15.5961 60.944 15.42C60.984 15.236 61.024 15.052 61.064 14.8679C61.104 14.6759 61.208 14.5799 61.3761 14.5799C61.4721 14.5799 61.5481 14.6119 61.6041 14.6759C61.6681 14.7319 61.7241 14.8399 61.7722 15L62.9724 18.9127C63.0044 19.0328 63.0004 19.1448 62.9604 19.2488C62.9204 19.3528 62.8484 19.4208 62.7444 19.4528C62.6323 19.4849 62.5323 19.4808 62.4443 19.4408C62.3563 19.3928 62.2803 19.3088 62.2162 19.1888C61.7522 18.2286 61.2481 17.4644 60.7039 16.8963C60.1598 16.3282 59.5797 15.9201 58.9636 15.6721C58.3475 15.416 57.6993 15.288 57.0192 15.288C56.003 15.288 55.1869 15.5801 54.5707 16.1642C53.9626 16.7483 53.6586 17.5245 53.6586 18.4927C53.6586 19.0448 53.7826 19.5649 54.0306 20.053C54.2787 20.5411 54.7148 21.0092 55.3389 21.4572C55.963 21.8973 56.8432 22.3294 57.9794 22.7535C59.2277 23.2256 60.2118 23.7177 60.932 24.2298C61.6521 24.7339 62.1642 25.286 62.4683 25.8861C62.7804 26.4862 62.9324 27.1544 62.9244 27.8905C62.9164 28.6507 62.7323 29.3508 62.3723 29.9909C62.0202 30.6231 61.5001 31.1312 60.812 31.5152C60.1318 31.8913 59.2917 32.0793 58.2915 32.0793Z" fill="black"/>
<path d="M73.6386 32.0793C72.8784 32.0793 72.2263 31.9793 71.6822 31.7793C71.1461 31.5792 70.714 31.3832 70.3859 31.1912C70.0659 30.9991 69.8498 30.9031 69.7378 30.9031C69.6178 30.9031 69.5298 30.9631 69.4737 31.0832C69.4257 31.1952 69.3817 31.3312 69.3417 31.4912C69.3097 31.6433 69.2617 31.7753 69.1977 31.8873C69.1417 32.0073 69.0537 32.0673 68.9336 32.0673C68.8376 32.0673 68.7616 32.0353 68.7056 31.9713C68.6496 31.9073 68.6056 31.8113 68.5736 31.6833L67.6134 27.9625C67.5894 27.8505 67.5974 27.7545 67.6374 27.6745C67.6854 27.5865 67.7614 27.5224 67.8654 27.4824C67.9774 27.4504 68.0735 27.4584 68.1535 27.5064C68.2415 27.5464 68.3135 27.6305 68.3695 27.7585C68.7696 28.5987 69.2457 29.2828 69.7978 29.8109C70.3579 30.339 70.958 30.7271 71.5982 30.9751C72.2463 31.2232 72.9064 31.3472 73.5786 31.3472C74.5468 31.3472 75.2989 31.0792 75.835 30.543C76.3791 29.9989 76.6552 29.2948 76.6632 28.4306C76.6712 27.9025 76.5551 27.4104 76.3151 26.9543C76.0831 26.4902 75.647 26.0422 75.0068 25.6101C74.3667 25.178 73.4425 24.7459 72.2343 24.3138C71.0501 23.8897 70.1019 23.4216 69.3897 22.9095C68.6776 22.3974 68.1615 21.8253 67.8414 21.1932C67.5214 20.5531 67.3613 19.8369 67.3613 19.0448C67.3613 18.1406 67.5694 17.3524 67.9855 16.6803C68.4015 16.0082 68.9817 15.4921 69.7258 15.132C70.4699 14.7639 71.3221 14.5799 72.2823 14.5799C73.0745 14.5799 73.7106 14.6719 74.1907 14.8559C74.6788 15.04 75.0629 15.224 75.3429 15.408C75.623 15.5921 75.843 15.6841 76.003 15.6841C76.1631 15.6841 76.2591 15.5961 76.2911 15.42C76.3311 15.236 76.3711 15.052 76.4111 14.8679C76.4511 14.6759 76.5551 14.5799 76.7232 14.5799C76.8192 14.5799 76.8952 14.6119 76.9512 14.6759C77.0152 14.7319 77.0713 14.8399 77.1193 15L78.3195 18.9127C78.3515 19.0328 78.3475 19.1448 78.3075 19.2488C78.2675 19.3528 78.1955 19.4208 78.0915 19.4528C77.9794 19.4849 77.8794 19.4808 77.7914 19.4408C77.7034 19.3928 77.6274 19.3088 77.5633 19.1888C77.0993 18.2286 76.5952 17.4644 76.0511 16.8963C75.5069 16.3282 74.9268 15.9201 74.3107 15.6721C73.6946 15.416 73.0465 15.288 72.3663 15.288C71.3501 15.288 70.534 15.5801 69.9178 16.1642C69.3097 16.7483 69.0057 17.5245 69.0057 18.4927C69.0057 19.0448 69.1297 19.5649 69.3777 20.053C69.6258 20.5411 70.0619 21.0092 70.686 21.4572C71.3101 21.8973 72.1903 22.3294 73.3265 22.7535C74.5748 23.2256 75.5589 23.7177 76.2791 24.2298C76.9992 24.7339 77.5113 25.286 77.8154 25.8861C78.1275 26.4862 78.2795 27.1544 78.2715 27.8905C78.2635 28.6507 78.0795 29.3508 77.7194 29.9909C77.3673 30.6231 76.8472 31.1312 76.1591 31.5152C75.4789 31.8913 74.6388 32.0793 73.6386 32.0793Z" fill="black"/>
<path d="M86.4892 30.327C86.4892 30.487 86.5412 30.6191 86.6452 30.7231C86.7492 30.8191 86.8933 30.8831 87.0773 30.9151L87.9895 31.0591C88.2455 31.1072 88.3736 31.2192 88.3736 31.3952C88.3736 31.4832 88.3416 31.5552 88.2775 31.6113C88.2135 31.6673 88.1055 31.6953 87.9535 31.6953H83.1765C83.0245 31.6953 82.9125 31.6673 82.8405 31.6113C82.7764 31.5552 82.7444 31.4832 82.7444 31.3952C82.7444 31.2192 82.8725 31.1072 83.1285 31.0591L84.0527 30.9151C84.2367 30.8831 84.3768 30.8191 84.4728 30.7231C84.5768 30.6191 84.6288 30.487 84.6288 30.327V16.2602C84.6288 16.1002 84.5768 15.9722 84.4728 15.8761C84.3768 15.7721 84.2367 15.7041 84.0527 15.6721L83.1285 15.5281C82.8725 15.4801 82.7444 15.368 82.7444 15.192C82.7444 15.096 82.7764 15.024 82.8405 14.976C82.9125 14.9199 83.0245 14.8919 83.1765 14.8919H87.9535C88.1055 14.8919 88.2135 14.9199 88.2775 14.976C88.3416 15.024 88.3736 15.096 88.3736 15.192C88.3736 15.368 88.2455 15.4801 87.9895 15.5281L87.0773 15.6721C86.8933 15.7041 86.7492 15.7721 86.6452 15.8761C86.5412 15.9722 86.4892 16.1002 86.4892 16.2602V30.327Z" fill="black"/>
<path d="M107.015 27.6625C107.007 28.1666 106.859 28.6787 106.571 29.1988C106.283 29.7189 105.867 30.199 105.322 30.6391C104.786 31.0791 104.13 31.4352 103.354 31.7073C102.586 31.9793 101.706 32.1153 100.714 32.1153C99.0492 32.1153 97.6129 31.7433 96.4046 30.9991C95.1964 30.247 94.2642 29.2188 93.6081 27.9145C92.96 26.6103 92.6359 25.11 92.6359 23.4136C92.6359 22.1254 92.8279 20.9411 93.212 19.8609C93.5961 18.7807 94.1362 17.8405 94.8323 17.0404C95.5365 16.2402 96.3606 15.6241 97.3048 15.192C98.257 14.7519 99.2932 14.5319 100.413 14.5319C101.278 14.5319 101.978 14.6239 102.514 14.8079C103.058 14.992 103.478 15.18 103.774 15.372C104.078 15.5561 104.294 15.6481 104.422 15.6481C104.598 15.6481 104.714 15.5721 104.77 15.42C104.834 15.26 104.898 15.104 104.962 14.9519C105.026 14.7999 105.138 14.7239 105.298 14.7239C105.386 14.7239 105.458 14.7519 105.514 14.8079C105.578 14.8559 105.63 14.9439 105.67 15.072L106.967 19.0928C107.015 19.2208 107.011 19.3328 106.955 19.4288C106.899 19.5169 106.807 19.5689 106.679 19.5849C106.575 19.5929 106.479 19.5729 106.391 19.5249C106.311 19.4768 106.243 19.3968 106.187 19.2848C105.731 18.3326 105.226 17.5605 104.674 16.9683C104.122 16.3762 103.502 15.9441 102.814 15.6721C102.134 15.392 101.366 15.252 100.509 15.252C99.6613 15.252 98.8731 15.432 98.145 15.7921C97.4169 16.1522 96.7807 16.6683 96.2366 17.3404C95.7005 18.0126 95.2804 18.8167 94.9764 19.7529C94.6803 20.6891 94.5323 21.7333 94.5323 22.8855C94.5323 24.5739 94.8243 26.0261 95.4085 27.2424C96.0006 28.4506 96.8007 29.3748 97.8089 30.0149C98.8171 30.6551 99.9534 30.9751 101.218 30.9751C102.522 30.9751 103.61 30.6831 104.482 30.099C105.362 29.5148 106.007 28.7147 106.415 27.6985C106.471 27.5865 106.531 27.5104 106.595 27.4704C106.659 27.4224 106.727 27.4024 106.799 27.4104C106.871 27.4104 106.923 27.4344 106.955 27.4824C106.995 27.5224 107.015 27.5825 107.015 27.6625Z" fill="black"/>
<path d="M117.218 32.0793C116.458 32.0793 115.806 31.9793 115.262 31.7793C114.726 31.5792 114.294 31.3832 113.966 31.1912C113.646 30.9991 113.43 30.9031 113.318 30.9031C113.198 30.9031 113.11 30.9631 113.054 31.0832C113.006 31.1952 112.962 31.3312 112.922 31.4912C112.89 31.6433 112.842 31.7753 112.778 31.8873C112.722 32.0073 112.634 32.0673 112.514 32.0673C112.418 32.0673 112.341 32.0353 112.285 31.9713C112.229 31.9073 112.185 31.8113 112.153 31.6833L111.193 27.9625C111.169 27.8505 111.177 27.7545 111.217 27.6745C111.265 27.5865 111.341 27.5224 111.445 27.4824C111.557 27.4504 111.653 27.4584 111.733 27.5064C111.821 27.5464 111.893 27.6305 111.949 27.7585C112.35 28.5987 112.826 29.2828 113.378 29.8109C113.938 30.339 114.538 30.7271 115.178 30.9751C115.826 31.2232 116.486 31.3472 117.158 31.3472C118.127 31.3472 118.879 31.0792 119.415 30.543C119.959 29.9989 120.235 29.2948 120.243 28.4306C120.251 27.9025 120.135 27.4104 119.895 26.9543C119.663 26.4902 119.227 26.0422 118.587 25.6101C117.947 25.178 117.022 24.7459 115.814 24.3138C114.63 23.8897 113.682 23.4216 112.97 22.9095C112.257 22.3974 111.741 21.8253 111.421 21.1932C111.101 20.5531 110.941 19.8369 110.941 19.0448C110.941 18.1406 111.149 17.3524 111.565 16.6803C111.981 16.0082 112.562 15.4921 113.306 15.132C114.05 14.7639 114.902 14.5799 115.862 14.5799C116.654 14.5799 117.29 14.6719 117.771 14.8559C118.259 15.04 118.643 15.224 118.923 15.408C119.203 15.5921 119.423 15.6841 119.583 15.6841C119.743 15.6841 119.839 15.5961 119.871 15.42C119.911 15.236 119.951 15.052 119.991 14.8679C120.031 14.6759 120.135 14.5799 120.303 14.5799C120.399 14.5799 120.475 14.6119 120.531 14.6759C120.595 14.7319 120.651 14.8399 120.699 15L121.899 18.9127C121.931 19.0328 121.927 19.1448 121.887 19.2488C121.847 19.3528 121.775 19.4208 121.671 19.4528C121.559 19.4849 121.459 19.4808 121.371 19.4408C121.283 19.3928 121.207 19.3088 121.143 19.1888C120.679 18.2286 120.175 17.4644 119.631 16.8963C119.087 16.3282 118.507 15.9201 117.891 15.6721C117.274 15.416 116.626 15.288 115.946 15.288C114.93 15.288 114.114 15.5801 113.498 16.1642C112.89 16.7483 112.586 17.5245 112.586 18.4927C112.586 19.0448 112.71 19.5649 112.958 20.053C113.206 20.5411 113.642 21.0092 114.266 21.4572C114.89 21.8973 115.77 22.3294 116.906 22.7535C118.155 23.2256 119.139 23.7177 119.859 24.2298C120.579 24.7339 121.091 25.286 121.395 25.8861C121.707 26.4862 121.859 27.1544 121.851 27.8905C121.843 28.6507 121.659 29.3508 121.299 29.9909C120.947 30.6231 120.427 31.1312 119.739 31.5152C119.059 31.8913 118.219 32.0793 117.218 32.0793Z" fill="black"/>
<path d="M55.8044 3.2356L57.4219 0L59.0394 3.2356L62.2756 4.8537L59.0394 6.47181L57.4219 9.70741L55.8044 6.47181L52.5682 4.8537L55.8044 3.2356Z" fill="#D4564C"/>
<path d="M55.8044 3.2356L57.4219 0L59.0394 3.2356L62.2756 4.8537L59.0394 6.47181L57.4219 9.70741L55.8044 6.47181L52.5682 4.8537L55.8044 3.2356Z" fill="#D4564C"/>
<path d="M55.2788 4.85327L54.1346 1.42162L57.5663 2.56579L60.9988 1.42162L59.8546 4.85413L60.9988 8.28579L57.5671 7.14162L54.1346 8.28579L55.2788 4.85327Z" fill="#D4564C"/>
<path d="M56.394 5.33347L54.8883 3.69081L57.1381 3.72393L58.544 2.23866L58.7317 4.40334L60.21 5.89603L57.9136 5.99549L56.3449 7.56357L56.394 5.33347Z" fill="#E7E7E7"/>
</svg>
