<svg width="134" height="31" viewBox="0 0 134 31" fill="none" xmlns="http://www.w3.org/2000/svg">
<path d="M31.626 3.21C31.626 3.722 31.496 4.168 31.236 4.548C30.976 4.924 30.61 5.216 30.138 5.424C29.67 5.628 29.124 5.73 28.5 5.73C28.076 5.73 27.684 5.688 27.324 5.604C26.964 5.516 26.654 5.392 26.394 5.232L26.472 4.788C26.616 4.884 26.778 4.966 26.958 5.034C27.142 5.098 27.336 5.148 27.54 5.184C27.744 5.216 27.952 5.232 28.164 5.232C28.572 5.232 28.93 5.152 29.238 4.992C29.55 4.828 29.792 4.592 29.964 4.284C30.14 3.976 30.228 3.606 30.228 3.174C30.228 2.674 30.122 2.238 29.91 1.866C29.698 1.49 29.398 1.198 29.01 0.99C28.626 0.782 28.166 0.678 27.63 0.678H26.994V7.74C26.994 7.828 27.018 7.9 27.066 7.956C27.118 8.012 27.194 8.048 27.294 8.064L27.9 8.136C27.988 8.148 28.05 8.174 28.086 8.214C28.126 8.254 28.146 8.31 28.146 8.382C28.146 8.446 28.122 8.498 28.074 8.538C28.03 8.578 27.956 8.598 27.852 8.598H24.972C24.872 8.598 24.798 8.578 24.75 8.538C24.702 8.498 24.678 8.446 24.678 8.382C24.678 8.262 24.754 8.18 24.906 8.136L25.302 8.064C25.398 8.04 25.47 8.002 25.518 7.95C25.57 7.898 25.596 7.828 25.596 7.74V1.056C25.596 0.968 25.57 0.898 25.518 0.846C25.47 0.794 25.398 0.756 25.302 0.732L24.906 0.66C24.754 0.62 24.678 0.538 24.678 0.414C24.678 0.346 24.702 0.294 24.75 0.258C24.798 0.218 24.872 0.198 24.972 0.198H27.666C28.498 0.198 29.208 0.328 29.796 0.588C30.384 0.848 30.836 1.204 31.152 1.656C31.468 2.108 31.626 2.626 31.626 3.21Z" fill="white"/>
<path d="M39.8824 5.064L39.6724 1.236C39.6644 1.088 39.6244 0.974 39.5524 0.894C39.4804 0.814 39.3644 0.758 39.2044 0.726L38.8744 0.666C38.7624 0.638 38.6864 0.604 38.6464 0.564C38.6064 0.524 38.5864 0.474 38.5864 0.414C38.5864 0.35 38.6124 0.298 38.6644 0.258C38.7164 0.218 38.7864 0.198 38.8744 0.198H41.0104C41.1064 0.198 41.1784 0.218 41.2264 0.258C41.2784 0.298 41.3044 0.35 41.3044 0.414C41.3044 0.478 41.2824 0.53 41.2384 0.57C41.1984 0.61 41.1244 0.642 41.0164 0.666L40.7044 0.714C40.5204 0.754 40.3944 0.82 40.3264 0.912C40.2624 1.004 40.2344 1.122 40.2424 1.266L40.4584 5.076C40.4704 5.276 40.4804 5.472 40.4884 5.664C40.5004 5.856 40.5104 6.056 40.5184 6.264C40.5344 6.756 40.4284 7.194 40.2004 7.578C39.9724 7.958 39.6264 8.258 39.1624 8.478C38.7024 8.694 38.1244 8.802 37.4284 8.802C36.6924 8.802 36.0744 8.698 35.5744 8.49C35.0784 8.282 34.7064 7.99 34.4584 7.614C34.2104 7.234 34.0924 6.79 34.1044 6.282C34.1084 6.174 34.1144 6.038 34.1224 5.874C34.1304 5.71 34.1404 5.532 34.1524 5.34C34.1644 5.144 34.1744 4.944 34.1824 4.74L34.3804 1.104C34.3884 0.988 34.3604 0.902 34.2964 0.846C34.2324 0.786 34.1304 0.744 33.9904 0.72L33.6544 0.666C33.4624 0.626 33.3664 0.544 33.3664 0.42C33.3664 0.352 33.3924 0.298 33.4444 0.258C33.4964 0.218 33.5684 0.198 33.6604 0.198H36.4984C36.5944 0.198 36.6664 0.218 36.7144 0.258C36.7664 0.298 36.7924 0.352 36.7924 0.42C36.7924 0.48 36.7704 0.53 36.7264 0.57C36.6864 0.61 36.6124 0.64 36.5044 0.66L36.1624 0.72C36.0384 0.744 35.9464 0.784 35.8864 0.84C35.8304 0.892 35.7984 0.976 35.7904 1.092L35.5924 4.722C35.5764 5.014 35.5644 5.278 35.5564 5.514C35.5484 5.75 35.5404 5.966 35.5324 6.162C35.5164 6.858 35.7024 7.378 36.0904 7.722C36.4784 8.066 37.0184 8.238 37.7104 8.238C38.1824 8.238 38.5864 8.16 38.9224 8.004C39.2584 7.844 39.5144 7.618 39.6904 7.326C39.8704 7.03 39.9524 6.676 39.9364 6.264C39.9284 5.992 39.9204 5.764 39.9124 5.58C39.9044 5.396 39.8944 5.224 39.8824 5.064Z" fill="white"/>
<path d="M50.4081 6.57C50.4081 7.166 50.1521 7.654 49.6401 8.034C49.1281 8.41 48.3701 8.598 47.3661 8.598H43.5561C43.4561 8.598 43.3821 8.578 43.3341 8.538C43.2861 8.498 43.2621 8.446 43.2621 8.382C43.2621 8.258 43.3381 8.176 43.4901 8.136L43.8861 8.064C43.9821 8.04 44.0561 8.002 44.1081 7.95C44.1601 7.898 44.1861 7.828 44.1861 7.74V1.056C44.1861 0.968 44.1601 0.898 44.1081 0.846C44.0561 0.794 43.9821 0.756 43.8861 0.732L43.4901 0.66C43.3381 0.62 43.2621 0.538 43.2621 0.414C43.2621 0.346 43.2861 0.294 43.3341 0.258C43.3821 0.218 43.4561 0.198 43.5561 0.198H46.5261C47.2501 0.198 47.8661 0.3 48.3741 0.504C48.8821 0.704 49.2681 0.984 49.5321 1.344C49.7961 1.7 49.9281 2.116 49.9281 2.592C49.9281 2.992 49.8181 3.352 49.5981 3.672C49.3821 3.992 49.0561 4.246 48.6201 4.434C48.1841 4.622 47.6401 4.716 46.9881 4.716L47.3541 4.548C47.9821 4.548 48.5241 4.636 48.9801 4.812C49.4361 4.984 49.7881 5.222 50.0361 5.526C50.2841 5.83 50.4081 6.178 50.4081 6.57ZM46.8201 4.878H45.1761V4.47H46.7301C47.1221 4.47 47.4541 4.398 47.7261 4.254C47.9981 4.11 48.2061 3.902 48.3501 3.63C48.4941 3.358 48.5661 3.032 48.5661 2.652C48.5661 2.252 48.4801 1.902 48.3081 1.602C48.1401 1.302 47.8881 1.068 47.5521 0.9C47.2201 0.732 46.8121 0.648 46.3281 0.648H45.5841V7.62C45.5841 7.796 45.6421 7.928 45.7581 8.016C45.8741 8.104 46.0501 8.148 46.2861 8.148H47.0841C47.5041 8.148 47.8541 8.08 48.1341 7.944C48.4141 7.808 48.6241 7.62 48.7641 7.38C48.9081 7.136 48.9801 6.856 48.9801 6.54C48.9801 6.044 48.7981 5.644 48.4341 5.34C48.0701 5.032 47.5321 4.878 46.8201 4.878Z" fill="white"/>
<path d="M55.2469 0.66L54.8509 0.732C54.7549 0.756 54.6809 0.794 54.6289 0.846C54.5769 0.898 54.5509 0.968 54.5509 1.056V7.692C54.5509 7.84 54.5969 7.948 54.6889 8.016C54.7849 8.08 54.9309 8.112 55.1269 8.112H56.3929C56.6249 8.112 56.8209 8.082 56.9809 8.022C57.1409 7.962 57.2809 7.856 57.4009 7.704C57.5249 7.552 57.6469 7.338 57.7669 7.062L58.1029 6.252C58.1429 6.172 58.1889 6.116 58.2409 6.084C58.2929 6.052 58.3569 6.044 58.4329 6.06C58.5129 6.076 58.5689 6.112 58.6009 6.168C58.6329 6.22 58.6369 6.294 58.6129 6.39L58.1029 8.484C58.0709 8.6 58.0269 8.686 57.9709 8.742C57.9149 8.798 57.8389 8.826 57.7429 8.826C57.6629 8.826 57.5869 8.806 57.5149 8.766C57.4469 8.73 57.3709 8.692 57.2869 8.652C57.2029 8.616 57.0969 8.598 56.9689 8.598H52.5289C52.4249 8.598 52.3489 8.578 52.3009 8.538C52.2569 8.498 52.2349 8.446 52.2349 8.382C52.2349 8.258 52.3109 8.176 52.4629 8.136L52.8589 8.064C52.9549 8.04 53.0269 8.002 53.0749 7.95C53.1269 7.898 53.1529 7.828 53.1529 7.74V1.056C53.1529 0.968 53.1269 0.898 53.0749 0.846C53.0269 0.794 52.9549 0.756 52.8589 0.732L52.4629 0.66C52.3109 0.62 52.2349 0.538 52.2349 0.414C52.2349 0.346 52.2569 0.294 52.3009 0.258C52.3489 0.218 52.4249 0.198 52.5289 0.198H55.1809C55.2849 0.198 55.3589 0.218 55.4029 0.258C55.4509 0.294 55.4749 0.346 55.4749 0.414C55.4749 0.538 55.3989 0.62 55.2469 0.66Z" fill="white"/>
<path d="M62.7738 7.74C62.7738 7.828 62.7998 7.898 62.8518 7.95C62.9038 8.002 62.9778 8.04 63.0738 8.064L63.4698 8.136C63.6218 8.176 63.6978 8.258 63.6978 8.382C63.6978 8.446 63.6738 8.498 63.6258 8.538C63.5818 8.578 63.5078 8.598 63.4038 8.598H60.7518C60.6478 8.598 60.5718 8.578 60.5238 8.538C60.4798 8.498 60.4578 8.446 60.4578 8.382C60.4578 8.258 60.5338 8.176 60.6858 8.136L61.0818 8.064C61.1778 8.04 61.2498 8.002 61.2978 7.95C61.3498 7.898 61.3758 7.828 61.3758 7.74V1.056C61.3758 0.968 61.3498 0.898 61.2978 0.846C61.2498 0.794 61.1778 0.756 61.0818 0.732L60.6858 0.66C60.5338 0.62 60.4578 0.538 60.4578 0.414C60.4578 0.346 60.4798 0.294 60.5238 0.258C60.5718 0.218 60.6478 0.198 60.7518 0.198H63.4038C63.5078 0.198 63.5818 0.218 63.6258 0.258C63.6738 0.294 63.6978 0.346 63.6978 0.414C63.6978 0.538 63.6218 0.62 63.4698 0.66L63.0738 0.732C62.9778 0.756 62.9038 0.794 62.8518 0.846C62.7998 0.898 62.7738 0.968 62.7738 1.056V7.74Z" fill="white"/>
<path d="M73.1398 6.486C73.1398 6.75 73.0658 7.02 72.9178 7.296C72.7698 7.568 72.5538 7.82 72.2698 8.052C71.9898 8.28 71.6478 8.464 71.2438 8.604C70.8438 8.744 70.3878 8.814 69.8758 8.814C69.0238 8.814 68.2898 8.628 67.6738 8.256C67.0578 7.88 66.5818 7.366 66.2458 6.714C65.9138 6.058 65.7478 5.304 65.7478 4.452C65.7478 3.808 65.8458 3.216 66.0418 2.676C66.2378 2.136 66.5138 1.666 66.8698 1.266C67.2298 0.862 67.6518 0.55 68.1358 0.33C68.6198 0.11 69.1478 0 69.7198 0C70.1358 0 70.4738 0.0440001 70.7338 0.132C70.9938 0.216 71.1958 0.302 71.3398 0.39C71.4878 0.474 71.5998 0.516 71.6758 0.516C71.7718 0.516 71.8398 0.48 71.8798 0.408C71.9238 0.336 71.9658 0.264 72.0058 0.192C72.0498 0.12 72.1198 0.0840003 72.2158 0.0840003C72.2718 0.0840003 72.3198 0.102 72.3598 0.138C72.3998 0.174 72.4318 0.236 72.4558 0.324L73.0978 2.358C73.1258 2.438 73.1198 2.508 73.0798 2.568C73.0438 2.628 72.9858 2.666 72.9058 2.682C72.8298 2.694 72.7618 2.684 72.7018 2.652C72.6418 2.62 72.5938 2.566 72.5578 2.49C72.3338 2.014 72.0878 1.632 71.8198 1.344C71.5518 1.052 71.2558 0.842 70.9318 0.714C70.6078 0.582 70.2498 0.516 69.8578 0.516C69.4698 0.516 69.1098 0.602 68.7778 0.774C68.4498 0.942 68.1638 1.186 67.9198 1.506C67.6798 1.826 67.4918 2.208 67.3558 2.652C67.2238 3.092 67.1578 3.586 67.1578 4.134C67.1578 4.954 67.2938 5.656 67.5658 6.24C67.8378 6.82 68.2078 7.262 68.6758 7.566C69.1438 7.866 69.6758 8.016 70.2718 8.016C70.8598 8.016 71.3618 7.882 71.7778 7.614C72.1938 7.342 72.5098 6.966 72.7258 6.486C72.7618 6.41 72.8018 6.358 72.8458 6.33C72.8898 6.302 72.9398 6.292 72.9958 6.3C73.0438 6.304 73.0798 6.322 73.1038 6.354C73.1278 6.386 73.1398 6.43 73.1398 6.486Z" fill="white"/>
<path d="M78.6166 8.382C78.6166 8.258 78.6926 8.176 78.8446 8.136L79.2406 8.064C79.3366 8.04 79.4086 8.002 79.4566 7.95C79.5086 7.898 79.5346 7.828 79.5346 7.74V1.056C79.5346 0.968 79.5086 0.898 79.4566 0.846C79.4086 0.794 79.3366 0.756 79.2406 0.732L78.8446 0.66C78.6926 0.616 78.6166 0.534 78.6166 0.414C78.6166 0.346 78.6406 0.294 78.6886 0.258C78.7366 0.218 78.8106 0.198 78.9106 0.198H81.8326C82.5806 0.198 83.2586 0.308 83.8666 0.528C84.4786 0.744 85.0046 1.05 85.4446 1.446C85.8846 1.842 86.2226 2.31 86.4586 2.85C86.6946 3.39 86.8126 3.984 86.8126 4.632C86.8126 5.392 86.6366 6.072 86.2846 6.672C85.9366 7.268 85.4306 7.738 84.7666 8.082C84.1066 8.426 83.3066 8.598 82.3666 8.598H78.9106C78.8106 8.598 78.7366 8.578 78.6886 8.538C78.6406 8.498 78.6166 8.446 78.6166 8.382ZM82.2706 8.112C82.9066 8.112 83.4526 7.978 83.9086 7.71C84.3686 7.442 84.7226 7.046 84.9706 6.522C85.2226 5.998 85.3486 5.356 85.3486 4.596C85.3486 4 85.2626 3.462 85.0906 2.982C84.9226 2.502 84.6766 2.092 84.3526 1.752C84.0326 1.408 83.6466 1.144 83.1946 0.960001C82.7426 0.776 82.2346 0.684 81.6706 0.684H80.9326V7.608C80.9326 7.784 80.9866 7.912 81.0946 7.992C81.2026 8.072 81.3646 8.112 81.5806 8.112H82.2706Z" fill="white"/>
<path d="M92.9113 0C93.5473 0 94.1253 0.11 94.6453 0.33C95.1653 0.546 95.6113 0.854 95.9833 1.254C96.3593 1.65 96.6473 2.12 96.8473 2.664C97.0513 3.208 97.1533 3.804 97.1533 4.452C97.1533 5.088 97.0533 5.672 96.8533 6.204C96.6533 6.736 96.3653 7.198 95.9893 7.59C95.6173 7.978 95.1713 8.28 94.6513 8.496C94.1353 8.708 93.5593 8.814 92.9233 8.814C92.2953 8.814 91.7233 8.706 91.2073 8.49C90.6913 8.27 90.2453 7.962 89.8693 7.566C89.4973 7.166 89.2093 6.694 89.0053 6.15C88.8053 5.606 88.7053 5.008 88.7053 4.356C88.7053 3.72 88.8053 3.138 89.0053 2.61C89.2053 2.078 89.4913 1.618 89.8633 1.23C90.2353 0.838 90.6793 0.536 91.1953 0.324C91.7113 0.108 92.2833 0 92.9113 0ZM95.7193 5.232C95.7193 4.704 95.6653 4.204 95.5573 3.732C95.4533 3.26 95.3053 2.83 95.1133 2.442C94.9253 2.05 94.7013 1.712 94.4413 1.428C94.1813 1.14 93.8953 0.918 93.5833 0.762C93.2713 0.606 92.9413 0.528 92.5933 0.528C92.1093 0.528 91.6833 0.652 91.3153 0.9C90.9513 1.144 90.6673 1.494 90.4633 1.95C90.2593 2.402 90.1573 2.946 90.1573 3.582C90.1573 4.114 90.2093 4.618 90.3133 5.094C90.4173 5.566 90.5633 5.998 90.7513 6.39C90.9433 6.778 91.1673 7.116 91.4233 7.404C91.6833 7.688 91.9693 7.908 92.2813 8.064C92.5933 8.22 92.9213 8.298 93.2653 8.298C93.7573 8.298 94.1853 8.176 94.5493 7.932C94.9173 7.684 95.2033 7.332 95.4073 6.876C95.6153 6.416 95.7193 5.868 95.7193 5.232Z" fill="white"/>
<path d="M104.22 6.636L103.734 6.864L106.224 0.624C106.284 0.468 106.356 0.358 106.44 0.294C106.528 0.23 106.646 0.198 106.794 0.198H108.216C108.32 0.198 108.398 0.218 108.45 0.258C108.502 0.294 108.528 0.346 108.528 0.414C108.528 0.47 108.51 0.518 108.474 0.558C108.438 0.598 108.376 0.63 108.288 0.654L107.946 0.738C107.802 0.774 107.704 0.828 107.652 0.9C107.6 0.972 107.582 1.096 107.598 1.272L108.084 7.65C108.092 7.782 108.122 7.876 108.174 7.932C108.23 7.984 108.324 8.026 108.456 8.058L108.786 8.142C108.866 8.162 108.924 8.192 108.96 8.232C108.996 8.268 109.014 8.314 109.014 8.37C109.014 8.434 108.988 8.488 108.936 8.532C108.888 8.576 108.812 8.598 108.708 8.598H106.056C105.956 8.598 105.88 8.578 105.828 8.538C105.776 8.498 105.75 8.446 105.75 8.382C105.75 8.326 105.768 8.278 105.804 8.238C105.84 8.198 105.902 8.166 105.99 8.142L106.326 8.058C106.478 8.022 106.58 7.976 106.632 7.92C106.684 7.86 106.706 7.77 106.698 7.65L106.176 1.182L106.632 1.158L103.992 7.8C103.94 7.944 103.884 8.038 103.824 8.082C103.768 8.126 103.702 8.148 103.626 8.148C103.566 8.148 103.512 8.14 103.464 8.124C103.42 8.104 103.378 8.07 103.338 8.022C103.298 7.97 103.256 7.89 103.212 7.782L100.548 1.308L100.986 1.086L100.434 7.494C100.418 7.654 100.45 7.774 100.53 7.854C100.61 7.934 100.728 8.002 100.884 8.058L101.238 8.16C101.298 8.184 101.346 8.212 101.382 8.244C101.418 8.276 101.436 8.32 101.436 8.376C101.436 8.44 101.41 8.494 101.358 8.538C101.31 8.578 101.234 8.598 101.13 8.598H99.1684C99.0644 8.598 98.9863 8.578 98.9343 8.538C98.8863 8.498 98.8624 8.446 98.8624 8.382C98.8624 8.314 98.8844 8.262 98.9284 8.226C98.9764 8.19 99.0383 8.16 99.1143 8.136L99.4083 8.046C99.5523 8.006 99.6604 7.944 99.7324 7.86C99.8084 7.776 99.8544 7.652 99.8704 7.488L100.41 1.29C100.426 1.13 100.404 1.008 100.344 0.924C100.284 0.836 100.182 0.774 100.038 0.738L99.7204 0.672C99.6284 0.648 99.5624 0.616 99.5224 0.576C99.4864 0.536 99.4684 0.486 99.4684 0.426C99.4684 0.274 99.5723 0.198 99.7803 0.198H101.184C101.324 0.198 101.436 0.226 101.52 0.282C101.604 0.334 101.678 0.44 101.742 0.6L104.22 6.636Z" fill="white"/>
<path d="M112.253 5.256H115.835L115.871 5.766H112.193L112.253 5.256ZM112.829 8.382C112.829 8.446 112.805 8.498 112.757 8.538C112.709 8.578 112.633 8.598 112.529 8.598H110.669C110.565 8.598 110.487 8.58 110.435 8.544C110.387 8.504 110.363 8.45 110.363 8.382C110.363 8.334 110.377 8.294 110.405 8.262C110.437 8.226 110.497 8.19 110.585 8.154L110.813 8.076C110.929 8.028 111.015 7.962 111.071 7.878C111.131 7.794 111.197 7.64 111.269 7.416L113.375 1.116C113.423 0.972 113.433 0.87 113.405 0.81C113.381 0.746 113.299 0.696 113.159 0.66C113.047 0.628 112.969 0.594 112.925 0.558C112.881 0.518 112.859 0.468 112.859 0.408C112.859 0.34 112.883 0.288 112.931 0.252C112.983 0.216 113.061 0.198 113.165 0.198H115.649C115.753 0.198 115.829 0.216 115.877 0.252C115.925 0.288 115.949 0.34 115.949 0.408C115.949 0.468 115.927 0.518 115.883 0.558C115.843 0.598 115.771 0.63 115.667 0.654C115.551 0.678 115.481 0.716 115.457 0.768C115.437 0.816 115.447 0.896 115.487 1.008L117.713 7.584C117.765 7.752 117.827 7.876 117.899 7.956C117.975 8.036 118.085 8.092 118.229 8.124C118.337 8.16 118.409 8.196 118.445 8.232C118.485 8.268 118.505 8.318 118.505 8.382C118.505 8.446 118.479 8.498 118.427 8.538C118.375 8.578 118.299 8.598 118.199 8.598H115.811C115.711 8.598 115.635 8.578 115.583 8.538C115.535 8.498 115.511 8.446 115.511 8.382C115.511 8.326 115.529 8.28 115.565 8.244C115.601 8.208 115.661 8.178 115.745 8.154L116.165 8.088C116.269 8.064 116.321 8.02 116.321 7.956C116.325 7.888 116.303 7.782 116.255 7.638L113.957 0.756L114.137 0.672L111.911 7.356C111.863 7.5 111.839 7.62 111.839 7.716C111.839 7.808 111.867 7.882 111.923 7.938C111.983 7.994 112.075 8.044 112.199 8.088L112.595 8.16C112.675 8.184 112.733 8.212 112.769 8.244C112.809 8.276 112.829 8.322 112.829 8.382Z" fill="white"/>
<path d="M122.572 7.74C122.572 7.828 122.598 7.898 122.65 7.95C122.702 8.002 122.776 8.04 122.872 8.064L123.268 8.136C123.42 8.176 123.496 8.258 123.496 8.382C123.496 8.446 123.472 8.498 123.424 8.538C123.38 8.578 123.306 8.598 123.202 8.598H120.55C120.446 8.598 120.37 8.578 120.322 8.538C120.278 8.498 120.256 8.446 120.256 8.382C120.256 8.258 120.332 8.176 120.484 8.136L120.88 8.064C120.976 8.04 121.048 8.002 121.096 7.95C121.148 7.898 121.174 7.828 121.174 7.74V1.056C121.174 0.968 121.148 0.898 121.096 0.846C121.048 0.794 120.976 0.756 120.88 0.732L120.484 0.66C120.332 0.62 120.256 0.538 120.256 0.414C120.256 0.346 120.278 0.294 120.322 0.258C120.37 0.218 120.446 0.198 120.55 0.198H123.202C123.306 0.198 123.38 0.218 123.424 0.258C123.472 0.294 123.496 0.346 123.496 0.414C123.496 0.538 123.42 0.62 123.268 0.66L122.872 0.732C122.776 0.756 122.702 0.794 122.65 0.846C122.598 0.898 122.572 0.968 122.572 1.056V7.74Z" fill="white"/>
<path d="M128.246 8.382C128.246 8.446 128.22 8.498 128.168 8.538C128.12 8.578 128.044 8.598 127.94 8.598H125.894C125.79 8.598 125.712 8.578 125.66 8.538C125.612 8.498 125.588 8.446 125.588 8.382C125.588 8.274 125.664 8.192 125.816 8.136L126.17 8.046C126.354 7.986 126.476 7.92 126.536 7.848C126.6 7.776 126.632 7.656 126.632 7.488V1.926C126.632 1.81 126.616 1.712 126.584 1.632C126.552 1.548 126.474 1.432 126.35 1.284L125.822 0.648C125.766 0.58 125.728 0.528 125.708 0.492C125.692 0.452 125.684 0.414 125.684 0.378C125.684 0.318 125.704 0.274 125.744 0.246C125.788 0.214 125.846 0.198 125.918 0.198H126.95C127.054 0.198 127.14 0.216 127.208 0.252C127.276 0.288 127.348 0.356 127.424 0.456L132.476 6.972L132.23 7.5V1.308C132.23 1.144 132.2 1.026 132.14 0.954C132.084 0.878 131.96 0.81 131.768 0.75L131.408 0.66C131.256 0.6 131.18 0.518 131.18 0.414C131.18 0.346 131.206 0.294 131.258 0.258C131.31 0.218 131.386 0.198 131.486 0.198H133.532C133.636 0.198 133.714 0.218 133.766 0.258C133.818 0.294 133.844 0.346 133.844 0.414C133.844 0.522 133.766 0.604 133.61 0.66L133.256 0.75C133.072 0.806 132.948 0.872 132.884 0.948C132.824 1.02 132.794 1.14 132.794 1.308V7.116C132.794 7.228 132.804 7.324 132.824 7.404C132.848 7.48 132.886 7.552 132.938 7.62L133.31 8.094C133.37 8.174 133.408 8.236 133.424 8.28C133.44 8.32 133.448 8.36 133.448 8.4C133.448 8.46 133.426 8.508 133.382 8.544C133.342 8.58 133.278 8.598 133.19 8.598H131.972C131.816 8.598 131.738 8.534 131.738 8.406C131.738 8.346 131.726 8.29 131.702 8.238C131.682 8.186 131.618 8.09 131.51 7.95L126.758 1.8L127.196 1.464V7.494C127.196 7.65 127.226 7.766 127.286 7.842C127.346 7.914 127.47 7.982 127.658 8.046L128.018 8.136C128.17 8.192 128.246 8.274 128.246 8.382Z" fill="white"/>
<path d="M37.8024 26.0196C37.7953 26.4669 37.6639 26.9213 37.4083 27.3828C37.1527 27.8443 36.7835 28.2703 36.3007 28.6608C35.825 29.0513 35.2428 29.3673 34.5541 29.6087C33.8725 29.8501 33.0915 29.9708 32.2111 29.9708C30.7343 29.9708 29.4599 29.6406 28.3878 28.9803C27.3157 28.3129 26.4885 27.4006 25.9063 26.2432C25.3312 25.086 25.0437 23.7547 25.0437 22.2495C25.0437 21.1064 25.2141 20.0556 25.5549 19.0971C25.8957 18.1386 26.3749 17.3044 26.9926 16.5944C27.6174 15.8844 28.3487 15.3376 29.1865 14.9542C30.0314 14.5637 30.9509 14.3685 31.9449 14.3685C32.7117 14.3685 33.3329 14.4502 33.8086 14.6135C34.2914 14.7768 34.6642 14.9436 34.9269 15.114C35.1967 15.2773 35.3884 15.359 35.502 15.359C35.6582 15.359 35.7611 15.2915 35.8108 15.1566C35.8676 15.0146 35.9244 14.8762 35.9812 14.7413C36.038 14.6064 36.1374 14.5389 36.2794 14.5389C36.3575 14.5389 36.4214 14.5638 36.4711 14.6135C36.5279 14.6561 36.5741 14.7342 36.6096 14.8477L37.7598 18.4155C37.8024 18.5291 37.7988 18.6285 37.7491 18.7137C37.6994 18.7918 37.6178 18.838 37.5042 18.8521C37.4119 18.8593 37.3267 18.8415 37.2486 18.7989C37.1776 18.7563 37.1172 18.6853 37.0675 18.5859C36.6628 17.741 36.2155 17.0558 35.7256 16.5304C35.2357 16.005 34.6855 15.6217 34.0749 15.3803C33.4714 15.1318 32.7898 15.0075 32.0301 15.0075C31.2775 15.0075 30.5781 15.1673 29.932 15.4868C29.2859 15.8063 28.7215 16.2642 28.2387 16.8606C27.763 17.457 27.3902 18.1705 27.1204 19.0012C26.8577 19.8319 26.7264 20.7585 26.7264 21.7809C26.7264 23.279 26.9855 24.5677 27.5038 25.6469C28.0292 26.719 28.7392 27.539 29.6338 28.107C30.5284 28.675 31.5366 28.959 32.6584 28.959C33.8157 28.959 34.7813 28.6999 35.5552 28.1816C36.3362 27.6633 36.9078 26.9532 37.2699 26.0515C37.3196 25.9521 37.3728 25.8847 37.4296 25.8492C37.4864 25.8066 37.5468 25.7889 37.6107 25.7959C37.6746 25.7959 37.7207 25.8172 37.7491 25.8598C37.7846 25.8953 37.8024 25.9486 37.8024 26.0196Z" fill="white"/>
<path d="M45.9724 15.2524L45.163 15.3803C44.9997 15.4087 44.8719 15.469 44.7796 15.5613C44.6873 15.6465 44.6412 15.7601 44.6412 15.9021V28.2561C44.6412 28.5046 44.7264 28.6856 44.8968 28.7992C45.0672 28.9128 45.337 28.9697 45.7062 28.9697H48.4539C48.8728 28.9697 49.2242 28.9164 49.5082 28.8099C49.7922 28.7034 50.0372 28.5188 50.2431 28.2561C50.4561 27.9934 50.6584 27.6242 50.8501 27.1485L51.4146 25.7214C51.4643 25.6149 51.5211 25.5404 51.585 25.4978C51.6489 25.4552 51.7305 25.441 51.8299 25.4552C51.9293 25.4694 52.0003 25.512 52.0429 25.583C52.0855 25.654 52.0891 25.7534 52.0536 25.8812L51.2016 29.5874C51.159 29.7294 51.1022 29.8359 51.0312 29.9069C50.9673 29.9779 50.8785 30.0134 50.7649 30.0134C50.6371 30.0134 50.52 29.9779 50.4135 29.9069C50.3141 29.8359 50.2005 29.7649 50.0727 29.6939C49.952 29.63 49.7922 29.598 49.5934 29.598H41.7018C41.5669 29.598 41.4675 29.5732 41.4036 29.5235C41.3468 29.4738 41.3184 29.4099 41.3184 29.3318C41.3184 29.1756 41.432 29.0762 41.6592 29.0336L42.4792 28.9058C42.6425 28.8774 42.7668 28.8205 42.852 28.7353C42.9443 28.643 42.9904 28.5259 42.9904 28.3839V15.9021C42.9904 15.7601 42.9443 15.6465 42.852 15.5613C42.7668 15.469 42.6425 15.4087 42.4792 15.3803L41.6592 15.2524C41.432 15.2099 41.3184 15.1104 41.3184 14.9542C41.3184 14.869 41.3468 14.8052 41.4036 14.7626C41.4675 14.7129 41.5669 14.688 41.7018 14.688H45.9405C46.0754 14.688 46.1712 14.7129 46.228 14.7626C46.2848 14.8052 46.3132 14.869 46.3132 14.9542C46.3132 15.1104 46.1996 15.2099 45.9724 15.2524Z" fill="white"/>
<path d="M57.4461 23.8044H63.8255L63.9 24.4647H57.329L57.4461 23.8044ZM58.2023 29.3318C58.2023 29.4099 58.1703 29.4738 58.1064 29.5235C58.0425 29.5732 57.9431 29.598 57.8082 29.598H54.5706C54.4286 29.598 54.3257 29.5767 54.2618 29.5341C54.1979 29.4844 54.1659 29.4205 54.1659 29.3424C54.1659 29.2785 54.1872 29.2252 54.2298 29.1826C54.2795 29.14 54.3754 29.0939 54.5174 29.0442L54.986 28.9058C55.1848 28.8419 55.3303 28.746 55.4226 28.6182C55.5149 28.4833 55.6214 28.2384 55.7421 27.8834L59.8104 15.8808C59.8743 15.682 59.8814 15.54 59.8317 15.4548C59.782 15.3625 59.6329 15.2951 59.3844 15.2524C59.1927 15.217 59.0578 15.1743 58.9797 15.1247C58.9087 15.075 58.8732 15.0146 58.8732 14.9436C58.8732 14.8584 58.9052 14.7945 58.9691 14.7519C59.0401 14.7093 59.143 14.688 59.2779 14.688H62.835C62.9699 14.688 63.0693 14.7093 63.1332 14.7519C63.1971 14.7945 63.2291 14.8549 63.2291 14.933C63.2291 15.0111 63.1936 15.075 63.1226 15.1247C63.0587 15.1743 62.9344 15.217 62.7498 15.2524C62.5368 15.2809 62.409 15.3306 62.3664 15.4016C62.3238 15.4654 62.3309 15.579 62.3877 15.7423L66.6797 28.2561C66.7507 28.4904 66.8536 28.6644 66.9885 28.778C67.1305 28.8916 67.3364 28.9732 67.6062 29.0229C67.7766 29.0584 67.8902 29.101 67.947 29.1507C68.0038 29.1933 68.0322 29.2537 68.0322 29.3318C68.0322 29.4099 67.9967 29.4738 67.9257 29.5235C67.8618 29.5732 67.7624 29.598 67.6275 29.598H63.8787C63.7509 29.598 63.6515 29.5732 63.5805 29.5235C63.5166 29.4738 63.4847 29.4099 63.4847 29.3318C63.4847 29.2608 63.5131 29.204 63.5699 29.1614C63.6267 29.1117 63.7154 29.0726 63.8361 29.0442L64.7094 28.9484C64.894 28.92 64.9934 28.8525 65.0076 28.746C65.0218 28.6395 64.9899 28.4691 64.9118 28.2348L60.524 15.3696L60.7902 15.2738L56.5515 27.8301C56.4805 28.0573 56.445 28.2455 56.445 28.3946C56.4521 28.5366 56.5018 28.6501 56.5941 28.7353C56.6864 28.8134 56.8284 28.8773 57.0201 28.927L57.8508 29.0548C57.9786 29.0832 58.0674 29.1188 58.1171 29.1614C58.1739 29.1969 58.2023 29.2537 58.2023 29.3318Z" fill="white"/>
<path d="M76.4426 29.9388C75.7681 29.9388 75.1894 29.8501 74.7066 29.6726C74.2309 29.4951 73.8475 29.3211 73.5564 29.1507C73.2724 28.9803 73.0807 28.8951 72.9813 28.8951C72.8748 28.8951 72.7967 28.9483 72.747 29.0548C72.7044 29.1542 72.6654 29.275 72.6299 29.417C72.6015 29.5519 72.5589 29.669 72.5021 29.7684C72.4524 29.8749 72.3743 29.9282 72.2678 29.9282C72.1826 29.9282 72.1151 29.8998 72.0654 29.843C72.0157 29.7862 71.9767 29.701 71.9483 29.5874L71.0963 26.2859C71.075 26.1865 71.0821 26.1013 71.1176 26.0303C71.1602 25.9522 71.2276 25.8953 71.3199 25.8598C71.4193 25.8314 71.5045 25.8386 71.5755 25.8812C71.6536 25.9167 71.7175 25.9912 71.7672 26.1048C72.1222 26.8503 72.5447 27.4574 73.0346 27.926C73.5316 28.3946 74.0641 28.7389 74.6321 28.959C75.2072 29.1791 75.7929 29.2892 76.3893 29.2892C77.2484 29.2892 77.9158 29.0513 78.3915 28.5756C78.8743 28.0928 79.1193 27.468 79.1264 26.7012C79.1335 26.2326 79.0305 25.796 78.8175 25.3913C78.6116 24.9795 78.2247 24.5819 77.6567 24.1985C77.0887 23.815 76.2686 23.4316 75.1965 23.0483C74.1457 22.6719 73.3044 22.2566 72.6725 21.8022C72.0406 21.3478 71.5826 20.8402 71.2986 20.2793C71.0146 19.7113 70.8726 19.0758 70.8726 18.3729C70.8726 17.5706 71.0572 16.8713 71.4264 16.2749C71.7956 15.6785 72.3104 15.2205 72.9707 14.901C73.631 14.5744 74.3871 14.4111 75.2391 14.4111C75.942 14.4111 76.5065 14.4927 76.9325 14.656C77.3656 14.8193 77.7064 14.9827 77.9549 15.146C78.2034 15.3093 78.3986 15.3909 78.5406 15.3909C78.6826 15.3909 78.7678 15.3128 78.7962 15.1566C78.8317 14.9933 78.8672 14.83 78.9027 14.6667C78.9382 14.4963 79.0305 14.4111 79.1796 14.4111C79.2648 14.4111 79.3323 14.4395 79.382 14.4963C79.4388 14.546 79.4885 14.6419 79.5311 14.7839L80.5961 18.2558C80.6245 18.3623 80.6209 18.4616 80.5854 18.5539C80.5499 18.6462 80.486 18.7066 80.3937 18.735C80.2943 18.7634 80.2056 18.7598 80.1275 18.7243C80.0494 18.6817 79.9819 18.6072 79.9251 18.5007C79.5133 17.6487 79.066 16.9707 78.5832 16.4666C78.1004 15.9625 77.5857 15.6004 77.039 15.3803C76.4923 15.1531 75.9172 15.0394 75.3137 15.0394C74.412 15.0394 73.6878 15.2986 73.1411 15.8169C72.6015 16.3352 72.3317 17.0239 72.3317 17.883C72.3317 18.3729 72.4417 18.8344 72.6618 19.2675C72.8819 19.7006 73.2689 20.1159 73.8227 20.5135C74.3765 20.904 75.1575 21.2874 76.1657 21.6637C77.2733 22.0826 78.1466 22.5193 78.7856 22.9737C79.4246 23.421 79.879 23.9109 80.1488 24.4434C80.4257 24.9759 80.5606 25.5688 80.5535 26.222C80.5464 26.8965 80.3831 27.5177 80.0636 28.0857C79.7512 28.6466 79.2897 29.0974 78.6791 29.4382C78.0756 29.7719 77.3301 29.9388 76.4426 29.9388Z" fill="white"/>
<path d="M90.0604 29.9388C89.3859 29.9388 88.8073 29.8501 88.3245 29.6726C87.8488 29.4951 87.4654 29.3211 87.1743 29.1507C86.8903 28.9803 86.6986 28.8951 86.5992 28.8951C86.4927 28.8951 86.4146 28.9483 86.3649 29.0548C86.3223 29.1542 86.2832 29.275 86.2477 29.417C86.2193 29.5519 86.1767 29.669 86.1199 29.7684C86.0702 29.8749 85.9921 29.9282 85.8856 29.9282C85.8004 29.9282 85.733 29.8998 85.6833 29.843C85.6336 29.7862 85.5945 29.701 85.5661 29.5874L84.7141 26.2859C84.6928 26.1865 84.6999 26.1013 84.7354 26.0303C84.778 25.9522 84.8455 25.8953 84.9378 25.8598C85.0372 25.8314 85.1224 25.8386 85.1934 25.8812C85.2715 25.9167 85.3354 25.9912 85.3851 26.1048C85.7401 26.8503 86.1625 27.4574 86.6524 27.926C87.1494 28.3946 87.6819 28.7389 88.2499 28.959C88.825 29.1791 89.4108 29.2892 90.0072 29.2892C90.8663 29.2892 91.5337 29.0513 92.0094 28.5756C92.4922 28.0928 92.7371 27.468 92.7442 26.7012C92.7513 26.2326 92.6484 25.796 92.4354 25.3913C92.2295 24.9795 91.8425 24.5819 91.2745 24.1985C90.7065 23.815 89.8865 23.4316 88.8144 23.0483C87.7636 22.6719 86.9222 22.2566 86.2903 21.8022C85.6584 21.3478 85.2005 20.8402 84.9165 20.2793C84.6325 19.7113 84.4905 19.0758 84.4905 18.3729C84.4905 17.5706 84.6751 16.8713 85.0443 16.2749C85.4135 15.6785 85.9282 15.2205 86.5885 14.901C87.2488 14.5744 88.005 14.4111 88.857 14.4111C89.5599 14.4111 90.1243 14.4927 90.5503 14.656C90.9834 14.8193 91.3242 14.9827 91.5727 15.146C91.8212 15.3093 92.0165 15.3909 92.1585 15.3909C92.3005 15.3909 92.3857 15.3128 92.4141 15.1566C92.4496 14.9933 92.4851 14.83 92.5206 14.6667C92.5561 14.4963 92.6484 14.4111 92.7975 14.4111C92.8827 14.4111 92.9501 14.4395 92.9998 14.4963C93.0566 14.546 93.1063 14.6419 93.1489 14.7839L94.2139 18.2558C94.2423 18.3623 94.2388 18.4616 94.2033 18.5539C94.1678 18.6462 94.1039 18.7066 94.0116 18.735C93.9122 18.7634 93.8234 18.7598 93.7453 18.7243C93.6672 18.6817 93.5998 18.6072 93.543 18.5007C93.1312 17.6487 92.6839 16.9707 92.2011 16.4666C91.7183 15.9625 91.2035 15.6004 90.6568 15.3803C90.1101 15.1531 89.535 15.0394 88.9315 15.0394C88.0298 15.0394 87.3056 15.2986 86.7589 15.8169C86.2193 16.3352 85.9495 17.0239 85.9495 17.883C85.9495 18.3729 86.0596 18.8344 86.2797 19.2675C86.4998 19.7006 86.8867 20.1159 87.4405 20.5135C87.9943 20.904 88.7753 21.2874 89.7835 21.6637C90.8911 22.0826 91.7644 22.5193 92.4034 22.9737C93.0424 23.421 93.4968 23.9109 93.7666 24.4434C94.0435 24.9759 94.1784 25.5688 94.1713 26.222C94.1642 26.8965 94.0009 27.5177 93.6814 28.0857C93.369 28.6466 92.9075 29.0974 92.2969 29.4382C91.6934 29.7719 90.9479 29.9388 90.0604 29.9388Z" fill="white"/>
<path d="M101.463 28.3839C101.463 28.5259 101.509 28.643 101.602 28.7353C101.694 28.8205 101.822 28.8774 101.985 28.9058L102.794 29.0336C103.022 29.0762 103.135 29.1756 103.135 29.3318C103.135 29.4099 103.107 29.4738 103.05 29.5235C102.993 29.5732 102.897 29.598 102.762 29.598H98.5237C98.3888 29.598 98.2894 29.5732 98.2255 29.5235C98.1687 29.4738 98.1403 29.4099 98.1403 29.3318C98.1403 29.1756 98.2539 29.0762 98.4811 29.0336L99.3011 28.9058C99.4644 28.8774 99.5887 28.8205 99.6739 28.7353C99.7662 28.643 99.8123 28.5259 99.8123 28.3839V15.9021C99.8123 15.7601 99.7662 15.6465 99.6739 15.5613C99.5887 15.469 99.4644 15.4087 99.3011 15.3803L98.4811 15.2524C98.2539 15.2099 98.1403 15.1104 98.1403 14.9542C98.1403 14.869 98.1687 14.8052 98.2255 14.7626C98.2894 14.7129 98.3888 14.688 98.5237 14.688H102.762C102.897 14.688 102.993 14.7129 103.05 14.7626C103.107 14.8052 103.135 14.869 103.135 14.9542C103.135 15.1104 103.022 15.2099 102.794 15.2524L101.985 15.3803C101.822 15.4087 101.694 15.469 101.602 15.5613C101.509 15.6465 101.463 15.7601 101.463 15.9021V28.3839Z" fill="white"/>
<path d="M119.676 26.0196C119.669 26.4669 119.537 26.9213 119.282 27.3828C119.026 27.8443 118.657 28.2703 118.174 28.6608C117.699 29.0513 117.116 29.3673 116.428 29.6087C115.746 29.8501 114.965 29.9708 114.085 29.9708C112.608 29.9708 111.333 29.6406 110.261 28.9803C109.189 28.3129 108.362 27.4006 107.78 26.2432C107.205 25.086 106.917 23.7547 106.917 22.2495C106.917 21.1064 107.088 20.0556 107.428 19.0971C107.769 18.1386 108.248 17.3044 108.866 16.5944C109.491 15.8844 110.222 15.3376 111.06 14.9542C111.905 14.5637 112.824 14.3685 113.818 14.3685C114.585 14.3685 115.206 14.4502 115.682 14.6135C116.165 14.7768 116.538 14.9436 116.8 15.114C117.07 15.2773 117.262 15.359 117.376 15.359C117.532 15.359 117.635 15.2915 117.684 15.1566C117.741 15.0146 117.798 14.8762 117.855 14.7413C117.912 14.6064 118.011 14.5389 118.153 14.5389C118.231 14.5389 118.295 14.5638 118.345 14.6135C118.401 14.6561 118.448 14.7342 118.483 14.8477L119.633 18.4155C119.676 18.5291 119.672 18.6285 119.623 18.7137C119.573 18.7918 119.491 18.838 119.378 18.8521C119.285 18.8593 119.2 18.8415 119.122 18.7989C119.051 18.7563 118.991 18.6853 118.941 18.5859C118.536 17.741 118.089 17.0558 117.599 16.5304C117.109 16.005 116.559 15.6217 115.948 15.3803C115.345 15.1318 114.663 15.0075 113.904 15.0075C113.151 15.0075 112.452 15.1673 111.806 15.4868C111.159 15.8063 110.595 16.2642 110.112 16.8606C109.637 17.457 109.264 18.1705 108.994 19.0012C108.731 19.8319 108.6 20.7585 108.6 21.7809C108.6 23.279 108.859 24.5677 109.377 25.6469C109.903 26.719 110.613 27.539 111.507 28.107C112.402 28.675 113.41 28.959 114.532 28.959C115.689 28.959 116.655 28.6999 117.429 28.1816C118.21 27.6633 118.781 26.9532 119.143 26.0515C119.193 25.9521 119.246 25.8847 119.303 25.8492C119.36 25.8066 119.42 25.7889 119.484 25.7959C119.548 25.7959 119.594 25.8172 119.623 25.8598C119.658 25.8953 119.676 25.9486 119.676 26.0196Z" fill="white"/>
<path d="M128.73 29.9388C128.055 29.9388 127.477 29.8501 126.994 29.6726C126.518 29.4951 126.135 29.3211 125.844 29.1507C125.56 28.9803 125.368 28.8951 125.269 28.8951C125.162 28.8951 125.084 28.9483 125.034 29.0548C124.992 29.1542 124.953 29.275 124.917 29.417C124.889 29.5519 124.846 29.669 124.789 29.7684C124.74 29.8749 124.662 29.9282 124.555 29.9282C124.47 29.9282 124.402 29.8998 124.353 29.843C124.303 29.7862 124.264 29.701 124.236 29.5874L123.384 26.2859C123.362 26.1865 123.369 26.1013 123.405 26.0303C123.448 25.9522 123.515 25.8953 123.607 25.8598C123.707 25.8314 123.792 25.8386 123.863 25.8812C123.941 25.9167 124.005 25.9912 124.055 26.1048C124.41 26.8503 124.832 27.4574 125.322 27.926C125.819 28.3946 126.351 28.7389 126.919 28.959C127.495 29.1791 128.08 29.2892 128.677 29.2892C129.536 29.2892 130.203 29.0513 130.679 28.5756C131.162 28.0928 131.407 27.468 131.414 26.7012C131.421 26.2326 131.318 25.796 131.105 25.3913C130.899 24.9795 130.512 24.5819 129.944 24.1985C129.376 23.815 128.556 23.4316 127.484 23.0483C126.433 22.6719 125.592 22.2566 124.96 21.8022C124.328 21.3478 123.87 20.8402 123.586 20.2793C123.302 19.7113 123.16 19.0758 123.16 18.3729C123.16 17.5706 123.345 16.8713 123.714 16.2749C124.083 15.6785 124.598 15.2205 125.258 14.901C125.918 14.5744 126.674 14.4111 127.526 14.4111C128.229 14.4111 128.794 14.4927 129.22 14.656C129.653 14.8193 129.994 14.9827 130.242 15.146C130.491 15.3093 130.686 15.3909 130.828 15.3909C130.97 15.3909 131.055 15.3128 131.084 15.1566C131.119 14.9933 131.155 14.83 131.19 14.6667C131.226 14.4963 131.318 14.4111 131.467 14.4111C131.552 14.4111 131.62 14.4395 131.669 14.4963C131.726 14.546 131.776 14.6419 131.818 14.7839L132.883 18.2558C132.912 18.3623 132.908 18.4616 132.873 18.5539C132.837 18.6462 132.773 18.7066 132.681 18.735C132.582 18.7634 132.493 18.7598 132.415 18.7243C132.337 18.6817 132.269 18.6072 132.212 18.5007C131.801 17.6487 131.353 16.9707 130.871 16.4666C130.388 15.9625 129.873 15.6004 129.326 15.3803C128.78 15.1531 128.205 15.0394 127.601 15.0394C126.699 15.0394 125.975 15.2986 125.428 15.8169C124.889 16.3352 124.619 17.0239 124.619 17.883C124.619 18.3729 124.729 18.8344 124.949 19.2675C125.169 19.7006 125.556 20.1159 126.11 20.5135C126.664 20.904 127.445 21.2874 128.453 21.6637C129.561 22.0826 130.434 22.5193 131.073 22.9737C131.712 23.421 132.166 23.9109 132.436 24.4434C132.713 24.9759 132.848 25.5688 132.841 26.222C132.834 26.8965 132.67 27.5177 132.351 28.0857C132.039 28.6466 131.577 29.0974 130.966 29.4382C130.363 29.7719 129.617 29.9388 128.73 29.9388Z" fill="white"/>
<rect x="7" y="29.598" width="22" height="5" rx="1" transform="rotate(-90 7 29.598)" fill="#D4564C"/>
<rect x="14" y="22.598" width="22" height="5" rx="1" transform="rotate(-90 14 22.598)" fill="#D4564C"/>
<rect y="22.598" width="22" height="5" rx="1" transform="rotate(-90 0 22.598)" fill="#D4564C"/>
<path d="M7 3.09802L8.66656 2.2649L9.5 0.598022L10.3334 2.2649L12 3.09802L10.3334 3.93115L9.5 5.59802L8.66656 3.93115L7 3.09802Z" fill="#D4564C"/>
<path d="M14 27.098L15.6666 26.2649L16.5 24.598L17.3334 26.2649L19 27.098L17.3334 27.9311L16.5 29.598L15.6666 27.9311L14 27.098Z" fill="#D4564C"/>
<path d="M-1.09278e-07 27.098L1.66656 26.2649L2.5 24.598L3.33344 26.2649L5 27.098L3.33344 27.9311L2.5 29.598L1.66656 27.9311L-1.09278e-07 27.098Z" fill="#D4564C"/>
</svg>
